<svg
	xmlns="http://www.w3.org/2000/svg"
	viewBox="-60 -60 120 120"
	overflow="visible"
	font-family="sans-serif"
>
<desc>
CIE Lab色空間の L=50 平面を示す。
2 つの色は、
この平面上で混合され，視覚-化される
— 中間色は、図に示される円弧上に乗る。

2 つの色
peru
= lch(62.253% 54.011 63.677)
= rgb(80.39% 52.16% 24.71%)
= lab(62.253, 23.95015324432121, 48.41051828449609)

lightgoldenrod
= lch(91.374% 31.415 98.821)
= rgb(93.33% 90.98% 66.67%)
= lab(91.374, -4.8174283819125385, 31.043431008590908)

を 40% 対 60% で混合した結果は
= lch(79.7256% 40.4534 84.7634)
= rgb(87.41% 76.03% 47.64%)
= lab(79.7256, 3.69213016556943, 40.28455965255785)
になる。

<!-- 原文
Show the L=50 plane of the CIE Lab colorspace.
Two colors to be mixed are visualized on this plane,
with an arc to show where the intermediate colors lie.

      peru lch(62.253% 54.011 63.677) rgb(80.39% 52.16% 24.71%) lab(62.253, 23.95015324432121, 48.41051828449609)
      lightgoldenrod lch(91.374% 31.415 98.821) rgb(93.33% 90.98% 66.67%) lab(91.374, -4.8174283819125385, 31.043431008590908)
      40% mix is lch(79.7256% 40.4534 84.7634) rgb(87.41% 76.03% 47.64%) lab(79.7256, 3.69213016556943, 40.28455965255785)
-->
</desc>

<defs>
	<g id="axis-with-ticks" fill="none" stroke-width="0.5">
<path stroke="black" d="M0,0 L0,50" />
<path stroke="#888" d="
M-3,10 h6
M-3,20 h6
M-3,30 h6
M-3,40 h6" />
	</g>
</defs>

<use href="#axis-with-ticks" transform="rotate(0)" />
<use href="#axis-with-ticks" transform="rotate(90)" />
<use href="#axis-with-ticks" transform="rotate(180)" />
<use href="#axis-with-ticks" transform="rotate(270)" />

<!-- mix curve
  for (i=0; i<100; i+=5) { h=63.677 *i/100 + 98.821 *(100-i)/100; c=54.011 * i/100 + 31.415 *(100-i)/100; lab=LCH_to_Lab([50, c, h]); console.log(lab[1]); console.log(-1*lab[2])}
-->
<path fill="none" stroke="#777" stroke-width="0.7" stroke-dasharray="2" d="
M -4.8174283819125385, -31.043431008590908
-4.002180106494985, -32.29777951245528
-3.114405014787345, -33.53027239024264
-2.154709122661937,  -34.737637915619956
-1.1238309754799702,  -35.91662196780972
-0.02264110778045535,  -37.06399308466694
1.1478586823401669,  -38.17654749824001
2.3865362435629676,  -39.251114146201765
3.69213016556943,  -40.28455965255785
5.063251056096029,  -41.273793271069025
6.498382999533563,  -42.215771784859896
7.995885195557093,  -43.107504355732196
9.553993776044777,  -43.94605731675252
11.170823798319374,  -44.72855890174533
12.844371412523529,  -45.45220390538998
14.572516200719035,  -46.11425826769614
16.35302368508285,  -46.7120635767156
18.183548002357725,  -47.24304148343915
20.061634741502687,  -47.704698022925726
21.984723941281516,  -48.094627835815956"
/>

<!-- radial lines for hue angle and chroma -->

	<g stroke-width="0.5">
<!-- peru -->
		<g style="color:rgb(80.39% 52.16% 24.71%);">
<path stroke="currentcolor" d="M0,0 L23.95, -48.41" />
<circle fill="currentcolor" r="3" cx="23.95015324432121" cy="-48.41051828449609" />
		</g>
<!-- mix -->
		<g style="color:rgb(93.33% 90.98% 66.67%);">
<path stroke="currentcolor" d="M0,0 L-4.81, -31.04" />
<circle fill="currentcolor" r="3" cx="-4.8174283819125385" cy="-31.043431008590908" />
		</g>
<!-- paleGoldenRod -->
		<g style="color:rgb(87.41% 76.03% 47.64%);">
<path stroke="currentcolor" d="M0,0 L3.692, -40.28" />
<circle fill="currentcolor" r="3" cx="3.69213016556943" cy="-40.28455965255785" />
		</g>
	</g>

<!-- origin -->
	<g stroke="none">
<circle r="4" />
<circle r="3" fill="#777"/>
<circle r="2" fill="#fff"/>
	</g>

	<g font-size="6px">
<text x="50" y="-2">+a</text>
<text x="-50" y="-2" text-anchor="end">−a</text>
<text x="4" y="52">−b</text>
<text x="4" y="-48">+b</text>
	</g>
	<g font-size="4px">
<text x="28" y="-46.8">peru</text>
<text x="-10" y="-29" text-anchor="end">palegoldenrod</text>
<text x="-5" y="-40" text-anchor="end">mix</text>
	</g>
</svg>