<svg
	xmlns="http://www.w3.org/2000/svg"
	viewBox="-70 -70 140 140" overflow="visible"
	font-family="sans-serif"
>
<desc>
CIE Lab 色空間の L=50 平面を示す。
2 つの色は、この平面上で混合され，視覚化される
— 中間色は、図に示される円弧上に乗る。

sRGB teal (#008080)
= lch(47.9855% 31.6903 196.4524)
= lab(47.9855% -30.3927 -8.9753)
と
sRGB olive (#808000)
= lch(52.1496% 56.8124 99.5746)
= lab(52.1496% -9.4497 56.0210)
を 65% 対 35% で混合した結果は、
lch(49.4429% 40.4830 162.5452)
= rgb(7.7377% 52.5730% 37.3213%)
= lab(49.4429% -38.6189 12.1430)
になる。
<!-- 原文
Show the L=50 plane of the CIE Lab colorspace.
Two colors to be mixed are visualized on this plane,
with an arc to show where the intermediate colors lie.
teal (#008080) is lch(47.9855% 31.6903 196.4524) lab(47.9855% -30.3927 -8.9753)
olive (#808000) is lch(52.1496% 56.8124 99.5746) lab(52.1496% -9.4497 56.0210)
mix is lch(49.4429% 40.4830 162.5452) which is rgb(7.7377% 52.5730% 37.3213%) lab(49.4429% -38.6189 12.1430)
-->
</desc>

<defs>
	<g id="axis-with-ticks" fill="none" stroke-width="0.5">
<path stroke="black" d="M0,0 L0,60" />
<path stroke="#888" d="
M-3,10 h6
M-3,20 h6
M-3,30 h6
M-3,40 h6
M-3,50 h6
M-3,60 h6
" />
	</g>
</defs>

<use href="#axis-with-ticks" transform="rotate(0)" />
<use href="#axis-with-ticks" transform="rotate(90)" />
<use href="#axis-with-ticks" transform="rotate(180)" />
<use href="#axis-with-ticks" transform="rotate(270)" />

<!-- mix curve
for (i=0; i<100; i+=5) { h=196.4524 *i/100 + 99.5746 *(100-i)/100; c=31.6903 * i/100 + 56.8124 *(100-i)/100; lab=LCH_to_Lab([50, c, h]); console.log(lab[1]); console.log(-1*lab[2])}
-->
<path fill="none" stroke="#777" stroke-width="0.7" stroke-dasharray="2" d="
M -9.449698804240317,-56.02099594142484
-13.833653402205362,-53.80643035618212
-17.913341009843528,-51.26034381372367
-21.664814272923504,-48.41808315089472
-25.06790075079225,-45.31661091066751
-28.106299689649568,-41.99412231219065
-30.767641260271752,-38.489657836516585
-33.04350824562605,-34.84271501380839
-34.929420499694515,-31.092862966107194
-36.42478282900496,-27.279363197055208
-37.532797270032745,-23.440800027070804
-38.26034104605828,-19.614723950372923
-38.617811783626045,-15.837311040199754
-38.618941848963466,-12.14304135205028
-38.28058392625162,-8.564399073496384
-37.62247020033304,-5.131596944975052
-36.66694772432252,-1.8723272310682786
-35.43869274589105,1.1884587416286438
-33.964406933172626,4.028740743452682
-32.27249858098426,6.629588053898483"/>

<!-- radial lines for hue angle and chroma -->
<polyline stroke="teal" points ="0,0 -30.3927,8.9753"/>
<polyline stroke="olive" points ="0,0 " />
<polyline stroke="rgb(7.7377% 52.5730% 37.3213%)" points ="0,0 -38.6189,-12.1430"/>


	<g stroke-width="0.5">
<!-- teal -->
		<g style="color:teal;">
<path stroke="currentcolor" d="M0,0 L-30.3927,8.9753" />
<circle fill="currentcolor" r="3" cx="-30.3927" cy="8.9753" />
		</g>
<!-- olive -->
		<g style="color:olive;">
<path stroke="currentcolor" d="M0,0 L-9.4497,-56.0210" />
<circle fill="currentcolor" r="3" cx="-9.4497" cy="-56.0210" />
		</g>
<!-- mix -->
		<g style="color:rgb(7.7377% 52.5730% 37.3213%);">
<path stroke="currentcolor" d="M0,0 L-38.6189,-12.1430" />
<circle fill="currentcolor" r="3" cx="-38.6189" cy="-12.1430" />
		</g>
	</g>

	<g stroke="none">
<circle r="4" />
<circle r="3" fill="#777"/>
<circle r="2" fill="#fff"/>
	</g>

	<g font-size="6px">
<text x="60" y="-4" text-anchor="middle">+a</text>
<text x="-60" y="-4" text-anchor="middle">-a</text>
<text x="4" y="62">-b</text>
<text x="4" y="-58">+b</text>
	</g>
	<g font-size="4px">
<text x="-38" y="11" text-anchor="end">teal</text>
<text x="-14" y="-55" text-anchor="end">olive</text>
<text x="-45" y="-12" text-anchor="end">mix</text>
	</g>


</svg>
