<?xml version="1.0" encoding="UTF-8"?>
<svg
	version="1.1"
	xmlns="http://www.w3.org/2000/svg"
	width="720" height="150"
	viewBox="0 0 720 150"
>
<title>joining-and-transparency</title>

<style type="text/css"><![CDATA[
text {
	font-size: 20px;
	text-anchor: middle;
	stroke: none;
}
]]></style>

	<defs>
<path
	id="phrase1"
	fill="black"
	fill-rule="evenodd"
	d="M44.2984104,76.064 L46.432,76.064 C47.584,76.064 49.024,75.488 50.752,74.192 C52.48,72.896 54.496,71.024 56.8,68.576 C59.68,65.408 62.128,62.816 64.144,60.944 C66.16,59.072 67.6,57.776 68.608,57.2 C69.616,56.624 70.624,56.192 71.632,55.904 C72.64,55.616 73.792,55.472 74.944,55.472 C76.096,55.472 77.104,55.616 77.824,55.76 C78.544,55.904 79.12,56.192 79.408,56.48 C80.992,58.352 82.576,60.224 84.16,62.096 C85.744,63.968 87.328,65.984 88.912,68 C91.072,70.736 93.232,72.752 95.248,74.048 C97.264,75.344 99.136,76.064 101.008,76.064 L101.728,76.064 L102.448,76.064 C103.456,76.064 104.608,75.92 105.76,75.632 C106.912,75.344 108.064,75.056 109.36,74.624 C110.944,74.192 112.24,73.616 113.104,72.896 C113.968,72.176 114.4,71.456 114.256,70.736 L111.664,26.672 C111.52,23.936 111.376,21.344 111.088,18.896 C110.8,16.448 110.512,14.144 110.224,11.984 C110.224,11.84 110.512,11.408 110.944,10.688 C111.376,9.968 112.096,8.96 112.96,7.664 C113.392,6.944 113.968,6.08 114.544,5.072 C115.12,4.064 115.84,2.912 116.704,1.616 C116.848,1.472 116.992,1.328 117.136,1.184 C117.28,1.04 117.424,0.896 117.568,0.752 C117.712,0.896 117.856,1.04 117.856,1.328 L117.856,2.48 C118.576,22.208 119.152,37.472 119.728,48.128 C120.304,58.784 120.736,64.832 120.88,66.128 C121.456,69.44 122.32,71.888 123.472,73.616 C124.624,75.344 126.064,76.208 127.936,76.208 L131.248,76.208 L131.239403,76.496 L131.392,76.496 C135.856,76.496 139.888,76.064 143.488,75.2 C147.088,74.336 150.256,73.04 152.992,71.456 C154.432,70.592 155.584,69.728 156.304,69.008 C157.024,68.288 157.456,67.568 157.456,66.848 C157.456,64.4 156.592,61.952 154.864,59.36 C153.136,56.768 150.4,54.176 146.8,51.584 C145.792,50.864 144.496,50 142.912,48.992 C141.328,47.984 139.456,46.832 137.296,45.536 C135.712,44.528 134.56,43.808 133.84,43.232 C133.12,42.656 132.688,42.224 132.688,41.936 C132.688,41.216 132.688,40.352 132.832,39.2 C132.976,38.048 133.12,36.752 133.264,35.168 C133.408,33.296 133.552,31.856 133.696,30.848 C133.84,29.84 133.984,29.264 134.128,29.12 C140.608,24.368 147.664,19.616 155.44,15.008 C163.216,10.4 171.712,5.936 180.784,1.472 C181.36,1.184 181.792,1.04 182.224,0.896 C182.656,0.752 182.944,0.752 183.088,0.752 L183.376,0.752 L183.376,1.04 C183.376,1.184 183.232,1.472 183.088,1.76 C182.944,2.048 182.8,2.48 182.656,2.912 L182.368,3.2 C181.936,4.064 181.36,5.36 180.496,7.088 C179.632,8.816 178.624,10.832 177.328,13.28 C168.976,17.456 161.488,21.344 154.864,25.088 C148.24,28.832 142.48,32.432 137.728,35.888 C138.448,36.32 139.456,36.896 140.752,37.616 C142.048,38.336 143.488,39.344 145.216,40.496 C147.376,41.792 149.392,43.232 151.264,44.672 C153.136,46.112 154.864,47.696 156.448,49.424 C158.32,51.584 159.76,53.744 160.624,55.904 C161.488,58.064 161.92,60.08 161.92,62.096 C161.92,65.408 161.776,68 161.632,70.016 C161.488,72.032 161.2,73.472 160.768,74.192 C158.464,78.224 154.864,81.248 149.824,83.264 C144.784,85.28 138.448,86.288 130.816,86.288 L127.648,86.288 L127.648,85.856 C125.2,85.856 123.04,85.136 121.312,83.696 C119.584,82.256 118.144,80.096 117.136,77.36 C115.264,80.096 113.104,82.256 110.512,83.696 C107.92,85.136 105.04,85.856 101.872,85.856 L99.136,85.856 L99.136,85.4187155 C97.4885138,85.3585321 95.7125138,84.7842936 93.808,83.696 C91.792,82.544 89.632,80.816 87.328,78.512 C87.184,78.944 86.752,79.664 86.176,80.672 C85.6,81.68 84.88,82.976 84.016,84.56 C83.008,86.144 82.144,87.44 81.568,88.304 C80.992,89.168 80.56,89.6 80.416,89.6 C78.544,89.6 76.528,89.312 74.368,88.736 C72.208,88.16 69.904,87.152 67.6,85.856 C65.44,84.56 63.424,83.264 61.696,81.824 C59.968,80.384 58.384,78.944 57.088,77.36 C55.216,80.096 53.488,82.256 51.904,83.696 C50.4311858,85.034922 48.9583715,85.7513745 47.6013126,85.8453575 L47.584,86.144 L45.28,86.144 C43.12,86.144 41.248,85.712 39.664,84.992 C38.08,84.272 36.64,83.12 35.488,81.68 C34.624,80.672 33.76,79.376 33.04,77.648 C32.32,75.92 31.6,73.904 30.88,71.456 C29.872,72.608 28.864,73.76 27.856,74.912 C26.848,76.064 25.696,77.216 24.4,78.368 C22.528,78.512 20.512,78.512 18.352,78.368 C16.192,78.224 13.744,77.792 11.152,77.216 C7.84,76.64 5.248,75.92 3.52,74.912 C1.792,73.904 0.928,72.752 0.928,71.456 C0.928,71.024 1.648,68.864 2.944,64.832 C4.24,60.8 4.96,58.784 5.104,58.64 C6.688,57.056 9.136,55.328 12.592,53.6 C16.048,51.872 20.368,50 25.696,48.128 L24.112,38.768 C24.256,38.336 24.688,37.328 25.408,35.888 C26.128,34.448 27.136,32.432 28.288,29.84 C28.72,28.832 29.008,28.832 29.152,29.696 C29.296,30.56 30.88,38.48 33.76,53.456 C34.48,56.768 35.056,59.504 35.632,61.664 C36.208,63.824 36.64,65.552 37.072,66.848 C38.08,69.872 39.376,72.176 40.816,73.76 C41.9143294,74.9681623 43.0964315,75.7574609 44.2984104,76.064 Z M70.768,76.784 C69.76,76.208 68.608,75.344 67.312,74.336 C66.016,73.328 64.576,72.176 62.992,70.88 C63.28,70.448 63.712,70.016 64.288,69.44 C64.864,68.864 65.584,68.288 66.448,67.568 C67.456,66.704 68.464,65.984 69.328,65.552 C70.192,65.12 71.056,64.832 71.776,64.832 C73.504,64.832 75.088,65.264 76.384,66.128 C77.68,66.992 78.832,68.288 79.696,70.016 C80.416,71.312 80.992,72.896 81.28,74.624 C81.568,76.352 81.712,78.08 81.568,79.952 C79.264,79.52 77.248,79.088 75.52,78.512 C73.792,77.936 72.208,77.36 70.912,76.64 L70.768,76.784 Z M9.568,65.84 C9.424,65.696 9.28,65.552 9.136,65.408 C8.992,65.264 8.992,65.12 8.992,64.976 C8.992,63.968 9.856,62.816 11.44,61.664 C13.024,60.512 15.472,59.216 18.64,57.92 L26.992,54.608 C27.712,58.208 28.432,61.232 29.008,63.68 C29.584,66.128 30.016,67.856 30.304,68.864 C24.976,68.72 20.512,68.432 17.056,68 C13.6,67.568 11.152,66.848 9.712,65.84 L9.568,65.84 Z"
/>
	</defs>

	<g transform="translate(0, 0)">
<use href="#phrase1"/>
<text x="90" y="140">通常</text>
	</g>
	<g transform="translate(240, 0)">
<use href="#phrase1" opacity="0.5"/>
<text x="90" y="140">半透明（不正）</text>

		<g transform="translate(43, 75)" opacity="0.5">
<path d="M0.298410441,0.064 C0.672324611,0.159358825 1.04816231,0.208 1.424,0.208 L4.16,0.208 L3.60131261,9.84535755 C3.49886544,9.85245252 3.39707797,9.856 3.296,9.856 L0.128,9.856 L0.128,0.064 L0.298410441,0.064 Z"/>
<path d="M57.728,0.064 L59.456,0.064 L59.312,9.424 L55.424,9.424 C55.3284404,9.424 55.2324404,9.4222385 55.136,9.41871549 L55.136,0.064 L57.728,0.064 Z"/>
<path d="M83.648,9.856 L86.96,9.856 L87.239403,0.496 L83.648,0.496 L83.648,9.856 Z"/>
		</g>
	</g>
	<g transform="translate(480, 0)">
<use href="#phrase1" opacity="0.5"/>
<text x="90" y="140">半透明（正）</text>
	</g>
</svg>