<svg
	xmlns="http://www.w3.org/2000/svg"
	xmlns:xlink="http://www.w3.org/1999/xlink"
	viewBox="-1 -1 702 402"
	width="702" height="402"
	font-family="sans-serif"
	font-size="16"
	shape-rendering="crispEdges"
>
<defs>

<path
	id="head1"
	fill="orange"
	stroke="none"
	d="M0,0 l7,10 h-14 z"
/>

</defs>

<rect
	width="700" height="400"
	fill="#f8f8f8"
	stroke="silver"
	stroke-width="3"
/>

<path
	transform="translate(60, 0)"
	stroke="black"
	stroke-width="1" stroke-dasharray="5 3"
	d="
M  0,0 v400
M145,0 v400
M290,0 v400
M435,0 v400
M580,0 v400
M0,  0 h580
M0,100 h580
M0,200 h580
M0,300 h580
M0,400 h580
"/>


	<g transform="translate(350, 0)">
<rect
	width="350" height="200"
	fill="transparent"
	stroke="orange"
	stroke-width="2"
/>
<rect
	x="100" y="70"
	height="90" width="220"
	fill="hsl(220, 80%, 90%)"
	stroke="hsl(220, 80%, 65%)"
	stroke-width="3"
/>

<path
	stroke="orange"
	stroke-width="3"
	stroke-dasharray="5 3"
	d="
M210,0 v68
M210,162 v38
M0,115 h98
M322,115 h28
" />

<use xlink:href="#head1" transform="translate(210,0)" />
<use xlink:href="#head1" transform="translate(210,68)rotate(180)" />

<use xlink:href="#head1" transform="translate(210,162)" />
<use xlink:href="#head1" transform="translate(210,200)rotate(180)" />

<use xlink:href="#head1" transform="translate(0,115)rotate(-90)" />
<use xlink:href="#head1" transform="translate(98,115)rotate(90)" />

<use xlink:href="#head1" transform="translate(322,115)rotate(-90)" />
<use xlink:href="#head1" transform="translate(350,115)rotate(90)" />


<text x="10" y="190" fill="orange">包含 block</text>
<text x="210" y="120" text-anchor="middle" fill="hsl(220, 80%, 65%)">abspos — 絶対位置</text>
<text x="50" y="132" text-anchor="middle" fill="orange">offset</text>
	</g>

<text x="10" y="390" fill="gray">格子コンテナ</text>
<text x="70" y="290">格子</text>

</svg>
