<svg
	xmlns="http://www.w3.org/2000/svg"
	width="610" height="320"
	viewBox="0 0 610 320"
>

<style type="text/css"><![CDATA[
:root {
	color-scheme: light dark;
}

text {
	stroke: none;
	fill: CanvasText;
	font-size: 16px;
	font-family: monospace;
}
.length {
}

.grid-line {
	stroke: light-dark( black, white );
	fill: none;
}
#arrow {
	stroke: none;
}
.pointer {
	fill: oklch(0.75 0.22 71)
}
.distance {
	fill: light-dark( black, white );
}
]]></style>


<defs>
<!-- 左向き矢印 -->
<path id="arrow"
	d="m0,0 l12,-4 v3 h28 v2 h-28 v3 z"
/>

</defs>

<!-- 
<rect x="0" y="0" width="610" height="320" />
 -->
	<g transform="translate(405, 80)">

<path
	class="grid-line"
	stroke-width="2"
	stroke-dasharray="10,5"
	stroke-dashoffset="0"
	d="M0,0 h-350
	M0,50 h-350
	M0,170 h-350
	M0,220 h-350
	M-350,0 v220
	M-200,0 v220
	M-0,0 v220
" />
<!-- 右側 -->
		<g text-anchor="start">
			<g transform="translate(0,0)" >
<use href="#arrow" class="pointer" />
<text x="44" y="6">1/first/header-start</text>
			</g>
			<g transform="translate(0,50)" >
<use href="#arrow" class="pointer" />
<text x="44" y="6">2/main-start</text>
			</g>
			<g transform="translate(0,170)" >
<use href="#arrow" class="pointer" />
<text x="44" y="6">3/footer-start</text>
			</g>
			<g transform="translate(0,220)" >
<use href="#arrow" class="pointer" />
<text x="44" y="6">4/last</text>
			</g>

			<g transform="translate(20,0)" >
<use href="#arrow" class="distance" transform="rotate(90)" />
			</g>

			<g transform="translate(20,50)" >
<use href="#arrow" class="distance" transform="rotate(-90)"/>
<use href="#arrow" class="distance" transform="rotate(90)" />
			</g>

			<g transform="translate(20,170)" >
<use href="#arrow" class="distance" transform="rotate(-90)"/>
<use href="#arrow" class="distance" transform="rotate(90)" />
<use href="#arrow" class="distance" transform="translate(0,50)rotate(-90)"/>
			</g>

			<g class="length">
<text x="30" y="31">50px</text>
<text x="10" y="120">1fr</text>
<text x="30" y="201">50px</text>
			</g>

		</g>

<!-- 上側 -->

		<g text-anchor="middle">
			<g transform="translate(-350,0)" >
<use href="#arrow" class="distance" transform="translate(0,-20)scale(1)"/>
<use href="#arrow" class="pointer" transform="rotate(-90)"/>
<text x="20" y="-44">1/first/nav-start</text>
			</g>

			<g transform="translate(-200,0)" >
<use href="#arrow" class="distance" transform="translate(0,-20)scale(1)"/>
<use href="#arrow" class="distance" transform="translate(0,-20)scale(-1)"/>
<use href="#arrow" class="pointer" transform="rotate(-90)"/>
<text x="20" y="-44">2/main-start</text>
			</g>

			<g transform="translate(0,0)" >
<use href="#arrow" class="pointer" transform="rotate(-90)"/>
<use href="#arrow" class="distance" transform="translate(0,-20)scale(-1)"/>
<text x="0" y="-44">3/last</text>
			</g>

			<g class="length" transform="translate(0,-15)">
<text x="-100" >1fr</text>
<text x="-275" >150px</text>
			</g>
		</g>
	</g>
</svg>
