<svg
	xmlns="http://www.w3.org/2000/svg"
	width="480" height="330"
	viewBox="0 0 480 330"
>

<style type="text/css"><![CDATA[
:root {
	color-scheme: light dark;
}

text {
	stroke: none;
	fill: CanvasText;
	font-size: 16px;
	font-family: monospace;
	text-anchor: middle;
}

.item-name {
	font-size: 28px;
}
.length {
}

.grid-line {
	stroke: light-dark( oklch(0.60 0 0), oklch(0.80 0 0) );
	fill: none;
}
#arrow {
	stroke: none;
}

.distance {
	fill: light-dark( black, white );
}

.item-name {
	font-size: 28px;
}
]]></style>


<defs>

<!-- 左向き矢印 -->
<path id="arrow" stroke="none"
	d="m0,0 l12,-4 v3 h28 v2 h-28 v3 z"
/>

	<g id="auto-width">
<use href="#arrow" class="distance" transform="translate(-60,0)rotate(0)" />
<use href="#arrow" class="distance" transform="translate(60,0)rotate(180)" />
<text x="0" y="5">auto</text>
	</g>

	<g id="a-fr">
<use href="#arrow" class="distance" transform="translate(-70,0)rotate(0)" />
<use href="#arrow" class="distance" transform="translate(70,0)rotate(180)" />
<text x="0" y="5">1fr</text>
	</g>

	<g id="item-a">
<text x="0" y="5" class="item-name">a</text>
	</g>

	<g id="item-b">
<text x="0" y="5" class="item-name">b</text>
	</g>

</defs>

<!-- 
<rect x="0" y="0" width="480" height="330" style="fill:white"/>

-->
	<g transform="translate(60, 60)" >

<!-- guide-lins -->
<path
	class="grid-line"
	stroke-width="2"
	stroke-dasharray="10,5" stroke-dashoffset="0"
	d="M0,0 h380
	M0,120 h380
	M0,260 h380
	M0,0 v260
	M120,0 v260
	M260,0 v260
	M380,0 v260
" />

		<g >
<!-- 有名区画 -->
<use href="#item-a" transform="translate(60,60)" />
<use href="#item-a" transform="translate(190,60)" />
<use href="#item-a" transform="translate(320,60)" />
<use href="#item-b" transform="translate(60,190)" />
<use href="#item-b" transform="translate(190,190)" />
<use href="#item-b" transform="translate(320,190)" />

<text x="180" y="16">header-top / a-start</text>
<text x="180" y="114">header-bottom / a-end</text>
<text x="180" y="136">main-top / b-start</text>
<text x="180" y="254">main-bottom / b-end</text>

	<g transform="translate(10, 120)rotate(-90)">
<text x="0" y="5">a-start / b-start</text>
	</g>
	<g transform="translate(370, 120)rotate(-90)">
<text x="0" y="5">b-end / a-end</text>
	</g>

<use href="#auto-width" transform="translate(60,-30)" />
<use href="#a-fr" transform="translate(190,-30)" />
<use href="#auto-width" transform="translate(320,-30)" />

<use href="#auto-width" transform="translate(-30, 60)rotate(-90)" />
<use href="#a-fr" transform="translate(-30, 190)rotate(-90)" />


		</g>
	</g>
</svg>
