<svg
	xmlns="http://www.w3.org/2000/svg"
	width="600" height="300"
	viewbox="0 0 600 300"
>
<style type="text/css">
:root {
	color-scheme: light dark;
	--K-color: light-dark( black, white );
	--R-color: light-dark( oklch(0.5 0.22 29), oklch(0.87 0.22 29) );
	--B-color: light-dark( oklch(0.5 0.22 264), oklch(0.87 0.22 264) );
	--B-bg: light-dark( oklch(0.96 0.09 264), oklch(0.36 0.09 264) );
}
text {
	font-size: 20px;
	font-family: monospace;
	text-anchor: middle;
	fill: CanvasText;
	stroke: none;
}

#legend > text {
	text-anchor: start;
}

path {
	fill: none;
	stroke-width: 2;
	stroke-dasharray: 8 5;
}

path.implicit {
	stroke: var(--R-color);
}
text.implicit {
	fill: var(--R-color);
}

path.explicit {
	stroke: var(--K-color);
}
text.explicit {
	fill: var(--K-color);
}

#item > rect {
	fill: var(--B-bg);
	stroke: var(--B-color);
	fill-opacity: 0.8;
	stroke-width: 2;
}
#item > text {
	fill: var(--B-color);
}
</style>

<!-- 
<rect x="0" y="0" width="800" height="600" fill="#FFF" />
 -->

	<g id="legend" transform="translate(30, 50)">
<text x="0" y="0">罫番号</text>
<text x="0" y="30">番号(負)</text>
<text x="0" y="60">罫名</text>
	</g>

	<g transform="translate(180, 0)">

<text class="explicit" x="100" y="50">1</text>
<text class="explicit" x="200" y="50">2</text>

<text class="implicit" x="300" y="50">3</text>
<text class="implicit" x="400" y="50">4</text>
<text class="implicit" x="0" y="110">[foo]</text>
<text class="implicit" x="0" y="0">-3</text>

<text class="explicit" x="100" y="80">-2</text>
<text class="explicit" x="200" y="80">-1</text>

		<g id="grid" transform="translate(0, 130)">
<path
	class="implicit"
	d="
M  0,  0 v100
M300,  0 v100
M400,  0 v100
M  0,  0 h100
M200,  0 h200
M  0,100 h100
M200,100 h200
" />
<path
	class="explicit"
	d="M100,0 v100 h100 v-100 z" />

			<g id="item">
<rect x="5" y="5" rx="10" ry="10" width="390" height="90" />
<text x="200" y="50">grid-column: span foo / 4;</text>
			</g>
		</g>
	</g>
</svg>
