<svg
	xmlns="http://www.w3.org/2000/svg"
	width="330" height="490"
>
	<g transform="translate(5,5)">
<rect width="320" height="480" fill="white" stroke="gray" />

<path stroke="gray" stroke-width="1" stroke-dasharray="4,4"
	d="
	M0,40 h320
	M0,80 h320
	M0,120 h320
	M0,160 h320
	M0,200 h320
	M0,240 h320
	M0,280 h320
	M0,320 h320
	M0,360 h320
	M0,400 h320
	M0,440 h320
	M40,0 v480
	M80,0 v480
	M120,0 v480
	M160,0 v480
	M200,0 v480
	M240,0 v480
	M280,0 v480
"/>

<rect x="120" y="40" width="80" height="80" fill="#C00000" stroke="black" />
<rect x="80" y="160" width="40" height="40" fill="#4472C4" stroke="black" />
<rect x="140" y="400" width="40" height="40" fill="#4472C4" stroke="black" />

		<g fill="white" stroke="none" text-anchor="middle" dominant-baseline="central" font-size="24">

<text x="160" y="80">A</text>
<text x="100" y="180">B</text>
<text x="160" y="420">C</text>
		</g>
	</g>
</svg>
