<svg
	version="1.1"
	xmlns="http://www.w3.org/2000/svg"
	xmlns:xlink="http://www.w3.org/1999/xlink"
	viewBox="0 0 333 295"
	fill="white" stroke="black"
>
<defs>

<path
	id="head"
	stroke="none" fill="black"
	d="M0,0 c-3,1 -6,3 -9,5 l2,-5 -2,-5 c3,2 6,4 9,5"
/>

	<g id="h-arrow">
<path
	fill="none" stroke="black"
	d="M8.8, 12 h66.3"
/>
<use xlink:href="#head" transform="translate(81,12)" />
	</g>

	<g id="v-arrow">
<path
	fill="none" stroke="black"
	d="M9,8.5 v41.5"
/>
<use xlink:href="#head" transform="translate(9,56)rotate(90)" />
	</g>

	<g id="v-arrow6">
<use xlink:href="#v-arrow" transform="translate(0, 0)" />
<use xlink:href="#v-arrow" transform="translate(15, 0)" />
<use xlink:href="#v-arrow" transform="translate(30, 0)" />
<use xlink:href="#v-arrow" transform="translate(45, 0)" />
<use xlink:href="#v-arrow" transform="translate(60, 0)" />
<use xlink:href="#v-arrow" transform="translate(75, 0)" />
	</g>

	<g id="h-arrow3">
<use xlink:href="#h-arrow" transform="" />
<use xlink:href="#h-arrow" transform="translate(0, 15)" />
<use xlink:href="#h-arrow" transform="translate(0, 30)" />
	</g>
</defs>

<rect x="220.5" y="0.5" width="112" height="294"/>

	<g transform="translate(230, 10)" >
<rect x="0" y="0" width="92" height="54"/>
<use xlink:href="#h-arrow3" />
	</g>

	<g transform="translate(230, 78)" >
<rect x="0" y="0" width="92" height="122"/>
<use xlink:href="#v-arrow6" transform="translate(0, 0)" />
<use xlink:href="#v-arrow6" transform="translate(0, 60)" />
	</g>


	<g transform="translate(230, 214)" >
<rect x="0" y="0" width="92" height="69"/>
<use xlink:href="#h-arrow3" />
<use xlink:href="#h-arrow" transform="translate(0, 45)" />
	</g>

<rect x="0.5" y="0.5" width="112" height="294"/>


	<g transform="translate(10, 10)" >
<rect x="0" y="0" width="92" height="54"/>
<use xlink:href="#h-arrow3" />
	</g>

	<g transform="translate(10, 153)" >
<rect x="0" y="0" width="92" height="130.8"/>
<use xlink:href="#h-arrow3" />
<use xlink:href="#h-arrow3" transform="translate(0, 45)" />
<use xlink:href="#h-arrow" transform="translate(0, 90)" />
<use xlink:href="#h-arrow" transform="translate(0, 105)" />
	</g>


	<g transform="translate(10, 78)" >
<rect x="0" y="0" width="184" height="64"/>
<use xlink:href="#v-arrow6" transform="translate(0, 0)" />
<use xlink:href="#v-arrow6" transform="translate(90, 0)" />
	</g>


</svg>
