<svg
	version="1.1"
	xmlns="http://www.w3.org/2000/svg"
	xmlns:xlink="http://www.w3.org/1999/xlink"
	viewBox="0 0 191 297"
>

<defs>

	<g id="frame">
<rect
	x="1" y="1"
	width="296" height="190"
	fill="white"
	stroke-dasharray="5,2"
/>

<rect
	x="260" y="0"
	width="40" height="192"
	fill="white"
	stroke="none"
/>
	</g>

	<g id="box1">
<rect
	x="0" y="0"
	width="60" height="156"
	stroke-dasharray="5,2"
/>
<path
	transform="translate(3,3)"
	stroke-width="2"
	stroke="gray"
	d="
M0,0 v132
M6,0 v138
M12,0 v132
M18,0 v132
M24,0 v143
M30,0 v139
M36,0 v120
M42,0 v132
M48,0 v126
M54,0 v70
"/>
	</g>

	<g id="box2">
<rect
	x="0" y="0"
	width="90" height="50"
/>
<path
	d="m0,0 l90,50 m0,-50 l-90,50"
	stroke="gray"
/>
	</g>

	<g id="box3">
<rect
	x="0" y="0"
	width="30" height="156"
	stroke-dasharray="5,2"
/>
<path
	transform="translate(3,3)"
	stroke-width="2"
	stroke="gray"
	d="
M0,0 v132
M6,0 v138
M12,0 v132
M18,0 v140
M24,0 v90
"/>
	</g>

<path
	id="flow-dir"
	fill="black" stroke="none"
	d="M0,0 h40 v-3 l 10,5 -10,5 v-3 h-40 z"
/>

</defs>

<g
	transform="rotate(-90)scale(-1,1)"
	stroke="black"
	stroke-width="1"
	fill="none"
>
	<use xlink:href="#frame" transform="" />
	<use xlink:href="#box1" transform="translate(18,18)" />
	<use xlink:href="#box2" transform="translate(144,18)rotate(90)" />
	<use xlink:href="#box3" transform="translate(162,18)" />
	<use xlink:href="#flow-dir" transform="translate(200,90)" />
</g>

	<g stroke="none" font-size="24" text-anchor="middle">
<text
	fill="white"
	x="90,65,90"
	y="55,128,186"
>●●●</text>
<text
	fill="black"
	x="90,65,90"
	y="55,128,186"
>❶❷❸</text>
	</g>
</svg>
