<svg 
	version="1.1"
	xmlns="http://www.w3.org/2000/svg"
	xmlns:xlink="http://www.w3.org/1999/xlink"
	viewBox="0 0 160 300"
	font-size="12"
>

<defs>

<path
	id="head"
	stroke="none" fill="black"
	d="M0,0 c-3,1 -6,3 -9,5 l2,-5 -2,-5 c3,2 6,4 9,5"
/>

	<g id="arrow-h">
<path d="M13,12 h102"/>
<use xlink:href="#head" transform="translate(121,12)" />
	</g>

	<g id="arrow-v">
<path d="M110, 115 v42"/>
<use xlink:href="#head" transform="translate(109.9,162.8)rotate(90)" />
	</g>


</defs>

	<g fill="none" stroke="black">

<rect x="3" y="3" fill="white" width="154" height="294"/>

		<g id="h-box" transform="translate(10, 10)">
<rect x="0" y="0" fill="none" width="140" height="56"/>
<use xlink:href="#arrow-h" transform="translate(0, 0)" />
<use xlink:href="#arrow-h" transform="translate(0, 15)" />
<use xlink:href="#arrow-h" transform="translate(0, 30)" />
		</g>

<use xlink:href="#h-box" transform="translate(0,217)" />


<rect x="40" y="107" fill="none" width="78" height="64"/>
<use xlink:href="#arrow-v" transform="translate(0, 0)" />
<use xlink:href="#arrow-v" transform="translate(-15, 0)" />
<use xlink:href="#arrow-v" transform="translate(-30, 0)" />
<use xlink:href="#arrow-v" transform="translate(-45, 0)" />
<use xlink:href="#arrow-v" transform="translate(-60, 0)" />

	</g>



	<g id="label-auto" transform="translate(12, 128)" >
<path  fill="none" stroke="#F7941D" d="
M0,0 h28
M0,0 l4,-4
M0,0 l4,4
M28,0 l-4,4
M28,0 l-4,-4
" />
<text y="-5.5" fill="#F7941D">auto</text>
	</g>

	<use xlink:href="#label-auto" transform="translate(108,0)" />

	<g transform="translate(45, 66)">
<path fill="none" stroke="#F7941D" d="
M0,0 v40
M0,0 l4,4
M0,0 l-4,4
M0,40 l4,-4
M0,40 l-4,-4
" />
<text transform="translate(3, 20)" fill="#F7941D">マージン相殺</text>
	</g>

	<g transform="translate(45.2,172.5)" >
<path fill="none" stroke="#F7941D" d="
M0,0 v54
M0,0 l4,4
M0,0 l-4,4
M0,54 l4,-4
M0,54 l-4,-4
" />
<text transform="translate(3, 46)"
stroke="none" fill="#F7941D">マージン相殺</text>
	</g>


	<g transform="translate(41.3,179.3)" >
<path  fill="none" stroke="#00AEEF" d="
M0,0 h76
M0,0 l4,-4
M0,0 l4,4
M76,0 l-4,4
M76,0 l-4,-4
" />

<text transform="translate(-4, 15)" fill="#00AEEF">ブロックサイズ</text>
	</g>


	<g transform="translate(124, 107)" >
<path fill="none" stroke="#00AEEF" d="
M0,0 v65
M0,0 l4,4
M0,0 l-4,4
M0,65 l4,-4
M0,65 l-4,-4
" />
<text transform="translate(6, 27)rotate(90)" fill="#00AEEF">行内サイズ</text>
	</g>

</svg>
