<?xml version="1.0" encoding="UTF-8" standalone="no"?>
<!-- Created with Inkscape (http://www.inkscape.org/) -->

<svg
   xmlns:svg="http://www.w3.org/2000/svg"
   xmlns="http://www.w3.org/2000/svg"
   xmlns:xlink="http://www.w3.org/1999/xlink"
   version="1.1"
   width="440"
   height="300"
>

<style type="text/css"><![CDATA[

text, tspan {
	font-style:normal;
	font-variant:normal;
	font-weight:normal;
	font-stretch:normal;
	text-align:center;
	letter-spacing:0px;
	word-spacing:0px;
	text-anchor:middle;
	fill-opacity:1;
	stroke:none;
}

rect, path {
	fill-opacity:1;
	stroke-width:1px;
	stroke-opacity:1;
	stroke-miterlimit:4;
	stroke-linejoin:miter;
	stroke-linecap:butt;
}


]]></style>

  <defs>
    <linearGradient
       id="gr-RTL"
       gradientUnits="userSpaceOnUse"
       x1="0"
       y1="0"
       x2="0"
       y2="-100">
      <stop offset="0" stop-color="white" />
      <stop offset="1" stop-color="#EA8A2F" />
    </linearGradient>
    <linearGradient
       id="gr-rl"
       gradientUnits="userSpaceOnUse"
       x1="300"
       y1="0"
       x2="0"
       y2="0">
      <stop offset="0" stop-color="white" />
      <stop offset="1" stop-color="#15A739" />
    </linearGradient>

<rect id="cell1"
	style="fill:none;stroke:#000080;"
	width="45"
	height="45"
/>

<rect id="cell0"
       style="fill:none;stroke:#000080;"
       width="45"
       height="30"
/>

<path
	id="line0"
style="fill:none;stroke:#000000;stroke-width:1.5px;"
d="m 0,0 -420,0"
/>

<rect
	id="line1"
	style="fill:#999999;stroke:none"
	width="15"
	height="210"
/>


<path
	id="margin1"
	style="stroke:none"
d="m 0,0 -4.5,7.5 6,0 0,22.5 -6,0 4.5,7.5 4.5,-7.5 -6,0 0,-22.5 6,0 z"
/>

</defs>



<g style="font-size:15px;"
     transform="translate(70.125,-5.3125)">

<use xlink:href="#line0" transform="translate(360,16)" />
<use xlink:href="#line0" transform="translate(360,256)" />
<use xlink:href="#line1" transform="translate(345, 31)" />
<use xlink:href="#line1" transform="translate(315, 31)" />
<use xlink:href="#line1" transform="translate(-60, 31)" />
<rect
       style="fill:#999999;stroke:none"
       width="15.123966"
       height="195.21698"
       transform="translate(-30, 30.94958)" />



<!-- RTL -->
<path
	transform="translate(275,199)" 
	style="fill:url(#gr-RTL);stroke:#f3c35c;"
	d="m 0,0 v-99 h4 l-6,-37 l-6,37 h4 v99 h4 z"
 />


<g transform="translate(210, 60)rotate(90)">

    <rect
       style="fill:none;stroke:#000080;stroke-width:1.5px;"
       width="165"
       height="255"
       transform="translate(-7, -47)" />

	<text style="font-weight:bold;fill:#ea8a2f;"
       x="70"
       y="-70"
       >RTL</text>


	<g transform="translate(0, -40)" >
		<use xlink:href="#cell0" />
		<text x="22" y="20">列 3</text>
	</g>
	<g transform="translate(53, -40)" >
		<use xlink:href="#cell0" />
		<text x="22" y="20">列 2</text>
	</g>
	<g transform="translate(106, -40)" >
		<use xlink:href="#cell0" />
		<text x="22" y="20">列 1</text>
	</g>

	<g style="font-size:18px;">

		<g transform="translate(0, 0)" >
			<use xlink:href="#cell1" />
			<text x="22" y="27">1.3</text>
		</g>
		<g transform="translate(53, 0)" >
			<use xlink:href="#cell1" />
			<text x="22" y="27">1.2</text>
		</g>
		<g transform="translate(106, 0)" >
			<use xlink:href="#cell1" />
			<text x="22" y="27">1.1</text>
		</g>
	
		<g transform="translate(0, 52)" >
			<use xlink:href="#cell1" />
			<text x="22" y="27">2.3</text>
		</g>
		<g transform="translate(53, 52)" >
			<use xlink:href="#cell1" />
			<text x="22" y="27">2.2</text>
		</g>
		<g transform="translate(106, 52)" >
			<use xlink:href="#cell1" />
			<text x="22" y="27">2.1</text>
		</g>
	
		<g transform="translate(0, 104)" >
			<use xlink:href="#cell1" />
			<text x="22" y="27">3.3</text>
		</g>
		<g transform="translate(53, 104)" >
			<use xlink:href="#cell1" />
			<text x="22" y="27">3.2</text>
		</g>
		<g transform="translate(106, 104)" >
			<use xlink:href="#cell1" />
			<text x="22" y="27">3.1</text>
		</g>
	
		<g transform="translate(0, 156)" >
			<use xlink:href="#cell1" />
			<text x="22" y="27">4.3</text>
		</g>
		<g transform="translate(53, 156)" >
			<use xlink:href="#cell1" />
			<text x="22" y="27">4.2</text>
		</g>
		<g transform="translate(106, 156)" >
			<use xlink:href="#cell1" />
			<text x="22" y="27">4.1</text>
		</g>
	</g>
</g>


<g style="fill:#008080;">

	<use xlink:href="#margin1" transform="translate(148,16)" />
	<text x="144" y="38.66656" style="text-anchor:end;">自動マージン</text>
	<use xlink:href="#margin1" transform="translate(148,219)" />
	<text x="144" y="241.5385" style="text-anchor:end;">自動マージン</text>
	<use xlink:href="#margin1" transform="translate(-22.5,226)scale(0.45)" />
	<text x="7.5" y="241">字下げ</text>

</g>



<g>
	<path
       style="fill:url(#gr-rl);stroke:#b2d9aa;"
       d="m345,272 -223,0 0,-8 -167,15 167,15 0,-8 223,0 z"
/>
	<text
       style="font-size:18px;font-weight:bold;fill:#15a739;"
       x="295.5"
       y="284"
       >vertical-rl</text>
</g>


<g>
	<text
       style="font-size:13.5px;fill:#0000ff"
       x="285.5"
       y="227"
       ><tspan
         x="285.5"
         y="234">マージン</tspan><tspan
         x="285"
         y="250">相殺</tspan></text>

    <path
       style="fill:#0000ff;stroke:none"
       d="m 257,215 0,3 52,0.5 0,3 6,-4.5 -6,-4.5 0,3 z"
     />
    <path
       style="fill:#4d4d4d;stroke:none"
       d="m 315,205 0,3 -9,0 0,3 -6,-4.5 6,-4.5 0,3 z"
     />

</g>



</g>
</svg>
