<svg
	xmlns="http://www.w3.org/2000/svg"
	version="1.1"
	viewBox="0 0 36 80"
	fill="black"
	stroke ="none"
>
<path
	d="m 9.5,36.1 q -3.28125,-1.60157 -5.03907,-4.45313 -1.75781,-2.89062 -1.75781,-6.36719 0,-5.3125 3.98438,-9.14062 4.02343,-3.82813 10.27343,-3.82813 5.11719,0 8.86719,2.5 l 7.57813,0 q 1.67968,0 1.95312,0.11719 0.27344,0.0781 0.39063,0.3125 0.23437,0.35156 0.23437,1.25 0,1.01563 -0.19531,1.40625 -0.11719,0.19531 -0.42969,0.3125 -0.27344,0.11719 -1.95312,0.11719 l -4.64844,0 q 2.1875,2.8125 2.1875,7.1875 0,5 -3.82813,8.55469 -3.82812,3.55468 -10.27343,3.55468 -2.65625,0 -5.42969,-0.78125 -1.71875,1.48438 -2.34375,2.61719 -0.58594,1.09375 -0.58594,1.875 0,0.66406 0.625,1.28906 0.66406,0.625 2.53906,0.89844 1.09375,0.15625 5.46875,0.27344 8.04688,0.19531 10.42969,0.54687 3.63281,0.50782 5.78125,2.69532 2.1875,2.1875 2.1875,5.39062 0,4.41406 -4.14062,8.28125 -6.09375,5.70313 -15.89844,5.70313 -7.53906,0 -12.73438,-3.39844 -2.92968,-1.95313 -2.92968,-4.0625 0,-0.9375 0.42968,-1.875 0.66407,-1.44531 2.73438,-4.02344 0.27344,-0.35156 3.98437,-4.21875 -2.03125,-1.21094 -2.89062,-2.14844 -0.82031,-0.97656 -0.82031,-2.1875 0,-1.36718 1.09375,-3.20312 1.13281,-1.83594 5.15625,-5.19531 z m 6.79687,-21.91407 q -2.89062,0 -4.84375,2.30469 -1.95312,2.30469 -1.95312,7.07031 0,6.17188 2.65625,9.57032 2.03125,2.57812 5.15625,2.57812 2.96875,0 4.88281,-2.22656 1.91406,-2.22656 1.91406,-6.99219 0,-6.21094 -2.69531,-9.72656 -1.99219,-2.57813 -5.11719,-2.57813 z m -7.1875,34.96094 q -1.83594,1.99219 -2.77344,3.71094 -0.9375,1.71875 -0.9375,3.16406 0,1.875 2.26563,3.28125 3.90625,2.42188 11.28906,2.42188 7.03125,0 10.35156,-2.5 3.35938,-2.46094 3.35938,-5.27344 0,-2.03125 -1.99219,-2.89063 -2.03125,-0.85937 -8.04687,-1.01562 -8.78907,-0.23438 -13.51563,-0.89844 z"
/>

<circle cx="18" cy="4" r="3" />
<path d="m18,79 l-4,-8 h3.5 v-65 h1 v65 h3.5 z" />
</svg>
