<svg
   version="1.1"
   xmlns="http://www.w3.org/2000/svg"
   viewBox="0 0 460 355"
   width="460"
   height="355"
>

<style type="text/css"><![CDATA[
text {
	stroke: none;
	font-size:6.25px;
	font-family: sans-serif;
}

.XYZ > text {
	font-size:8.75px;
}

marker {
	overflow: visible;
}

]]></style>


<defs>


<path
	id="arr0"
	style="stroke:none;"
	d="M 8.7185878,4.0337352 -2.2072895,0.01601326 8.7185884,-4.0017078 c -1.7454984,2.3720609 -1.7354408,5.6174519 -6e-7,8.035443 z"
/>


    <marker refX="0" refY="0" orient="auto" id="marker4951">
<use href="#arr0" style="fill:#007c4b;" transform="scale(-1)" />
    </marker>
    <marker refX="0" refY="0" orient="auto" id="marker4893">
<use href="#arr0" style="fill:#f90000;" />
    </marker>
    <marker refX="0" refY="0" orient="auto" id="marker4795">
<use href="#arr0" style="fill:#005ad1;" />
    </marker>
    <marker refX="0" refY="0" orient="auto" id="Arrow2Lend">
<use href="#arr0" style="fill:#f90000;" transform="scale(-1)" />
    </marker>
    <marker refX="0" refY="0" orient="auto" id="marker20728-5">
<use href="#arr0" style="fill:#005ad1;" transform="scale(-1)" />
    </marker>
    <marker refX="0" refY="0" orient="auto" id="marker20728-7">
<use href="#arr0" style="fill:#007c4b;" transform="scale(-1)" />
    </marker>


<path
	id="rot0"
	style="fill:none;stroke-width:0.3;"
	d="m 307.58322,198.44195 c -5.66381,0 -11.60804,-3.00344 -11.60804,-6.70837 -1e-5,-3.70493 6.82648,-6.70838 15.24738,-6.70838 8.4209,0 15.24739,3.00345 15.24738,6.70838 0,3.70493 -6.27508,6.70837 -12.0216,6.70837" />


  </defs>
  <g transform="translate(-82.538982,-84.062958)">
    <g transform="matrix(2,0,0,2,-308.32854,-261.54995)">
      <g transform="translate(-207.74352,64.706998)">
        <g transform="matrix(0.71685087,-0.85797651,1.0871479,0.61693884,125.98012,340.97755)">
<rect
	ry="0"
	rx="0"
	y="120.18959"
	x="255.62721"
	height="111.30784"
	width="62.176273"
	style="fill:none;stroke:#527a8a;stroke-width:0.500422;" />
<rect
	ry="0.30751663"
	rx="0.59698194"
	y="111.01105"
	x="280.30835"
	height="1.3647598"
	width="12.390146"
	style="fill:#7c7c7c;stroke:#527a8a;stroke-width:1.29999995;" />
<ellipse
	ry="0.67888415"
	rx="0.65928698"
	cy="111.68958"
	cx="276.12726"
	style="fill:#7c7c7c;stroke:#527a8a;stroke-width:0.8458696;" />
<circle
	r="5.9873753"
	cy="242.64957"
	cx="286.85172"
	style="fill:none;stroke:#527a8a;stroke-width:0.5252493;" />
        </g>
        <g transform="matrix(0.99996503,0.00836295,-0.00836295,0.99996503,1.7409496,-4.3618807)">
<rect
	style="fill:none;stroke:#527a8a;stroke-width:0.98025495;"
	width="154.73648"
	height="73.391212"
	x="98.080772"
	y="-323.65686"
	ry="8.955183"
	rx="8.3865185"
	transform="matrix(1.0871479,0.61693884,-0.71685087,0.85797651,125.98012,340.97755)" />
<path
	style="fill:none;stroke:#527a8a;stroke-width:1px;"
	d="m 416.33875,184.50366 c -0.0216,3.56435 -0.11581,6.40662 0.093,8.32253 0.35557,3.2631 4.71157,5.29665 4.71157,5.29665 44.84186,25.42601 89.38581,49.72276 131.69766,73.65829 5.98116,2.97629 18.77816,11.39005 23.71706,12.56336 4.55338,1.08172 9.13042,-1.20431 12.10014,-4.55722 14.49184,-16.49642 29.85325,-35.64055 38.03219,-44.54456 2.88605,-3.2682 1.68347,-15.32109 1.68347,-15.32109" />
        </g>
      </g>


<path
	d="M 196.16356,199.22789 420.61346,328.8141"
	style="fill:none;stroke:#005ad1;stroke-width:0.48568973;;marker-start:url(#marker4795)" />

<path
	d="M 266.80209,319.46825 367.34296,198.22779"
	style="fill:none;stroke:#007c4b;stroke-width:0.52626473;;marker-end:url(#marker4951)" />


<path
	d="m 311.21175,338.04074 0,-164.39474"
	style="fill:none;stroke:#f90000;stroke-width:0.5022099;;marker-end:url(#Arrow2Lend)" />

      <g class="XYZ">

<text
	y="179.29083"
	x="315.37598"
	style="fill:#f90000;">Z</text>
<text
	transform="matrix(0.53128979,-0.84719015,0.84719015,0.53128979,0,0)"
	y="276.75504"
	x="-60.002972"
	style="fill:#005ad1;">Y</text>
<text
	transform="matrix(0.77064764,0.6372615,-0.6372615,0.77064764,0,0)"
	y="-75.631241"
	x="413.59238"
	style="fill:#007c4b;">X</text>

      </g>

<use href="#rot0" style="stroke:#f90000;marker-start:url(#marker4893);"/>

<text style="fill:#f90000;"
	x="304.0235"
	y="205.19473">+</text>
<text
	style="fill:#f90000;"
	x="314.02621"
	y="205.10628">-</text>
      <g transform="matrix(0.52565475,-0.85069799,0.85069799,0.52565475,-115.23462,372.51086)">

<use href="#rot0" style="stroke:#005ad1;marker-end:url(#marker20728-5);"/>

<text
	style="fill:#005ad1;"
	x="313.53107"
	y="204.96596">+</text>
<text
	style="fill:#005ad1;"
	x="304.45273"
	y="204.27353">-</text>
      </g>
      <g
         transform="matrix(0.77460925,0.63244015,-0.63244015,0.77460925,236.50722,-132.92023)">

<use href="#rot0" style="stroke:#007c4b;marker-end:url(#marker20728-7)"/>

<text
	style="fill:#007c4b;"
x="313.03098"
y="204.89828">+</text>
<text
	style="fill:#007c4b;"
x="305.33881"
y="205.11867">-</text>
      </g>
    </g>
  </g>
</svg>
