<svg xmlns="http://www.w3.org/2000/svg" viewBox="0 0 820 220">

<style><![CDATA[
.dividers {
	stroke: rgb(106, 148, 0);
	stroke-dasharray: 1, 1;
}

.tag {
	dominant-baseline: central;
	font-family: monospace;
	font-weight: bold;
	font-size: 13px;
}

.label {
	dominant-baseline: central;
	font-family: sans-serif;
	font-size: 13px;
}

.parser {
	stroke: rgb(110, 174, 0);
	fill: rgb(110, 174, 0);
}

.fetch {
	stroke: rgb(0, 53, 255);
	fill: rgb(0, 53, 255);
}

.execution {
	stroke: rgb(255, 0, 0);
	fill: rgb(255, 0, 0);
}

.progress {
	stroke-width: 2;
}

.progress.parser:not(.first) {
	marker-start: url(#parser-marker);
}
.progress.parser:not(.last) {
	marker-end: url(#parser-marker);
}

.progress.fetch:not(.first) {
	marker-start: url(#fetch-marker);
}
.progress.fetch:not(.last) {
	marker-end: url(#fetch-marker);
}

.progress.execution:not(.first) {
	marker-start: url(#execution-marker);
}
.progress.execution:not(.last) {
	marker-end: url(#execution-marker);
}

marker > circle {
	stroke-width: 0;
}

.connector {
	stroke: rgb(206, 206, 206);
	stroke-width: 1;
}

]]></style>


  <defs>
    <marker id="parser-marker" markerWidth="3" markerHeight="3" refX="1.5" refY="1.5">
      <circle cx="1.5" cy="1.5" r="1.5" class="parser"/>
    </marker>
    <marker id="fetch-marker" markerWidth="3" markerHeight="3" refX="1.5" refY="1.5">
      <circle cx="1.5" cy="1.5" r="1.5" class="fetch"/>
    </marker>
    <marker id="execution-marker" markerWidth="3" markerHeight="3" refX="1.5" refY="1.5">
      <circle cx="1.5" cy="1.5" r="1.5" class="execution"/>
    </marker>
  </defs>

<!-- 
<rect x="0" y="0" width="720" height="220" fill="none" stroke="black"/>
 -->


<g transform="translate(0, 25)">

<path class="dividers" d="
M0, 33.5  h720
M0, 66.5  h720
M0, 99.5  h720
M0,132.5 h720

M245.5   1 v29
M245.5  38 v24
M245.5  71 v24
M245.5 104 v24
M245.5 137 v29
" />

  <g>
<text x="12" y="16.75" class="tag">&lt;script&gt;</text>

    <g transform="translate(152,0)">
<path class="connector"
	d="M257,9 v15" />
<path class="connector"
	d="M404,9 v15" />
<path class="parser progress first"
	d="M106,24 H257" />
<path class="fetch progress"
	d="M257,9 H354" />
<path class="execution progress"
	d="M354,9 H404" />
<path class="parser progress last"
	d="M404,24 H532" />
    </g>
  </g>

  <g transform="translate(0,33)">
<text x="12" y="16.75" class="tag">&lt;script defer&gt;</text>

    <g transform="translate(152,0)">
<path class="connector" d="M484,9 V24" />
<path class="parser progress first" d="M106,24 H484" />
<path class="fetch progress" d="M257,9 H354" />
<path class="execution progress last" d="M484,9 H532" />
    </g>
  </g>

  <g transform="translate(0,66)">
<text x="12" y="16.75" class="tag">&lt;script async&gt;</text>

    <g transform="translate(152,0)">
<path class="connector"
	d="M354,9 v15" />
<path class="connector"
	d="M404,9 v15" />
<path class="parser progress first"
	d="M106,24 H354" />
<path class="fetch progress"
	d="M257,9 H354" />
<path class="execution progress"
	d="M354,9 H404" />
<path class="parser progress last"
	d="M404,24 H532" />
    </g>
  </g>

  <g transform="translate(0,99)">
<text x="12" y="16.75" class="tag">&lt;script type="module"&gt;</text>

    <g transform="translate(152,0)">
<path class="connector"
	d="M484,9 v15" />
<path class="parser progress first"
	d="M106,24 H484" />
<path class="fetch progress"
	d="M257,9 H354" />
<path class="fetch progress"
	d="M354,9 H374" />
<path class="fetch progress"
	d="M354,9 l20,7.5" />
<path class="fetch progress"
	d="M374,16.5 h20" />
<path class="fetch progress"
	d="M394,16.5 h20" />
<path class="fetch progress"
	d="M394,16.5 l20,-7.5" />
<path class="execution progress last"
	d="M484,9 H532" />
    </g>
  </g>

  <g transform="translate(0,132)">
<text x="12" y="16.75" class="tag">&lt;script type="module" async&gt;</text>

    <g transform="translate(152,0)">
<path class="connector"
	d="M414,9 v15" />
<path class="connector"
	d="M464,9 v15" />
<path class="parser progress first"
	d="M106,24 H414" />
<path class="fetch progress"
	d="M257,9 H354" />
<path class="fetch progress"
	d="M354,9 h20" />
<path class="fetch progress"
	d="M354,9 l20,7.5" />
<path class="fetch progress"
	d="M374,16.5 h20" />
<path class="fetch progress"
	d="M394,16.5 h20" />
<path class="fetch progress"
	d="M394,16.5 l20,-7.5" />
<path class="execution progress"
	d="M414,9 H464" />
<path class="parser progress last"
	d="M464,24 H532" />
    </g>
  </g>

  <g class="legend" transform="translate(257.5, -20)">
<text x="0" y="10" class="label">（各行の上段はスクリプト処理，下段は HTML 構文解析）</text>
  </g>


  <g class="legend" transform="translate(257.5,178)">
<circle cx="3" cy="3" r="3" class="parser"/>
<text x="9" y="3" class="label">構文解析器</text>

<circle cx="84" cy="3" r="3" class="fetch"/>
<text x="90" y="3" class="label">fetch</text>

<circle cx="135" cy="3" r="3" class="execution"/>
<text x="141" y="3" class="label">実行</text>

<text x="425" y="3" text-anchor="end" class="label">時間進行 →</text>

  </g>

</g>

</svg>
