<svg
	xmlns="http://www.w3.org/2000/svg"
	viewBox="0 0 340 300"
	width="340" height="300"
>
<defs>

<marker id="Triangle" viewBox="0 0 10 10" refX="1" refY="5" markerWidth="4" markerHeight="4" orient="auto">
<path d="M 0 0 L 10 5 L 0 10 z" fill="red" />
</marker>

</defs>

	<g transform="translate(0,0)">
<rect x="55" y="65" width="200" height="220" stroke="black" stroke-width="2" fill="lightblue"/>
<text text-anchor="end" x="38" y="71">0</text>
<path
	stroke="green" stroke-width="2"
	d="
M40,65 h15
M40,85 h15
M40,105 h15
M40,125 h15
M40,145 h15
M40,165 h15
M40,185 h15
M40,205 h15
M40,225 h15
M40,245 h15
M40,265 h15
M40,285 h15
M55,50 v15
M75,50 v15
M95,50 v15
M115,50 v15
M135,50 v15
M155,50 v15
M175,50 v15
M195,50 v15
M215,50 v15
M235,50 v15
M255,50 v15
" />

<text text-anchor="end" x="38" y="291">11</text>
<text text-anchor="middle" x="55" y="48">0</text>
<text text-anchor="middle" x="255" y="48">10</text>
<text text-anchor="end" x="52" y="161" fill="red">left</text>
<text text-anchor="end" x="52" y="181" fill="red">right</text>
<text transform="rotate(-90) translate(-63,169)" fill="red">top</text>
<text transform="rotate(-90) translate(-63,191)" fill="red">bottom</text>

<rect x="75" y="85" width="200" height="160" stroke="black" fill="yellow" stroke-width="2" stroke-dasharray="3 3" opacity="0.5"/>
<line x1="55" y1="155" x2="65" y2="155" style="stroke:red; stroke-width:3" marker-end="url(#Triangle)"/>
<line x1="55" y1="175" x2="265" y2="175" style="stroke:red; stroke-width:3" marker-end="url(#Triangle)"/>
<line x1="165" y1="65" x2="165" y2="75" style="stroke:red; stroke-width:3" marker-end="url(#Triangle)"/>
<line x1="185" y1="65" x2="185" y2="235" style="stroke:red; stroke-width:3" marker-end="url(#Triangle)"/>

<text text-anchor="middle" transform="translate(165,105)" fill="red">1em</text>
<text text-anchor="middle" transform="translate(185,265)" fill="red">9em</text>
<text transform="translate(80,160)" fill="red">1em</text>
<text transform="translate(280,180)" fill="red">11em</text>
<text text-anchor="start" x="80" y="236">切り抜き領域</text>

	</g>
</svg>
