<svg
	xmlns="http://www.w3.org/2000/svg"
	viewBox="0 0 340 300"
	width="340" height="300"
>
<style><![CDATA[
:root {
	color-scheme: light dark;
	background: Canvas;
	--Y-bg: light-dark( oklch(0.96 0.09 109), oklch(0.36 0.09 109) );
	--B-bg: light-dark( oklch(0.96 0.09 264), oklch(0.36 0.09 264) );
	--R-color: light-dark( oklch(0.5 0.22 29), oklch(0.87 0.22 29) );
}
text {
	fill: CanvasText;
}
.arrows > text {
	fill: var(--R-color);
}
.arrows > line,
.arrows > path {
	stroke: var(--R-color);
	stroke-width: 3;
}
#arrowhead {
	fill: var(--R-color);
}

]]></style>

<defs>

<marker id="arrowhead" viewBox="0 0 10 10" refX="1" refY="5" markerWidth="4" markerHeight="4" orient="auto">
<path d="M 0 0 L 10 5 L 0 10 z" />
</marker>

</defs>

<rect width="340" height="300" style="fill: Canvas" />

	<g transform="translate(0,0)">
<rect x="55" y="65" width="200" height="220" stroke="CanvasText" stroke-width="2" fill="var(--B-bg)"/>
<text text-anchor="end" x="38" y="71">0</text>
<path
	stroke="CanvasText" stroke-width="2"
	d="
M40,65 h15
M40,85 h15
M40,105 h15
M40,125 h15
M40,145 h15
M40,165 h15
M40,185 h15
M40,205 h15
M40,225 h15
M40,245 h15
M40,265 h15
M40,285 h15
M55,50 v15
M75,50 v15
M95,50 v15
M115,50 v15
M135,50 v15
M155,50 v15
M175,50 v15
M195,50 v15
M215,50 v15
M235,50 v15
M255,50 v15
" />
<text text-anchor="end" x="38" y="291">11</text>
<text text-anchor="middle" x="55" y="48">0</text>
<text text-anchor="middle" x="255" y="48">10</text>

<rect x="75" y="85" width="200" height="160" stroke="CanvasText" fill="var(--Y-bg)" stroke-width="2" stroke-dasharray="3 3" opacity="0.5"/>
<text text-anchor="start" x="80" y="236">切り抜き領域</text>

		<g class="arrows">
<path d="M55,155 h10" marker-end="url(#arrowhead)"/>
<path d="M55,175 h210" marker-end="url(#arrowhead)"/>
<path d="M165,65 v10" marker-end="url(#arrowhead)"/>
<path d="M185,65 v170" marker-end="url(#arrowhead)"/>
<text text-anchor="end" x="52" y="161">left</text>
<text text-anchor="end" x="52" y="181">right</text>
<text transform="rotate(-90) translate(-63,169)">top</text>
<text transform="rotate(-90) translate(-63,191)">bottom</text>
<text text-anchor="middle" transform="translate(165,105)">1em</text>
<text text-anchor="middle" transform="translate(185,265)">9em</text>
<text transform="translate(80,160)">1em</text>
<text transform="translate(280,180)">11em</text>
		</g>
	</g>
</svg>
