<?xml version="1.0" encoding="UTF-8" standalone="no"?>
<svg
   xmlns="http://www.w3.org/2000/svg"
   width="485"
   height="343"
   viewBox="0 0 485 343"
   version="1.1"
>

<style type="text/css"><![CDATA[
text {
	stroke: none;
	font-size:8.75px;
	font-family: sans-serif;
}

]]></style>

<defs>
    <marker
       id="marker4951"
       style="overflow:visible"
       orient="auto-start-reverse"
       refX="0"
       refY="0"
      >
      <path
         transform="matrix(-1.1,0,0,-1.1,-1.1,0)"
         d="M 8.7185878,4.0337352 -2.2072895,0.01601326 8.7185884,-4.0017078 c -1.7454984,2.3720609 -1.7354408,5.6174519 -6e-7,8.035443 z"
         style="fill:#007c4b;stroke:none" />
    </marker>
    <marker
       id="marker4841"
       style="overflow:visible"
       orient="auto-start-reverse"
       refX="0"
       refY="0"
      >
      <path
         transform="matrix(-1.1,0,0,-1.1,-1.1,0)"
         d="M 8.7185878,4.0337352 -2.2072895,0.01601326 8.7185884,-4.0017078 c -1.7454984,2.3720609 -1.7354408,5.6174519 -6e-7,8.035443 z"
         style="fill:#005ad1;stroke:none"
          />
    </marker>
    <marker
       id="Arrow2Lend"
       style="overflow:visible"
       orient="auto-start-reverse"
       refX="0"
       refY="0"
      >
      <path
         style="fill:#f90000;stroke:none"
         d="M 8.7185878,4.0337352 -2.2072895,0.01601326 8.7185884,-4.0017078 c -1.7454984,2.3720609 -1.7354408,5.6174519 -6e-7,8.035443 z"
         transform="matrix(-1.1,0,0,-1.1,-1.1,0)" />
    </marker>
  </defs>


  <g transform="translate(-75.426562,-98.797035)">
    <g transform="matrix(2.16,0,0,2.16,-368.94562,-314.01891)">
      <g transform="translate(-207.74352,64.706998)">
        <g transform="matrix(0.71685087,-0.85797651,1.0871479,0.61693884,125.98012,340.97755)">
<rect
	ry="0"
	rx="0"
	y="120.18959"
	x="255.62721"
	height="111.30784"
	width="62.176273"
	style="fill:none;stroke:#527a8a;stroke-width:0.500422;" />
<rect
	ry="0.30751663"
	rx="0.59698194"
	y="111.01105"
	x="280.30835"
	height="1.3647598"
	width="12.390146"
	style="fill:#7c7c7c;stroke:#527a8a;stroke-width:1.29999995;" />
<ellipse
	ry="0.67888415"
	rx="0.65928698"
	cy="111.68958"
	cx="276.12726"
	style="fill:#7c7c7c;stroke:#527a8a;stroke-width:0.8458696;" />
<circle
	r="5.9873753"
	cy="242.64957"
	cx="286.85172"
	style="fill:none;stroke:#527a8a;stroke-width:0.5252493;" />
        </g>
        <g transform="matrix(0.99996503,0.00836295,-0.00836295,0.99996503,1.7409496,-4.3618807)">
<rect
	style="fill:none;stroke:#527a8a;stroke-width:0.98025495;"
	width="154.73648"
	height="73.391212"
	x="98.080772"
	y="-323.65686"
	ry="8.955183"
	rx="8.3865185"
	transform="matrix(1.0871479,0.61693884,-0.71685087,0.85797651,125.98012,340.97755)" />
<path
	style="fill:none;stroke:#527a8a;stroke-width:1px;"
	d="m 416.33875,184.50366 c -0.0216,3.56435 -0.11581,6.40662 0.093,8.32253 0.35557,3.2631 4.71157,5.29665 4.71157,5.29665 44.84186,25.42601 89.38581,49.72276 131.69766,73.65829 5.98116,2.97629 18.77816,11.39005 23.71706,12.56336 4.55338,1.08172 9.13042,-1.20431 12.10014,-4.55722 14.49184,-16.49642 29.85325,-35.64055 38.03219,-44.54456 2.88605,-3.2682 1.68347,-15.32109 1.68347,-15.32109"
	/>
        </g>
      </g>


<path
	d="M 206.45311,205.17741 429.66002,334.04598"
	style="fill:none;stroke:#005ad1;stroke-width:0.48266089;marker-start:url(#marker4841);marker-end:url(#marker4841)" />
<path
	d="M 263.04885,323.98675 358.57194,208.79714"
	style="fill:none;stroke:#007c4b;stroke-width:0.5;marker-start:url(#marker4951);marker-end:url(#marker4951)" />
<path
	d="m 311.21175,346.46277 0,-152.91721"
	style="fill:none;stroke:#f90000;stroke-width:0.48436135;marker-start:url(#Arrow2Lend);marker-end:url(#Arrow2Lend)" />

<text
	y="199.09822"
	x="315.55948"
	style="fill:#f90000;"
>Z</text>
<text
	y="347.24527"
	x="297.24988"
	style="fill:#f90000;"
>−Z</text>
<text
	transform="matrix(0.53128979,-0.84719015,0.84719015,0.53128979,0,0)"
	y="289.1037"
	x="-59.438606"
	style="fill:#005ad1;"
>Y</text>
<text
	transform="matrix(0.53128979,-0.84719015,0.84719015,0.53128979,0,0)"
	y="542.67371"
	x="-69.900497"
	style="fill:#005ad1;"
>−Y</text>
<text
	transform="matrix(0.77064764,0.6372615,-0.6372615,0.77064764,0,0)"
	y="-63.152012"
	x="413.18552"
	style="fill:#007c4b;"
>X</text>
<text
	transform="matrix(0.77064764,0.6372615,-0.6372615,0.77064764,0,0)"
	y="83.552299"
	x="395.97888"
	style="fill:#007c4b;"
>−X</text>
    </g>
  </g>
</svg>
