<svg
	xmlns="http://www.w3.org/2000/svg"
	xmlns:xlink="http://www.w3.org/1999/xlink"
	width="144" height="480"
	viewBox="0 0 144 480"
>

	<defs>

	<g id="stripe0" transform="rotate(15)" >
<rect
	stroke="black"
	fill="none"
	x="0" y="0" width="80" height="112"
/>
	</g>

<path
	id="stripe"
	stroke="gray" stroke-width="5"
	fill="none"
	transform="translate(-37.5,-50)" 
	d="
M0,0 h75
M0,10 h75
M0,20 h75
M0,30 h75
M0,40 h75
M0,50 h75
M0,60 h75
M0,70 h75
M0,80 h75
M0,90 h75
M0,100 h75
"/>

<rect
	id="back"
	stroke="none"
	fill="green"
	x="-37.5" y="-50" width="75" height="100"
/>
<rect
	id="back1"
	stroke="none"
	fill="green"
	x="-37.5" y="-50" width="75" height="50"
/>


<circle
	id="origin"
	stroke="none"
	fill="red"
	r="5"
/>

	</defs>

<rect
	stroke="none"
	fill="#EEE"
	x="0" y="0" width="144" height="480"
/>

	<g transform="translate(72,72)">

<path
	stroke="black" stroke-width="1"
	fill="white"
	d="
M-40,-56 h80 v448 h-80z
m0,112 h80
m0,112 h-80
m0,112 h80
"/>

		<g transform="translate(0,0)">
<use xlink:href="#back" transform="rotate(15)" />
<use xlink:href="#stripe" transform="rotate(15)" />
<use xlink:href="#origin" />
		</g>
		<g transform="translate(0,112)">
<use xlink:href="#back" transform="rotate(15)" />
<use xlink:href="#stripe" transform="rotate(15)" />
<use xlink:href="#origin" />
		</g>
		<g transform="translate(0,224)">
<use xlink:href="#back1" transform="rotate(15, 0,-25)" />
<use xlink:href="#stripe" transform="rotate(15, 0,-25)" />
<use xlink:href="#origin" transform="translate(0, -25)" />
		</g>
		<g transform="translate(0,336)">
<use xlink:href="#stripe" transform="rotate(15, 0,-52.5)" />
<use xlink:href="#origin" transform="translate(0, -52.5)" />
		</g>
	</g>


<!-- 
<image x="0" y="0" width="144" height="480" xlink:href="fragmented-transforms.png" opacity="0.3"/>
 -->


</svg>
