<svg
	xmlns="http://www.w3.org/2000/svg"
	xmlns:xlink="http://www.w3.org/1999/xlink"
	width="100%" height="100%"
	viewBox="0 0 540 225"
>

<title>Remaining Fragmentainer Extent</title>

<style type="text/css">
text {
	font-family: sans-serif;
	font-size: 16px;
	stroke: none;
}

path.lorem {
	stroke: #777;
	fill: none;
	stroke-width: 16;
	stroke-linecap: butt;
}
</style>

<defs>

<path
	id="page"
	stroke="gray"
	stroke-width="1"
	fill="ghostwhite"
	d="M0,0 H180 V205 H0 Z"
/>

<text
	id="fragmented"
	x="5" y="100"
	fill="navy"
>このボックスは<tspan x="5" dy="1.25em">断片化されている</tspan></text>


</defs>


	<g transform="translate(10,10)">
<use xlink:href="#page" />
<path
	class="lorem"
	transform="translate(5,11.4)scale(1.6, 0.8)"
	d="
M0,0 h55  m3,0 h47
M0,21 h25 m3,0 h22 m3,0 h42
M0,42 h15 m3,0 h64 m3,0 h15
M0,63 h40 m3,0 h53.3
M0,84 h72 m3,0 h20
" />

		<g transform="translate(5,10)" >
<path
	stroke-width="2"
	stroke="navy"
	fill="powderblue"
	d="M0,190 V80 H170 V190"
/>
<use xlink:href="#fragmented" />
		</g>
	</g>

	<g transform="translate(200,10)">
<use xlink:href="#page" />

<path
	class="lorem"
	transform="translate(5,11.4)scale(1.6, 0.8)"
	d="
M0, 0 h70 m3,0 h30
M0,21 h40 m3,0 h58
M0,42 h45 m3,0 h58
M0,63 h20 m3,0 h39 m3,0 h41.3
M0,84 h15 m3,0 h70
" />

		<g transform="translate(5,10)" >
<path
	stroke-width="2"
	stroke="navy"
	fill="powderblue"
	d="M0,190 V80 H170 V190 z"
/>
<use xlink:href="#fragmented" />
		</g>
	</g>

	<g transform="translate(390,10)">
<path
	stroke-width="3"
	stroke="maroon"
	stroke-linecap="round"
	d="M-40,115 h3.5 a3.5,3.5 0,0,0 -7,0 a3.5,3.5 0,0,0 7,0 h35"
/>

<text x="0" y="120">自動縦幅のブロック</text>
<text x="0" y="155">残りの空間</text>
	</g>

<rect
	transform="translate(10,145)"
	x="0" y="0"
	width="480" height="70"
	fill="yellow"
	opacity="0.5"
/>

</svg>
