<svg
	xmlns="http://www.w3.org/2000/svg"
	xmlns:xlink="http://www.w3.org/1999/xlink"  
	width="100%" height="100%"
	viewBox="0 0 340 520"
>
<!-- 
	font-size="16"
 -->

<title>Variable-Size Fragmentainers</title>


<style type="text/css"><![CDATA[
.page {
	stroke: gray;
	stroke-width: 1px;
	fill: ghostwhite;
}

.float {
	stroke-width: 2px;
}

.float text {
	text-anchor: middle;
	stroke: none;
}

.left {
	stroke: crimson;
	fill: pink;
}

.left text {
	fill: crimson;
}

.right {
	stroke: navy;
	fill: powderblue;
}

.right text {
	fill: navy;
	stroke: none;
}

text {
	font-family: sans-serif;
	font-size: 1em;
}

path.lorem {
	stroke: #777;
	fill: none;
	stroke-width: 16;
	stroke-linecap: butt;
}
]]></style>


  <g transform="translate(10,15)">
    <text x="0" y="10">１ページ目</text>
    <g transform="translate(0,20)">
      <path d="M0,0 H320 V190 H0 Z" class="page"/>
      <g class="float left" transform="translate(5,5)">
        <path d="M0,180 V0 H100 V180"/>
        <text x="50" y="50">左 浮動体</text>
      </g>

<path
	class="lorem"
	transform="translate(110,11.4)scale(1.6, 0.8)"
	d="
M0,0   h63
M0,21  h25 m3,0 h22
M0,42  h15 m3,0 h44
M0,63  h40 m3,0 h15.3
M0,84  h60
M0,105 h63
M0,126 h53
M0,147 h63
M0,168 h30 m3,0 h30
M0,189 h43 
M0,210 h63
" />

      <g class="float right" transform="translate(215,5)">
        <path d="M0,180 V0 H100 V180"/>
        <text x="50" y="50">右 浮動体</text>
      </g>
    </g>
  </g>

  <g transform="translate(10,245)">
    <text x="0" y="10">２ページ目</text>
    <g transform="translate(0,20)">
      <path d="M0,245 V0 H180 V245" class="page"/>
      <g class="float left" transform="translate(5,5)">
        <path d="M0,0 V100 H100 V0"/>
        <text x="50" y="40">左 浮動体<tspan x="50" dy="1.25em">（続き）</tspan></text>
      </g>
      <g class="float right" transform="translate(70,110)">
        <path d="M0,0 V100 H100 V0"/>
        <text x="50" y="40">右 浮動体<tspan x="50" dy="1.25em">（続き）</tspan></text>
      </g>

<path
	class="lorem"
	transform="translate(110,11.4)scale(1.6, 0.8)"
	d="
M0,0  h40
M0,21 h35
M0,42 h40
M0,63 h40
M0,84 h30
M0,105 h40
" />

<path
	class="lorem"
	transform="translate(5,117.4)scale(1.6, 0.8)"
	d="
M0,0 h38 
M0,21 h30
M0,42 h15 m3,0 h20
M0,63 h38
M0,84 h35
M0,105 h38 
M0,126 h15 m3,0 h44 m3,0 h42
M0,147 h40 m3,0 h15.3
" />

    </g>
  </g>
</svg>
