<svg id="Illustration" xmlns="http://www.w3.org/2000/svg" viewBox="0 0 800 450"><defs><style>.cls-1,.cls-4{fill:#fff;}.cls-10,.cls-2,.cls-9{fill:#f90000;}.cls-3,.cls-5{fill:#527a8a;}.cls-3,.cls-4,.cls-5,.cls-6{stroke:#527a8a;}.cls-3,.cls-4,.cls-5{stroke-miterlimit:10;}.cls-5{stroke-width:0.5px;}.cls-6{fill:none;}.cls-11,.cls-12,.cls-15,.cls-7{fill:#005ad1;}.cls-7{stroke:#005ad1;}.cls-7,.cls-8{stroke-linejoin:round;stroke-width:0.63px;}.cls-13,.cls-14,.cls-16,.cls-8{fill:#007c4b;}.cls-8{stroke:#007c4b;}.cls-10,.cls-11,.cls-12,.cls-13,.cls-14,.cls-9{isolation:isolate;font-family:Verdana, Verdana;}.cls-10,.cls-9{font-size:23.39px;}.cls-10{letter-spacing:-0.01em;}.cls-11,.cls-12{font-size:23.47px;}.cls-12{letter-spacing:-0.07em;}.cls-13,.cls-14{font-size:23.48px;}.cls-14{letter-spacing:-0.04em;}</style></defs><title>accelerometer_coordinate_system</title><rect class="cls-1" width="800" height="450"/><rect class="cls-2" x="381.2" y="209.3" width="2.3" height="4.64"/><path class="cls-2" d="M383.6,396.2h-2.3v-9.1h2.3Zm0-18.2h-2.3v-9.1h2.3Zm0-18.2h-2.3v-9.1h2.3Zm0-18.2h-2.3v-9.1h2.3Zm0-18.2h-2.3v-9.1h2.3Zm0-18.2h-2.3V296h2.3Zm0-18.2h-2.3v-9.1h2.3Zm0-18.2h-2.3v-9.1h2.3Zm0-18.2h-2.3v-9.1h2.3Zm0-18.2h-2.3v-9.1h2.3Z"/><rect class="cls-2" x="381.2" y="405.2" width="2.3" height="4.64"/><polygon class="cls-2" points="375.6 405.2 382.4 430.4 389.2 405.2 375.6 405.2"/><rect class="cls-2" x="381.2" y="36.7" width="2.3" height="172.62"/><polygon class="cls-2" points="375.6 41.4 382.4 16.1 389.2 41.4 375.6 41.4"/><g id="g4433"><g id="g4424"><g id="g4416"><g id="g4319"><path class="cls-3" d="M493.7,381.8l-324.1-184,.3-.4L289.2,54.6l.3.2L613.3,238.6l-.3.4ZM170.8,197.6,493.5,380.9l118.6-142L289.4,55.6Z"/><path id="rect4197-6" class="cls-4" d="M191.8,124.7,213.3,99a2.2,2.2,0,0,1,2-.9l2.2,1.2c.5.3.3,1.1-.3,1.9l-21.3,25.7a2.2,2.2,0,0,1-2,.9l-2.2-1.2C191.1,126.3,191.2,125.4,191.8,124.7Z"/><path class="cls-3" d="M194.1,128.8h-.5l-2.3-1.3a1.7,1.7,0,0,1-.9-1.2,2.6,2.6,0,0,1,.8-2.2l21.5-25.6a3.1,3.1,0,0,1,2.9-1.3h.2l2.3,1.3a1.6,1.6,0,0,1,.8,1.1,3,3,0,0,1-.8,2.2l-21.4,25.7A3.1,3.1,0,0,1,194.1,128.8Zm-1.8-3,1.8,1a1.2,1.2,0,0,0,.9-.5l21.4-25.8.3-.5L215,99a1.2,1.2,0,0,0-.9.5l-21.6,25.8Zm-.2-.1Z"/><path id="path4206-9" class="cls-4" d="M182.7,135.6a2.6,2.6,0,0,1,3.2-.5,1.7,1.7,0,0,1,1.1,2.1h0l-.3.5a2.6,2.6,0,0,1-3.2.5,1.7,1.7,0,0,1-1.1-2.1h0Z"/><path class="cls-3" d="M184.8,139.2a3.2,3.2,0,0,1-1.6-.5,2.3,2.3,0,0,1-1.4-2.9v-.2l.4-.6a3.3,3.3,0,0,1,4.1-.6,2.2,2.2,0,0,1,1.2,1.1,2.3,2.3,0,0,1,.1,1.8v.2l-.3.5A3.4,3.4,0,0,1,184.8,139.2Zm-1.8-2.9a1,1,0,0,0,.6,1.3h.1a2,2,0,0,0,2.6-.3l.2-.3a1,1,0,0,0-.6-1.3h-.1a2,2,0,0,0-2.5.3Z"/><path class="cls-3" d="M586.5,345.5a25.5,25.5,0,0,1-12.5-3.2,18.1,18.1,0,0,1-9.3-12.2A14.5,14.5,0,0,1,568,318h0c6.4-7.7,19.7-9.5,29.4-4a18.1,18.1,0,0,1,9.3,12.2,14.5,14.5,0,0,1-3.3,12.1C599.5,343,593.1,345.5,586.5,345.5Zm-17.9-27a13.7,13.7,0,0,0-3.1,11.4,17.3,17.3,0,0,0,8.9,11.6c9.5,5.3,22.2,3.6,28.4-3.8a13.7,13.7,0,0,0,3.1-11.4,17.3,17.3,0,0,0-8.9-11.6C587.5,309.4,574.8,311.1,568.6,318.5Z"/></g></g></g><g id="g4445"><path class="cls-5" d="M536.1,421.2a34.5,34.5,0,0,1-17.2-4.4L119.8,185.9c-6.9-4-11.4-10-12.6-17a22.6,22.6,0,0,1,5.4-18.7L220.2,23.9c9.8-11.4,28.9-14.3,42.6-6.5h0L661.7,248.3c6.9,4,11.4,10,12.6,17a22.6,22.6,0,0,1-5.4,18.7L561.5,410.3C555.4,417.4,545.8,421.2,536.1,421.2ZM245.7,14.5c-9.3,0-18.5,3.6-24.3,10.4L113.8,151.2a21.1,21.1,0,0,0-5.1,17.4c1.1,6.5,5.3,12.2,11.9,15.9l399.1,231c13.1,7.5,31.4,4.8,40.7-6.2L667.7,282.9a21.1,21.1,0,0,0,5.1-17.4c-1.1-6.5-5.3-12.2-11.9-15.9L262,18.7A32.9,32.9,0,0,0,245.7,14.5Z"/><path class="cls-3" d="M540.7,437.3a30,30,0,0,1-7.2-.9c-8.5-2.1-25.7-12.4-40.9-21.4-8.6-5.1-16.7-10-22.4-12.8-53.2-30.6-106.4-60.8-162.8-92.7-61.3-34.7-124.6-70.6-187.6-107-.4-.2-11.9-5.8-12.9-14.8a144.8,144.8,0,0,1-.1-16.5c0-1.9.1-3.8.1-5.9h1.5q0,3.1-.1,5.9c-.1,6.9-.3,12.3.1,16.3.9,8.1,12,13.6,12.1,13.6,63,36.4,126.4,72.3,187.6,107,56.4,32,109.6,62.1,162.8,92.7,5.7,2.9,13.9,7.7,22.5,12.9,15.1,9,32.1,19.2,40.4,21.2,15.1,3.7,26.4-5.7,31.7-11.7,18.9-21.1,38.5-44.2,55.9-64.5,19-22.3,35.4-41.5,46.8-53.7,7.4-8.3,4.6-39.9,4.6-40.2h1.5c.1,1.3,2.9,32.6-5,41.4-11.4,12.2-27.8,31.4-46.8,53.6-17.3,20.3-37,43.4-55.9,64.5C559.1,432.8,550,437.3,540.7,437.3Z"/></g></g><path class="cls-6" d="M99.5,12.3"/><path class="cls-7" d="M99.5,12.3"/><path class="cls-8" d="M99.5,12.3"/><g id="text18220"><text class="cls-9" transform="translate(394.3 37.5)">Z</text></g><g id="text18220-7"><text class="cls-10" transform="translate(344.2 424.2)">-</text><text class="cls-9" transform="translate(354.4 424.2)">Z</text></g><g id="text18220-8"><text class="cls-11" transform="translate(128 53.4) rotate(-58.1)">Y</text></g><g id="text18220-8-0"><text class="cls-12" transform="translate(676.6 418.5) rotate(-58.1)">-</text><text class="cls-11" transform="translate(681.4 410.9) rotate(-58.1)">Y</text></g><g id="text18220-5"><text class="cls-13" transform="matrix(0.77, 0.64, -0.64, 0.77, 503.17, 81.75)">X</text></g><g id="text18220-5-8"><text class="cls-14" transform="matrix(0.77, 0.64, -0.64, 0.77, 225.46, 341.3)">-</text><text class="cls-13" transform="matrix(0.77, 0.64, -0.64, 0.77, 232.97, 347.54)">X</text></g><rect class="cls-15" x="399.1" y="-102.7" width="2.3" height="647.36" transform="translate(10.4 459.8) rotate(-60.4)"/><polygon class="cls-15" points="119.6 69.2 101 51 126.3 57.6 119.6 69.2"/><polygon class="cls-15" points="674.3 384.9 699.5 391.4 680.9 373.1 674.3 384.9"/><rect class="cls-16" x="199.1" y="212.1" width="362.9" height="2.32" transform="translate(-26.6 369.9) rotate(-50.3)"/><polygon class="cls-16" points="272.7 353.8 251.6 368.8 262.4 345.2 272.7 353.8"/><polygon class="cls-16" points="498.7 81.7 509.7 58.1 488.4 73.1 498.7 81.7"/></svg>