<svg id="svg2" xmlns="http://www.w3.org/2000/svg" viewBox="0 0 800.8 521.4"><defs><style>.cls-1{fill:#fff;}.cls-2{fill:#f5f5f5;}.cls-2,.cls-3,.cls-7{stroke:#b4b4b4;}.cls-10,.cls-12,.cls-2,.cls-3,.cls-4,.cls-5,.cls-6,.cls-7,.cls-8{stroke-linecap:round;}.cls-2,.cls-3,.cls-4,.cls-5,.cls-6,.cls-7{stroke-linejoin:round;}.cls-10,.cls-12,.cls-2,.cls-3,.cls-4,.cls-6,.cls-7,.cls-8{stroke-width:2px;}.cls-3{fill:#dffbff;}.cls-10,.cls-12,.cls-4,.cls-5,.cls-8{fill:none;}.cls-4,.cls-5{stroke:#557a89;}.cls-6{fill:#ffe1d4;stroke:#969696;}.cls-7{fill:#dcdcdc;}.cls-8{stroke:#005ad1;}.cls-10,.cls-12,.cls-8{stroke-linejoin:bevel;}.cls-15,.cls-9{fill:#005ad1;}.cls-10{stroke:#007c4b;}.cls-11,.cls-16{fill:#007c4b;}.cls-12{stroke:#f90000;}.cls-13,.cls-17{fill:#f90000;}.cls-14,.cls-15,.cls-16,.cls-17{isolation:isolate;}.cls-15,.cls-16,.cls-17{font-size:18px;font-family:ArialMT, Arial;}.cls-15{letter-spacing:-0.02em;}</style></defs><title>screen_coordinate_system</title><g id="Layer_1" data-name="Layer 1"><rect id="rect3539" class="cls-1" width="800.8" height="521.41"/><path id="path7" class="cls-2" d="M127.5,137.6l10,.5,10,.5,10,.5,10,.5,10,.5,10,.5h2V130l-10-.5-10-.5-10-.5-10-.5-10-.5-10-.5h-2v10.7" transform="translate(-1 0.4)"/><path id="path9" class="cls-3" d="M44.4,171.3l10,.4,10,.4,10,.4,10,.4,10,.4,10,.4,10,.4h3.8V126.1l-10-.5-10-.5-10-.5-10-.5-10-.5-10-.5-10-.5-3.8-.2v48.9" transform="translate(-1 0.4)"/><path id="path11" class="cls-4" d="M98.3,71.8l-.8.3-.7.4-.6.5-.5.5-.4.6-.2.6v1.5l.2.7.4.6.5.6.6.5.7.5.8.4.9.3.9.2h.9l10,.7,10,.7,10,.7,4.2.3H137l.8-.2.8-.3.7-.4.6-.5.5-.5.3-.6.2-.6V77.9l-.2-.6-.3-.6-.5-.6-.6-.5-.7-.5-.8-.4-.8-.3-.9-.2h-.9l-10-.7-10-.7-10-.7-4.3-.3H98.3" transform="translate(-1 0.4)"/><path id="path13" class="cls-5" d="M85.6,76.7l.4-.2.3-.3.3-.3.2-.4V73.7l-.2-.4-.3-.4-.3-.3-.4-.2-.4-.2H83.7l-.3.3L83,73l-.2.4v1.8l.2.4.3.4.3.3.4.2.4.2h1.2" transform="translate(-1 0.4)"/><path id="path15" class="cls-5" d="M85.6,76.7" transform="translate(-1 0.4)"/><path id="path17" class="cls-5" d="M83.9,72.2" transform="translate(-1 0.4)"/><path id="path19" class="cls-4" d="M125.1,491.3l2.9-1.9,2.6-2.5,2.1-2.9,1.6-3.3,1-3.5.3-3.6-.3-3.6-1-3.4-1.6-3.1-2.1-2.7-2.6-2.1-2.9-1.5-3.2-.9h0l-3.3-.2-3.3.6L112,458l-3,1.9-2.6,2.5-2.1,2.9-1.6,3.3-1,3.6-.3,3.7.3,3.6,1,3.4,1.6,3.1,2.1,2.7,2.6,2.1,2.9,1.4h.1l3.2.8h3.3l3.3-.6,3.3-1.3" transform="translate(-1 0.4)"/><path id="path21" class="cls-4" d="M30.5,447.7l10-.5,10-.5,10-.5,10-.5,10-.5,10-.5,10-.5,10-.5,10-.5,10-.5,10-.5,10-.5,10-.5,10-.5,10-.5,10-.5,8.8-.5h.3V104.3h-.3l-10-.6-10-.6-10-.6-10-.6-10-.6-10-.6-10-.6-10-.6-10-.6-10-.6-10-.6-10-.6-10-.6-10-.6-10-.6-10-.6-8.9-.5V447.7" transform="translate(-1 0.4)"/><path id="path23" class="cls-4" d="M41.9,514.6l10-.8,10-.8,10-.8,10-.8,10-.8,10-.8,10-.8,10-.8,10-.8,10-.8,10-.8,10-.8,10-.8,10-.8,7.8-.6,5.3-1.1,5-2.3,4.5-3.5,3.7-4.4,2.8-5.2,1.7-5.6.6-5.8V68.9l-.6-5.9L211,57.4l-2.8-5.2-3.7-4.4L200,44.3,195,42l-5.3-1.1-10-.8-10-.8-10-.8-10-.8-10-.8-10-.8-10-.8-10-.8-10-.8-10-.8-10-.8-10-.8-10-.8-10-.8-7.8-.6-5.8.2-5.6,1.6-9.2,3.9-1.9.8-4.9,2.9-4.1,4L7.3,47.4,5.4,53l-.7,6V484.3l.7,6,1.9,5.6,3.1,5,4.1,4,4.9,2.9,9.3,3.7,1.8.7,5.6,1.6,5.8.8" transform="translate(-1 0.4)"/><path id="path25" class="cls-4" d="M30.5,31.2l-5,2.9-4.2,4.1-3.2,5-2,5.7-.7,6.2V488.7l.7,6.2,2,5.8,3.2,5,4.2,4.1,5,2.9" transform="translate(-1 0.4)"/><path id="path27" class="cls-2" d="M127.5,156.2l10,.4,10,.4,10,.4,10,.4,10,.4,10,.4h2V148l-10-.5-10-.5-10-.5-10-.5-10-.5-10-.5h-2v11.3" transform="translate(-1 0.4)"/><path id="path29" class="cls-2" d="M127.5,174.2l10,.4,10,.4,10,.4,9.5.3V164.9l-10-.4-10-.4-10-.4-9.5-.4v10.9" transform="translate(-1 0.4)"/><path id="path31" class="cls-2" d="M44.3,200l10,.3,10,.3,10,.3,10,.3,10,.3,10,.3,10,.3,10,.3,10,.3,10,.3,10,.3,10,.3,10,.3,10,.3h5V193.6l-10-.3-10-.3-10-.3-10-.3-10-.3-10-.3-10-.3-10-.3-10-.3-10-.3-10-.3-10-.3-10-.3-10-.3H44.2V200" transform="translate(-1 0.4)"/><path id="path33" class="cls-2" d="M44.3,219l10,.2,10,.2,10,.2,10,.2,10,.2,10,.2,10,.2,10,.2,10,.2,10,.2,10,.2,10,.2,10,.2,10,.2h5V211.2l-10-.2-10-.2-10-.2-10-.2-10-.2-10-.2-10-.2-10-.2-10-.2-10-.2-10-.2-10-.2-10-.2-10-.2h-5V219" transform="translate(-1 0.4)"/><path id="path35" class="cls-2" d="M44.3,237.6h93.6V228l-10-.2-10-.2-10-.2-10-.2-10-.2-10-.2-10-.2-10-.2-10-.2H44.3v11.5" transform="translate(-1 0.4)"/><path id="path37" class="cls-4" d="M370.6,389.5h.7l.7-.2.6-.4.6-.5.5-.7.4-.8.4-.9.3-1,.2-1V342.6l-.2-1-.3-1-.4-.9-.5-.9-.5-.7-.6-.6-.6-.4-.7-.3h-1.6" transform="translate(-1 0.4)"/><path id="path39" class="cls-4" d="M369.8,336.8l-.7.2-.6.4-.6.5-.5.7-.4.8-.4.9-.3,1-.2,1v41.4l.2,1,.3,1,.4.9.4.8.5.7.6.6.6.4.7.3h.9" transform="translate(-1 0.4)"/><path id="path41" class="cls-4" d="M372.4,400l-.2-.4-.3-.4-.4-.3-.4-.2h-2l-.4.2-.4.3-.3.4-.2.4v2l.2.4.3.4.4.3.4.2H371l.4-.2.4-.3.3-.4.2-.4v-2" transform="translate(-1 0.4)"/><path id="path43" class="cls-4" d="M370.2,403.4" transform="translate(-1 0.4)"/><path id="path45" class="cls-4" d="M370.2,398.5" transform="translate(-1 0.4)"/><path id="path47" class="cls-4" d="M749.3,362.2l-1.4-3-.4-.6-1.4-2-2.3-2.2-2.6-1.7-2.8-1-2.9-.4h-.6l-2.4.2-2.8.9-2.6,1.5-2.3,2.1-1.9,2.6-1.4,3-.9,3.3-.3,3.4.3,3.4.9,3.3,1.4,3,1.9,2.7,2.3,2.2,2.6,1.6,2.8,1,2.8.3h.2l2.9-.3,2.8-1,2.6-1.6,2.3-2.1,1.4-2,.4-.6,1.4-3,.8-3.2.3-3.4-.3-3.4-.8-3" transform="translate(-1 0.4)"/><path id="path49" class="cls-4" d="M709.7,456V283.4l-10-.5-10-.5-10-.5-10-.5-10-.5-10-.5-10-.5-10-.5-10-.5-10-.5-10-.5-10-.5-10-.5-10-.5-10-.5-10-.5-10-.5-10-.5-10-.5-10-.5-10-.5-10-.5-10-.5-10-.5-10-.5-10-.5-10-.5-10-.5-10-.5-10-.5-10-.5-7-.3V459.5h310l7-.4" transform="translate(-1 0.4)"/><path id="path51" class="cls-4" d="M762.7,444V296.1l-.5-5.6-1.6-5.4-2.6-4.9-3.4-4.1-4.1-3.2-4.6-2.1-4.8-.9-10-.5-10-.5-10-.5-10-.5-10-.5-10-.5-10-.5-10-.5-10-.5-10-.5-10-.5-10-.5-10-.5-10-.5-10-.5-10-.5-10-.5-10-.5-10-.5-10-.5-10-.5-10-.5-10-.5-10-.5-10-.5-10-.5-10-.5-10-.5-10-.5-10-.5-10-.5-10-.5-10-.5-10-.5-10-.5-10-.5-10-.5-10-.5-6.5-.3-6.3.4-6,1.8-9.2,3.2-5.3,3.1-4.4,4.3-3.4,5.2-2.1,5.9-.7,6.3V448.5l.7,6.3,2.1,6,3.4,5.3,4.4,4.4,5.3,3.3,5.9,2,9.3,1.2,6.3.6,10-.2,10-.2,10-.2,10-.2,10-.2,10-.2,10-.2,10-.2,10-.2,10-.2,10-.2,10-.2,10-.2,10-.2,10-.2,10-.2,10-.2,10-.2,10-.2,10-.2,10-.2,10-.2,10-.2,10-.2,10-.2,10-.2,10-.2,10-.2,10-.2,10-.2,10-.2,10-.2,10-.2,10-.2,10-.2,10-.2,10-.2,10-.2h6.1l4.8-.7,4.6-1.9,4.1-3.1,3.4-4,2.6-4.8,1.6-5.3.9-6.1" transform="translate(-1 0.4)"/><path id="path53" class="cls-4" d="M348.8,476.2l-6-2-5.4-3.3-4.5-4.5-3.4-5.4-2.1-6.1-.7-6.4v-171l.7-6.4,2.1-6,3.4-5.3,4.5-4.3,5.4-3.2" transform="translate(-1 0.4)"/><path id="path55" class="cls-6" d="M59.2,126.9l-1.3.5-1.1.8-.9,1.1-.6,1.3L55,132v1.4l.4,1.4.7,1.2,1,1,1.2.7,1.3.4H61l1.3-.3,1.2-.6,1-.9.7-1.2.4-1.3v-1.4l-.3-1.4-.6-1.3-.9-1.1-1.1-.9-1.2-.6-1.3-.2H59.2Z" transform="translate(-1 0.4)"/><path id="path57" class="cls-7" d="M50.3,159.6v7.1l10,.4,10,.4,10,.4,10,.4,10,.4,10,.4h3.2V149.5l-6.8-7.3-6.8-7.3-4-4.3L89.2,138l-6.7,7.4-6.7,7.4-.6.6-7.3-6.8-3-2.8L58,151l-6.7,7.4-1,1.2" transform="translate(-1 0.4)"/><g id="g59"><g id="g61"><line id="line63" class="cls-8" x1="122.1" y1="276.1" x2="122.1" y2="22.6"/><g id="g65"><polygon id="polygon67" class="cls-9" points="122.1 4.9 116.3 26.6 128 26.6 122.1 4.9"/></g></g></g><g id="g69"><g id="g71"><line id="line73" class="cls-10" x1="122.1" y1="275.5" x2="245.9" y2="275.5"/><g id="g75"><polygon id="polygon77" class="cls-11" points="263.6 275.5 241.9 269.7 241.9 281.3 263.6 275.5"/></g></g></g><g id="g79"><g id="g81"><line id="line83" class="cls-12" x1="122.1" y1="276.1" x2="173" y2="306"/><g id="g85"><polygon id="polygon87" class="cls-13" points="188.3 315 172.5 299 166.6 309 188.3 315"/></g></g></g><g id="text89" class="cls-14"><text class="cls-15" transform="translate(130 23.8)">Y</text></g><g id="text91" class="cls-14"><text class="cls-16" transform="translate(247 267.3)">X</text></g><g id="text93" class="cls-14"><text class="cls-17" transform="translate(168.9 328.4)">Z</text></g><g id="text95" class="cls-14"><text class="cls-16" transform="translate(775.6 359) rotate(1.1)">X</text></g><g id="text97" class="cls-14"><text class="cls-15" transform="matrix(1, 0, 0, 1, 560.77, 233.05)">Y</text></g><path id="path99" class="cls-3" d="M415.3,346.6l10,.2,10,.2,10,.2,10,.2,10,.2,10,.2,10,.2,6.8.2V299.1l-10-.4-10-.4-10-.4-10-.4-10-.4-10-.4-10-.4-6.8-.3v50.6" transform="translate(-1 0.4)"/><path id="path101" class="cls-2" d="M500.6,311.3l9.9.4,9.9.4,9.9.4,9.9.4,9.9.4,9.9.4,9.9.4,9.9.4,9.9.4,9.9.4,9.9.4,9.9.4,9.9.4,9.9.4,9.9.4,9.9.4,9.9.4,9.9.4,9.9.4H692V308.5l-9.9-.4-9.9-.4-9.9-.4-9.9-.4-9.9-.4-9.9-.4-9.9-.4-9.9-.4-9.9-.4-9.9-.4-9.9-.4-9.9-.4-9.9-.4-9.9-.4-9.9-.4-9.9-.4-9.9-.4-9.9-.4-9.9-.4h-3.3v10.5" transform="translate(-1 0.4)"/><path id="path103" class="cls-2" d="M500.6,330.3l9.9.3,9.9.3,9.9.3,9.9.3,9.9.3,9.9.3,9.9.3,9.9.3,9.9.3,9.9.3,9.9.3,9.9.3,9.9.3,9.9.3,9.9.3,9.9.3,9.9.3,9.9.3,9.9.3h3.2V325.8l-9.9-.3-9.9-.3-9.9-.3-9.9-.3-9.9-.3-9.9-.3-9.9-.3-9.9-.3-9.9-.3-9.9-.3-9.9-.3-9.9-.3-9.9-.3-9.9-.3-9.9-.3-9.9-.3-9.9-.3-9.9-.3-9.9-.3h-3.2v10.3" transform="translate(-1 0.4)"/><path id="path105" class="cls-2" d="M500.6,348.6l9.9.2,9.9.2,9.9.2,9.9.2,9.9.2,9.9.2,9.9.2,9.9.2,9.9.2,9.9.2,9.9.2,9.9.2,9.9.2h4.1V340.6l-9.9-.3-9.9-.3-9.9-.3-9.9-.3-9.9-.3-9.9-.3-9.9-.3-9.9-.3-9.9-.3-9.9-.3-9.9-.3-9.9-.3-9.9-.3h-4.1v12" transform="translate(-1 0.4)"/><path id="path107" class="cls-2" d="M415.3,383.9l9.9.2,9.9.2,9.9.2,9.9.2,9.9.2,9.9.2,9.9.2,9.9.2,9.9.2,9.9.2,9.9.2,9.9.2,9.9.2,9.9.2,9.9.2,9.9.2,9.9.2,9.9.2,9.9.2,9.9.2,9.9.2,9.9.2,9.9.2,9.9.2,9.9.2,9.9.2,9.9.2h9.5V378.9l-9.9-.2-9.9-.2-9.9-.2-9.9-.2-9.9-.2-9.9-.2-9.9-.2-9.9-.2-9.9-.2-9.9-.2-9.9-.2-9.9-.2-9.9-.2-9.9-.2-9.9-.2-9.9-.2-9.9-.2-9.9-.2-9.9-.2-9.9-.2-9.9-.2-9.9-.2-9.9-.2-9.9-.2-9.9-.2-9.9-.2-9.9-.2-9.5-.2v10.6" transform="translate(-1 0.4)"/><path id="path109" class="cls-2" d="M415.3,404.3H691.8V396.6H415.3v10.5" transform="translate(-1 0.4)"/><path id="path111" class="cls-2" d="M415.3,424.2H618.9V413.5H415.3v12.7" transform="translate(-1 0.4)"/><path id="path113" class="cls-6" d="M430.5,301.2l-1.3.5-1.1.8-.9,1.1-.6,1.3-.3,1.4v1.5l.4,1.4.8,1.3,1,1,1.2.7,1.4.4h1.4l1.4-.3,1.2-.7,1-1,.7-1.2.4-1.4v-1.4l-.3-1.4-.6-1.3-.9-1.2-1.1-.9-1.3-.6-1.4-.2h-1.3Z" transform="translate(-1 0.4)"/><path id="path115" class="cls-7" d="M421.4,334.6v7.2l10,.3,10,.3,10,.3,10,.3,10,.3,10,.3,5.8.2V323.7l-6.9-7.2-6.9-7.2-4.5-4.7-6.8,7.4-6.8,7.4-6.8,7.4-1.3,1.4-7.4-6.7-3.3-3-6.7,7.4-6.7,7.4-1.7,1.3" transform="translate(-1 0.4)"/><g id="g117"><g id="g119"><line id="line121" class="cls-10" x1="552.1" y1="364.9" x2="778.1" y2="369.8"/><g id="g123"><polygon id="polygon125" class="cls-11" points="774 375.5 795.8 370.2 774.3 363.9 774 375.5"/></g></g></g><g id="g127"><g id="g129"><line id="line131" class="cls-12" x1="552.1" y1="365.3" x2="602.9" y2="395.1"/><g id="g133"><polygon id="polygon135" class="cls-13" points="596.6 398.1 618.2 404.1 602.5 388.1 596.6 398.1"/></g></g></g><g id="text137" class="cls-14"><text class="cls-17" transform="translate(597.8 421)">Z</text></g><g id="g139"><g id="g141"><line id="line143" class="cls-8" x1="552.1" y1="364.4" x2="552.1" y2="233.3"/><g id="g145"><polygon id="polygon147" class="cls-9" points="557.9 237.3 552.1 215.6 546.3 237.3 557.9 237.3"/></g></g></g></g></svg>