<!-- vim: set expandtab ts=2 sw=2 tw=80: -->
<svg xmlns="http://www.w3.org/2000/svg"
	xmlns:xlink="http://www.w3.org/1999/xlink"
	width="100%"
	height="100%"
	viewBox="-10 -10 485 132"
>
<defs>


<style type="text/css">
svg {
	font-size: 19px;
	font-family: sans-serif;
}

/*
 * Line work
 */
.bracket {
	stroke: black;
	stroke-width: 1.5;
	fill: none;
}
.activeSpan	{
	fill: paleturquoise;
	stroke: black;
}
.repeatBoundary {
	stroke: navy;
	stroke-width: 2;
	stroke-dasharray: 4 4;
}

/* Text labels */
.inputLabel {
	fill: navy;
	text-anchor: middle;
}
.opLabel {
	font-size: 35px;
	font-weight: bold;
	fill: black;
	text-anchor: middle;
}
.regionLabel {
	text-anchor: start;
}

tspan[lang="en"] {
	fill: gray;
	font-size: smaller;
}
</style>
</defs>

	<g transform="translate(3 1)">
		<g>
<rect
	width="60" height="50"
	class="activeSpan"
/>
<path
	d="M2 55s0 7 7 7h14s7 0 7 7c0 0 0-7 7-7h14s7 0 7-7"
	class="bracket"
/>
<text
	transform="translate(0, 90)"
	class="regionLabel"
>
反復所要時間
<tspan lang="en" x="0" y="1.2em">iteration duration</tspan>
</text>
		</g>
<text x="95" y="40" class="opLabel">×</text>
		<g transform="translate(160, 40)">
<text class="inputLabel">
<tspan x="0" font-size="24">2.5</tspan>
<tspan x="0" y="-1.4em">反復回数</tspan>
<tspan lang="en" x="0" y="1.4em">iteration count</tspan>
</text>
		</g>
<text x="230" y="40" class="opLabel">=</text>
		<g transform="translate(280)">
<rect width="150" height="50" class="activeSpan"/>
<path
	d="M60 0v50m60-50v50"
	class="repeatBoundary"
/>
<path
	d="M2 55s0 7 7 7h59s7 0 7 7c0 0 0-7 7-7h59s7 0 7-7"
	class="bracket"
/>

<text
	transform="translate(0, 90)"
	class="regionLabel"
>
作動所要時間
<tspan lang="en" x="0" y="1.2em">active duration</tspan>
</text>
		</g>
	</g>
</svg>
