<svg
	xmlns="http://www.w3.org/2000/svg"
	xmlns:xlink="http://www.w3.org/1999/xlink"
	width="159" height="159"
	viewBox="-3 -3 106 106"
>

<defs>
<path
	id="margin-sym"
	fill="black"
	d="M0,0 l5,-5 v3 h8 v-3 l5,5 l-5,5 v-3 h-8 v3 z"
/>
</defs>


<rect
	x="0" y="0"
	width="100" height="100"
	stroke="red" stroke-width="3" fill="white"
/>

<rect
	x="21" y="21"
	width="58" height="58"
	stroke="silver" stroke-width="3" stroke-dasharray="6 4"
	fill="white"
/>
<path
	transform="translate(25,25)"
	fill="silver"
	d="
M0,0 h15 v15 h-15 z
M0,17 h15 v15 h-15 z
M0,34 h15 v15 h-15 z
M17,5 h15 v25 h-15 z
M17,32 h15 v15 h-15 z
M34,0 h15 v15 h-15 z
M34,17 h15 v20 h-15 z
" />


<use xlink:href="#margin-sym" transform="translate(1.5, 50)" />
<use xlink:href="#margin-sym" transform="translate(98.5, 50)rotate(180)" />
<use xlink:href="#margin-sym" transform="translate(50, 1.5)rotate(90)" />
<use xlink:href="#margin-sym" transform="translate(50, 98.5)rotate(-90)" />

</svg>