<svg
	xmlns="http://www.w3.org/2000/svg"
	xmlns:xlink="http://www.w3.org/1999/xlink"
	width="689" height="151"
	viewBox="0 0 689 151"

	font-family="sans-serif"
	text-anchor="middle"
	font-size="18"
	color="black"
>

<style><![CDATA[
text {
	fill: currentColor;
	stroke: none;
	text-anchor: middle;
}

]]></style>

<!-- 
path {
	stroke: currentColor;
	fill: none;
}
 -->
<defs>


</defs>


	<g
transform="translate(200,30)"
font-size="16"
alignment-baseline="bottom"
	>


<!-- 
<text font-size="14" x="-150" y="-5">時間軸</text>
 -->

<path
	stroke-width="2"
	stroke="black"
	d="M-200,0 h 680 h-5 l0,-3 10,3 -10,3 0,-3"
/>

		<g font-size="14" color="red">
<!-- 
<text x="0" y="-10">ビデオ同期</text>
<text x="400" y="-10">ビデオ同期</text>
 -->
<path
	stroke="currentColor"
	stroke-width="2"
	stroke-dasharray="10,4" stroke-dashoffset="0"
	d="M0,0 v70 M400,0 v70"
/>
		</g>

<path
	fill="none"
	stroke="black"
	stroke-width="1"
	d="M0,70 v10 h400 v-10 M200,80 v10"
/>

<rect
	fill="#CCF"
	stroke="blue"
	x="5" y="20" rx="5"
	width="110" height="40"
/>
<rect
	fill="#FFA"
	stroke="#995"
	x="120" y="20" rx="5"
	width="140" height="40"
/>
<rect
	fill="#AFA"
	stroke="#595"
	x="265" y="20" rx="5"
	width="130" height="40"
/>
<rect
	fill="#AFA"
	stroke="#595"
	x="-135" y="20" rx="5"
	width="130" height="40"
/>

<!-- 
<text x="60" y="50">タスク実行</text>
<text x="190" y="50">描画の更新</text>
<text x="330" y="50">callback 処理</text>

<text x="-70" y="50">callback 処理</text>
<text x="430" y="50">…</text>
<text x="-160" y="50">…</text>
<text x="200" y="110">フレーム</text>
 -->


	</g>

<!-- 
<image x="0" y="0" width="689" height="151" xlink:href="frame.png" 
opacity="0.3"
/>
 -->


</svg>