<svg xmlns="http://www.w3.org/2000/svg" xmlns:xlink="http://www.w3.org/1999/xlink" viewBox="0 0 617.12 352.79"><defs><style>.cls-1,.cls-10,.cls-100,.cls-101,.cls-102,.cls-103,.cls-104,.cls-105,.cls-106,.cls-107,.cls-108,.cls-109,.cls-11,.cls-110,.cls-111,.cls-112,.cls-113,.cls-114,.cls-115,.cls-116,.cls-117,.cls-118,.cls-119,.cls-120,.cls-121,.cls-122,.cls-123,.cls-124,.cls-125,.cls-126,.cls-127,.cls-128,.cls-129,.cls-13,.cls-130,.cls-131,.cls-132,.cls-133,.cls-134,.cls-135,.cls-136,.cls-137,.cls-138,.cls-139,.cls-14,.cls-140,.cls-141,.cls-142,.cls-143,.cls-145,.cls-146,.cls-147,.cls-149,.cls-150,.cls-151,.cls-152,.cls-153,.cls-16,.cls-2,.cls-27,.cls-28,.cls-29,.cls-3,.cls-30,.cls-31,.cls-32,.cls-33,.cls-34,.cls-35,.cls-36,.cls-39,.cls-4,.cls-40,.cls-41,.cls-42,.cls-43,.cls-44,.cls-45,.cls-46,.cls-47,.cls-48,.cls-49,.cls-50,.cls-51,.cls-52,.cls-53,.cls-54,.cls-55,.cls-56,.cls-57,.cls-58,.cls-59,.cls-6,.cls-60,.cls-61,.cls-62,.cls-63,.cls-64,.cls-65,.cls-66,.cls-67,.cls-68,.cls-69,.cls-7,.cls-70,.cls-71,.cls-72,.cls-73,.cls-74,.cls-75,.cls-76,.cls-77,.cls-78,.cls-79,.cls-80,.cls-81,.cls-82,.cls-83,.cls-84,.cls-85,.cls-86,.cls-87,.cls-88,.cls-89,.cls-90,.cls-91,.cls-92,.cls-93,.cls-94,.cls-95,.cls-96,.cls-97,.cls-98,.cls-99{stroke-linejoin:bevel;}.cls-1,.cls-2,.cls-27,.cls-28,.cls-29,.cls-3,.cls-30,.cls-31,.cls-32,.cls-33,.cls-34,.cls-4{stroke-width:3px;}.cls-1{fill:url(#Turquoise);stroke:url(#Turquoise-2);}.cls-2{fill:url(#Turquoise-3);stroke:url(#Turquoise-4);}.cls-3{fill:url(#Turquoise-5);stroke:url(#Turquoise-6);}.cls-4{fill:url(#Turquoise-7);stroke:url(#Turquoise-8);}.cls-5{opacity:0.8;}.cls-10,.cls-100,.cls-101,.cls-102,.cls-103,.cls-104,.cls-105,.cls-106,.cls-107,.cls-108,.cls-109,.cls-11,.cls-110,.cls-111,.cls-112,.cls-113,.cls-114,.cls-115,.cls-116,.cls-117,.cls-118,.cls-119,.cls-120,.cls-121,.cls-122,.cls-123,.cls-124,.cls-125,.cls-126,.cls-127,.cls-128,.cls-129,.cls-13,.cls-130,.cls-131,.cls-132,.cls-133,.cls-134,.cls-135,.cls-136,.cls-137,.cls-138,.cls-139,.cls-14,.cls-140,.cls-141,.cls-142,.cls-143,.cls-145,.cls-146,.cls-147,.cls-149,.cls-150,.cls-151,.cls-152,.cls-153,.cls-16,.cls-39,.cls-40,.cls-41,.cls-42,.cls-43,.cls-44,.cls-45,.cls-46,.cls-47,.cls-48,.cls-49,.cls-50,.cls-51,.cls-52,.cls-53,.cls-54,.cls-55,.cls-56,.cls-57,.cls-58,.cls-59,.cls-6,.cls-60,.cls-61,.cls-62,.cls-63,.cls-64,.cls-65,.cls-66,.cls-67,.cls-68,.cls-69,.cls-7,.cls-70,.cls-71,.cls-72,.cls-73,.cls-74,.cls-75,.cls-76,.cls-77,.cls-78,.cls-79,.cls-80,.cls-81,.cls-82,.cls-83,.cls-84,.cls-85,.cls-86,.cls-87,.cls-88,.cls-89,.cls-90,.cls-91,.cls-92,.cls-93,.cls-94,.cls-95,.cls-96,.cls-97,.cls-98,.cls-99{fill:none;}.cls-6{stroke:#c1c1c1;}.cls-13,.cls-150,.cls-151,.cls-7{stroke:#0c7c34;}.cls-155,.cls-17,.cls-37,.cls-8{fill:#0c7c34;}.cls-17,.cls-19,.cls-20,.cls-9{opacity:0.5;}.cls-10,.cls-11,.cls-152,.cls-153{stroke:#0358d9;}.cls-11{stroke-dasharray:7.97 7.97;}.cls-12,.cls-144,.cls-154,.cls-20,.cls-22{fill:#0358d9;}.cls-13{stroke-dasharray:8.17 8.17;}.cls-14,.cls-147,.cls-149,.cls-16{stroke:#f01800;}.cls-15,.cls-156,.cls-18,.cls-19{fill:#f01800;}.cls-16{stroke-dasharray:7.95 7.95;}.cls-17,.cls-18,.cls-19,.cls-20,.cls-22,.cls-23,.cls-24,.cls-25,.cls-26,.cls-37{font-size:12px;}.cls-144,.cls-154,.cls-155,.cls-156,.cls-17,.cls-18,.cls-19,.cls-20,.cls-22,.cls-23,.cls-24,.cls-25,.cls-26,.cls-37{font-family:ArialMT, Arial;}.cls-154,.cls-21{letter-spacing:-0.02em;}.cls-23{fill:#1485b2;}.cls-24{fill:#e5820c;}.cls-25{fill:#e81341;}.cls-26{fill:#59ad36;}.cls-27{fill:url(#Orange);stroke:url(#Orange-2);}.cls-28{fill:url(#Orange-3);stroke:url(#Orange-4);}.cls-29{fill:url(#Orange-5);stroke:url(#Orange-6);}.cls-30{fill:url(#Orange-7);stroke:url(#Orange-8);}.cls-31{fill:url(#Red);stroke:url(#Red-2);}.cls-32{fill:url(#Red-3);stroke:url(#Red-4);}.cls-33{fill:url(#Red-5);stroke:url(#Red-6);}.cls-34{fill:url(#Red-7);stroke:url(#Red-8);}.cls-35{fill:url(#Yellow_Green);stroke:url(#Yellow_Green-2);}.cls-36{fill:url(#Yellow_Green-3);stroke:url(#Yellow_Green-4);}.cls-38{opacity:0.6;}.cls-100,.cls-101,.cls-102,.cls-103,.cls-104,.cls-105,.cls-106,.cls-107,.cls-108,.cls-109,.cls-110,.cls-111,.cls-112,.cls-113,.cls-114,.cls-115,.cls-116,.cls-117,.cls-118,.cls-119,.cls-120,.cls-121,.cls-122,.cls-123,.cls-124,.cls-125,.cls-126,.cls-127,.cls-128,.cls-129,.cls-130,.cls-131,.cls-132,.cls-133,.cls-134,.cls-135,.cls-136,.cls-137,.cls-138,.cls-139,.cls-140,.cls-141,.cls-142,.cls-143,.cls-146,.cls-39,.cls-40,.cls-41,.cls-42,.cls-43,.cls-44,.cls-45,.cls-46,.cls-47,.cls-48,.cls-49,.cls-50,.cls-51,.cls-52,.cls-53,.cls-54,.cls-55,.cls-56,.cls-57,.cls-58,.cls-59,.cls-60,.cls-61,.cls-62,.cls-63,.cls-64,.cls-65,.cls-66,.cls-67,.cls-68,.cls-69,.cls-70,.cls-71,.cls-72,.cls-73,.cls-74,.cls-75,.cls-76,.cls-77,.cls-78,.cls-79,.cls-80,.cls-81,.cls-82,.cls-83,.cls-84,.cls-85,.cls-86,.cls-87,.cls-88,.cls-89,.cls-90,.cls-91,.cls-92,.cls-93,.cls-94,.cls-95,.cls-96,.cls-97,.cls-98,.cls-99{stroke-width:0.5px;}.cls-39{stroke:url(#Blue);}.cls-40{stroke:url(#Blue-2);}.cls-41{stroke:url(#Blue-3);}.cls-42{stroke:url(#Blue-4);}.cls-43{stroke:url(#Blue-5);}.cls-44{stroke:url(#Blue-6);}.cls-45{stroke:url(#Blue-7);}.cls-46{stroke:url(#Blue-8);}.cls-47{stroke:url(#Blue-9);}.cls-48{stroke:url(#Blue-10);}.cls-49{stroke:url(#Blue-11);}.cls-50{stroke:url(#Blue-12);}.cls-51{stroke:url(#Blue-13);}.cls-52{stroke:url(#Blue-14);}.cls-53{stroke:url(#Blue-15);}.cls-54{stroke:url(#Blue-16);}.cls-55{stroke:url(#Blue-17);}.cls-56{stroke:url(#Blue-18);}.cls-57{stroke:url(#Blue-19);}.cls-58{stroke:url(#Blue-20);}.cls-59{stroke:url(#Blue-21);}.cls-60{stroke:url(#Blue-22);}.cls-61{stroke:url(#Blue-23);}.cls-62{stroke:url(#Blue-24);}.cls-63{stroke:url(#Blue-25);}.cls-64{stroke:url(#Blue-26);}.cls-65{stroke:url(#Blue-27);}.cls-66{stroke:url(#Blue-28);}.cls-67{stroke:url(#Blue-29);}.cls-68{stroke:url(#Blue-30);}.cls-69{stroke:url(#Blue-31);}.cls-70{stroke:url(#Blue-32);}.cls-71{stroke:url(#Blue-33);}.cls-72{stroke:url(#Blue-34);}.cls-73{stroke:url(#Blue-35);}.cls-74{stroke:url(#Blue-36);}.cls-75{stroke:url(#Blue-37);}.cls-76{stroke:url(#Blue-38);}.cls-77{stroke:url(#Blue-39);}.cls-78{stroke:url(#Blue-40);}.cls-79{stroke:url(#Blue-41);}.cls-80{stroke:url(#Blue-42);}.cls-81{stroke:url(#Blue-43);}.cls-82{stroke:url(#Blue-44);}.cls-83{stroke:url(#Blue-45);}.cls-84{stroke:url(#Blue-46);}.cls-85{stroke:url(#Blue-47);}.cls-86{stroke:url(#Blue-48);}.cls-87{stroke:url(#Blue-49);}.cls-88{stroke:url(#Blue-50);}.cls-89{stroke:url(#Blue-51);}.cls-90{stroke:url(#Blue-52);}.cls-91{stroke:url(#Blue-53);}.cls-92{stroke:url(#Blue-54);}.cls-93{stroke:url(#Blue-55);}.cls-94{stroke:url(#Blue-56);}.cls-95{stroke:url(#Blue-57);}.cls-96{stroke:url(#Blue-58);}.cls-97{stroke:url(#Blue-59);}.cls-98{stroke:url(#Blue-60);}.cls-99{stroke:url(#Blue-61);}.cls-100{stroke:url(#Blue-62);}.cls-101{stroke:url(#Blue-63);}.cls-102{stroke:url(#Blue-64);}.cls-103{stroke:url(#Blue-65);}.cls-104{stroke:url(#Blue-66);}.cls-105{stroke:url(#Blue-67);}.cls-106{stroke:url(#Blue-68);}.cls-107{stroke:url(#Blue-69);}.cls-108{stroke:url(#Blue-70);}.cls-109{stroke:url(#Blue-71);}.cls-110{stroke:url(#Blue-72);}.cls-111{stroke:url(#Blue-73);}.cls-112{stroke:url(#Blue-74);}.cls-113{stroke:url(#Blue-75);}.cls-114{stroke:url(#Blue-76);}.cls-115{stroke:url(#Blue-77);}.cls-116{stroke:url(#Blue-78);}.cls-117{stroke:url(#Blue-79);}.cls-118{stroke:url(#Blue-80);}.cls-119{stroke:url(#Blue-81);}.cls-120{stroke:url(#Blue-82);}.cls-121{stroke:url(#Blue-83);}.cls-122{stroke:url(#Blue-84);}.cls-123{stroke:url(#Blue-85);}.cls-124{stroke:url(#Blue-86);}.cls-125{stroke:url(#Blue-87);}.cls-126{stroke:url(#Blue-88);}.cls-127{stroke:url(#Blue-89);}.cls-128{stroke:url(#Blue-90);}.cls-129{stroke:url(#Blue-91);}.cls-130{stroke:url(#Blue-92);}.cls-131{stroke:url(#Blue-93);}.cls-132{stroke:url(#Blue-94);}.cls-133{stroke:url(#Blue-95);}.cls-134{stroke:url(#Blue-96);}.cls-135{stroke:url(#Blue-97);}.cls-136{stroke:url(#Blue-98);}.cls-137{stroke:url(#Blue-99);}.cls-138{stroke:url(#Blue-100);}.cls-139{stroke:url(#Blue-101);}.cls-140{stroke:url(#Blue-102);}.cls-141{stroke:url(#Blue-103);}.cls-142{stroke:url(#Blue-104);}.cls-143{stroke:url(#Blue-105);}.cls-144{font-size:10px;}.cls-145{stroke:#000;}.cls-145,.cls-147,.cls-149,.cls-150,.cls-151,.cls-152,.cls-153{stroke-width:0.3px;}.cls-146{stroke:url(#Blue-106);}.cls-148{opacity:0.3;}.cls-149{stroke-dasharray:0.94 0.94;}.cls-151{stroke-dasharray:0.94 0.94;}.cls-153{stroke-dasharray:1.06 1.06;}.cls-154,.cls-155,.cls-156{font-size:2px;}</style><linearGradient id="Turquoise" x1="267.14" y1="238.51" x2="280.82" y2="238.51" gradientUnits="userSpaceOnUse"><stop offset="0.01" stop-color="#3eb0ca"/><stop offset="0.5" stop-color="#0099b9"/><stop offset="0.99" stop-color="#007c84"/></linearGradient><linearGradient id="Turquoise-2" x1="265.65" y1="238.5" x2="282.31" y2="238.5" xlink:href="#Turquoise"/><linearGradient id="Turquoise-3" x1="267.26" y1="240.54" x2="276.56" y2="240.54" xlink:href="#Turquoise"/><linearGradient id="Turquoise-4" x1="265.82" y1="241.08" x2="276.57" y2="241.08" xlink:href="#Turquoise"/><linearGradient id="Turquoise-5" x1="271.82" y1="210.4" x2="317.26" y2="210.4" xlink:href="#Turquoise"/><linearGradient id="Turquoise-6" x1="270.62" y1="210.1" x2="318.76" y2="210.1" xlink:href="#Turquoise"/><linearGradient id="Turquoise-7" x1="312.13" y1="183.65" x2="316.89" y2="183.65" xlink:href="#Turquoise"/><linearGradient id="Turquoise-8" x1="310.63" y1="184.04" x2="317.64" y2="184.04" xlink:href="#Turquoise"/><linearGradient id="Orange" x1="370.75" y1="162.12" x2="385.29" y2="162.12" gradientUnits="userSpaceOnUse"><stop offset="0" stop-color="#f69453"/><stop offset="0.5" stop-color="#f37521"/><stop offset="1" stop-color="#d4622a"/></linearGradient><linearGradient id="Orange-2" x1="369.25" y1="162.12" x2="385.95" y2="162.12" xlink:href="#Orange"/><linearGradient id="Orange-3" x1="377.57" y1="161.3" x2="382.08" y2="161.3" xlink:href="#Orange"/><linearGradient id="Orange-4" x1="376.8" y1="160.99" x2="383.57" y2="160.99" xlink:href="#Orange"/><linearGradient id="Orange-5" x1="312.67" y1="172.16" x2="377.44" y2="172.16" xlink:href="#Orange"/><linearGradient id="Orange-6" x1="311.19" y1="172.2" x2="377.91" y2="172.2" xlink:href="#Orange"/><linearGradient id="Orange-7" x1="313.95" y1="182.12" x2="316.86" y2="182.12" xlink:href="#Orange"/><linearGradient id="Orange-8" x1="313.94" y1="182.01" x2="318.35" y2="182.01" xlink:href="#Orange"/><linearGradient id="Red" x1="310.12" y1="180.35" x2="313.03" y2="180.35" gradientUnits="userSpaceOnUse"><stop offset="0" stop-color="#f37f7b"/><stop offset="0.5" stop-color="#ed3d57"/><stop offset="1" stop-color="#dd1e47"/></linearGradient><linearGradient id="Red-2" x1="308.63" y1="180.25" x2="313.03" y2="180.25" xlink:href="#Red"/><linearGradient id="Red-3" x1="242.84" y1="162.72" x2="257.39" y2="162.72" xlink:href="#Red"/><linearGradient id="Red-4" x1="241.52" y1="162.72" x2="258.88" y2="162.72" xlink:href="#Red"/><linearGradient id="Red-5" x1="245.79" y1="161.9" x2="250.2" y2="161.9" xlink:href="#Red"/><linearGradient id="Red-6" x1="244.29" y1="161.61" x2="250.97" y2="161.61" xlink:href="#Red"/><linearGradient id="Red-7" x1="250.62" y1="171.6" x2="314.41" y2="171.6" xlink:href="#Red"/><linearGradient id="Red-8" x1="250.2" y1="171.63" x2="315.88" y2="171.63" xlink:href="#Red"/><linearGradient id="Yellow_Green" x1="311.37" y1="137.27" x2="319.96" y2="137.27" gradientUnits="userSpaceOnUse"><stop offset="0" stop-color="#d1e4a5"/><stop offset="0.5" stop-color="#acd479"/><stop offset="1" stop-color="#76b83f"/></linearGradient><linearGradient id="Yellow_Green-2" x1="310.91" y1="137.27" x2="320.31" y2="137.27" xlink:href="#Yellow_Green"/><linearGradient id="Yellow_Green-3" x1="308.45" y1="86.47" x2="322.03" y2="78.63" xlink:href="#Yellow_Green"/><linearGradient id="Yellow_Green-4" x1="308.04" y1="86.75" x2="322.26" y2="78.54" xlink:href="#Yellow_Green"/><linearGradient id="Blue" x1="464.77" y1="10.71" x2="466.76" y2="10.71" gradientUnits="userSpaceOnUse"><stop offset="0" stop-color="#2bc4f3"/><stop offset="0.5" stop-color="#00aeee"/><stop offset="1" stop-color="#0095da"/></linearGradient><linearGradient id="Blue-2" x1="463" y1="56.11" x2="620.24" y2="56.11" xlink:href="#Blue"/><linearGradient id="Blue-3" x1="465.19" y1="9.76" x2="466.75" y2="9.76" xlink:href="#Blue"/><linearGradient id="Blue-4" x1="465.74" y1="8.72" x2="466.72" y2="8.72" xlink:href="#Blue"/><linearGradient id="Blue-5" x1="466.27" y1="7.65" x2="466.77" y2="7.65" xlink:href="#Blue"/><linearGradient id="Blue-6" x1="466.27" y1="6.63" x2="467.38" y2="6.63" xlink:href="#Blue"/><linearGradient id="Blue-7" x1="466.28" y1="5.73" x2="467.99" y2="5.73" xlink:href="#Blue"/><linearGradient id="Blue-8" x1="466.28" y1="4.72" x2="468.78" y2="4.72" xlink:href="#Blue"/><linearGradient id="Blue-9" x1="466.28" y1="4.39" x2="469.18" y2="4.39" xlink:href="#Blue"/><linearGradient id="Blue-10" x1="466.28" y1="4.21" x2="469.51" y2="4.21" xlink:href="#Blue"/><linearGradient id="Blue-11" x1="466.29" y1="4.59" x2="469.53" y2="4.59" xlink:href="#Blue"/><linearGradient id="Blue-12" x1="466.29" y1="5.14" x2="469.41" y2="5.14" xlink:href="#Blue"/><linearGradient id="Blue-13" x1="468.67" y1="1.79" x2="470.42" y2="1.79" xlink:href="#Blue"/><linearGradient id="Blue-14" x1="466.3" y1="5.94" x2="469.14" y2="5.94" xlink:href="#Blue"/><linearGradient id="Blue-15" x1="468.25" y1="2.82" x2="471.47" y2="2.82" xlink:href="#Blue"/><linearGradient id="Blue-16" x1="466.32" y1="6.94" x2="468.69" y2="6.94" xlink:href="#Blue"/><linearGradient id="Blue-17" x1="467.7" y1="3.96" x2="475.53" y2="3.96" xlink:href="#Blue"/><linearGradient id="Blue-18" x1="577.17" y1="14.29" x2="601.49" y2="14.29" xlink:href="#Blue"/><linearGradient id="Blue-19" x1="601.08" y1="3.51" x2="601.93" y2="3.51" xlink:href="#Blue"/><linearGradient id="Blue-20" x1="595.25" y1="20.65" x2="615.52" y2="20.65" xlink:href="#Blue"/><linearGradient id="Blue-21" x1="615.15" y1="6.71" x2="616.11" y2="6.71" xlink:href="#Blue"/><linearGradient id="Blue-22" x1="609.76" y1="27" x2="620.17" y2="27" xlink:href="#Blue"/><linearGradient id="Blue-23" x1="556.69" y1="10.68" x2="561.83" y2="10.68" xlink:href="#Blue"/><linearGradient id="Blue-24" x1="482.85" y1="4.31" x2="485.37" y2="4.31" xlink:href="#Blue"/><linearGradient id="Blue-25" x1="514.34" y1="6.73" x2="518.1" y2="6.73" xlink:href="#Blue"/><linearGradient id="Blue-26" x1="535.69" y1="6.94" x2="539.33" y2="6.94" xlink:href="#Blue"/><linearGradient id="Blue-27" x1="466.43" y1="8.05" x2="468.03" y2="8.05" xlink:href="#Blue"/><linearGradient id="Blue-28" x1="467.07" y1="8.6" x2="473.57" y2="8.6" xlink:href="#Blue"/><linearGradient id="Blue-29" x1="471.32" y1="10.83" x2="483.25" y2="10.83" xlink:href="#Blue"/><linearGradient id="Blue-30" x1="595.41" y1="38.09" x2="610.09" y2="38.09" xlink:href="#Blue"/><linearGradient id="Blue-31" x1="479.43" y1="14.11" x2="497.07" y2="14.11" xlink:href="#Blue"/><linearGradient id="Blue-32" x1="599.12" y1="54.86" x2="620.26" y2="54.86" xlink:href="#Blue"/><linearGradient id="Blue-33" x1="496.79" y1="5.09" x2="499.75" y2="5.09" xlink:href="#Blue"/><linearGradient id="Blue-34" x1="491.57" y1="18.65" x2="514.63" y2="18.65" xlink:href="#Blue"/><linearGradient id="Blue-35" x1="507.4" y1="24.31" x2="519.76" y2="24.31" xlink:href="#Blue"/><linearGradient id="Blue-36" x1="584.93" y1="48.11" x2="595.57" y2="48.11" xlink:href="#Blue"/><linearGradient id="Blue-37" x1="466.29" y1="9.19" x2="467.54" y2="9.19" xlink:href="#Blue"/><linearGradient id="Blue-38" x1="466.42" y1="12.29" x2="471.73" y2="12.29" xlink:href="#Blue"/><linearGradient id="Blue-39" x1="584.22" y1="63.91" x2="584.8" y2="63.91" xlink:href="#Blue"/><linearGradient id="Blue-40" x1="469.22" y1="17.77" x2="479.81" y2="17.77" xlink:href="#Blue"/><linearGradient id="Blue-41" x1="584.39" y1="65.79" x2="599.4" y2="65.79" xlink:href="#Blue"/><linearGradient id="Blue-42" x1="475.68" y1="25.9" x2="491.93" y2="25.9" xlink:href="#Blue"/><linearGradient id="Blue-43" x1="585.2" y1="78.41" x2="610.36" y2="78.41" xlink:href="#Blue"/><linearGradient id="Blue-44" x1="485.91" y1="35.14" x2="507.75" y2="35.14" xlink:href="#Blue"/><linearGradient id="Blue-45" x1="597.17" y1="78.62" x2="617.44" y2="78.62" xlink:href="#Blue"/><linearGradient id="Blue-46" x1="499.65" y1="44.98" x2="512.47" y2="44.98" xlink:href="#Blue"/><linearGradient id="Blue-47" x1="534.38" y1="65.03" x2="545.35" y2="65.03" xlink:href="#Blue"/><linearGradient id="Blue-48" x1="552.84" y1="72.08" x2="565.28" y2="72.08" xlink:href="#Blue"/><linearGradient id="Blue-49" x1="570.16" y1="75.73" x2="584.51" y2="75.73" xlink:href="#Blue"/><linearGradient id="Blue-50" x1="605.79" y1="79.87" x2="616.01" y2="79.87" xlink:href="#Blue"/><linearGradient id="Blue-51" x1="516.19" y1="56.78" x2="524.86" y2="56.78" xlink:href="#Blue"/><linearGradient id="Blue-52" x1="516.29" y1="70.55" x2="534.71" y2="70.55" xlink:href="#Blue"/><linearGradient id="Blue-53" x1="522.56" y1="83.43" x2="553.14" y2="83.43" xlink:href="#Blue"/><linearGradient id="Blue-54" x1="466.27" y1="10.26" x2="466.91" y2="10.26" xlink:href="#Blue"/><linearGradient id="Blue-55" x1="465.8" y1="16.67" x2="469.69" y2="16.67" xlink:href="#Blue"/><linearGradient id="Blue-56" x1="539.28" y1="90.86" x2="570.43" y2="90.86" xlink:href="#Blue"/><linearGradient id="Blue-57" x1="467.23" y1="26.36" x2="476.12" y2="26.36" xlink:href="#Blue"/><linearGradient id="Blue-58" x1="555.55" y1="95.31" x2="585.42" y2="95.31" xlink:href="#Blue"/><linearGradient id="Blue-59" x1="472.12" y1="37.26" x2="486.32" y2="37.26" xlink:href="#Blue"/><linearGradient id="Blue-60" x1="570.4" y1="96.26" x2="597.41" y2="96.26" xlink:href="#Blue"/><linearGradient id="Blue-61" x1="480.52" y1="48.82" x2="500.04" y2="48.82" xlink:href="#Blue"/><linearGradient id="Blue-62" x1="583.1" y1="93.58" x2="606.12" y2="93.58" xlink:href="#Blue"/><linearGradient id="Blue-63" x1="492.18" y1="67.89" x2="516.63" y2="67.89" xlink:href="#Blue"/><linearGradient id="Blue-64" x1="506.56" y1="86.39" x2="522.88" y2="86.39" xlink:href="#Blue"/><linearGradient id="Blue-65" x1="517.14" y1="95.27" x2="539.55" y2="95.27" xlink:href="#Blue"/><linearGradient id="Blue-66" x1="465.78" y1="11.18" x2="466.77" y2="11.18" xlink:href="#Blue"/><linearGradient id="Blue-67" x1="465.51" y1="20.31" x2="467.71" y2="20.31" xlink:href="#Blue"/><linearGradient id="Blue-68" x1="532.99" y1="101.42" x2="555.77" y2="101.42" xlink:href="#Blue"/><linearGradient id="Blue-69" x1="466.33" y1="33.55" x2="472.58" y2="33.55" xlink:href="#Blue"/><linearGradient id="Blue-70" x1="548.67" y1="105.46" x2="570.56" y2="105.46" xlink:href="#Blue"/><linearGradient id="Blue-71" x1="470.53" y1="47.62" x2="480.96" y2="47.62" xlink:href="#Blue"/><linearGradient id="Blue-72" x1="563.32" y1="105.07" x2="583.32" y2="105.07" xlink:href="#Blue"/><linearGradient id="Blue-73" x1="478.11" y1="61.72" x2="492.58" y2="61.72" xlink:href="#Blue"/><linearGradient id="Blue-74" x1="563.42" y1="102.68" x2="593.49" y2="102.68" xlink:href="#Blue"/><linearGradient id="Blue-75" x1="488.82" y1="77.46" x2="506.89" y2="77.46" xlink:href="#Blue"/><linearGradient id="Blue-76" x1="502.14" y1="91.44" x2="517.45" y2="91.44" xlink:href="#Blue"/><linearGradient id="Blue-77" x1="507.91" y1="100.25" x2="533.24" y2="100.25" xlink:href="#Blue"/><linearGradient id="Blue-78" x1="465.5" y1="11.56" x2="466.77" y2="11.56" xlink:href="#Blue"/><linearGradient id="Blue-79" x1="465.02" y1="21.76" x2="466.81" y2="21.76" xlink:href="#Blue"/><linearGradient id="Blue-80" x1="522.13" y1="105.86" x2="548.86" y2="105.86" xlink:href="#Blue"/><linearGradient id="Blue-81" x1="464.82" y1="36.31" x2="470.99" y2="36.31" xlink:href="#Blue"/><linearGradient id="Blue-82" x1="522.1" y1="109.6" x2="563.54" y2="109.6" xlink:href="#Blue"/><linearGradient id="Blue-83" x1="467.87" y1="51.42" x2="478.54" y2="51.42" xlink:href="#Blue"/><linearGradient id="Blue-84" x1="474.09" y1="66.25" x2="489.22" y2="66.25" xlink:href="#Blue"/><linearGradient id="Blue-85" x1="483.2" y1="82.36" x2="502.46" y2="82.36" xlink:href="#Blue"/><linearGradient id="Blue-86" x1="494.64" y1="96.13" x2="508.12" y2="96.13" xlink:href="#Blue"/><linearGradient id="Blue-87" x1="500.9" y1="103.49" x2="522.27" y2="103.49" xlink:href="#Blue"/><linearGradient id="Blue-88" x1="465" y1="12.12" x2="466.77" y2="12.12" xlink:href="#Blue"/><linearGradient id="Blue-89" x1="464.49" y1="23.83" x2="465.49" y2="23.83" xlink:href="#Blue"/><linearGradient id="Blue-90" x1="463.8" y1="39.99" x2="468.32" y2="39.99" xlink:href="#Blue"/><linearGradient id="Blue-91" x1="466.12" y1="56.11" x2="474.5" y2="56.11" xlink:href="#Blue"/><linearGradient id="Blue-92" x1="471.39" y1="71.35" x2="483.55" y2="71.35" xlink:href="#Blue"/><linearGradient id="Blue-93" x1="479.19" y1="84.99" x2="494.98" y2="84.99" xlink:href="#Blue"/><linearGradient id="Blue-94" x1="464.63" y1="12.4" x2="466.77" y2="12.4" xlink:href="#Blue"/><linearGradient id="Blue-95" x1="463.71" y1="24.66" x2="465.12" y2="24.66" xlink:href="#Blue"/><linearGradient id="Blue-96" x1="463.14" y1="40.98" x2="466.44" y2="40.98" xlink:href="#Blue"/><linearGradient id="Blue-97" x1="464.92" y1="56.41" x2="471.64" y2="56.41" xlink:href="#Blue"/><linearGradient id="Blue-98" x1="470.26" y1="71.22" x2="479.48" y2="71.22" xlink:href="#Blue"/><linearGradient id="Blue-99" x1="477.65" y1="80.81" x2="484.25" y2="80.81" xlink:href="#Blue"/><linearGradient id="Blue-100" x1="464.42" y1="12.38" x2="466.76" y2="12.38" xlink:href="#Blue"/><linearGradient id="Blue-101" x1="463.11" y1="24.17" x2="464.91" y2="24.17" xlink:href="#Blue"/><linearGradient id="Blue-102" x1="463" y1="35.99" x2="464.14" y2="35.99" xlink:href="#Blue"/><linearGradient id="Blue-103" x1="463.29" y1="15.74" x2="466.76" y2="15.74" xlink:href="#Blue"/><linearGradient id="Blue-104" x1="616.62" y1="33.95" x2="617.12" y2="33.95" xlink:href="#Blue"/><linearGradient id="Blue-105" x1="465.76" y1="0.31" x2="616.87" y2="0.31" xlink:href="#Blue"/><linearGradient id="Blue-106" x1="613.96" y1="68.34" x2="616.98" y2="68.34" xlink:href="#Blue"/></defs><title>orientation_fusion</title><g id="new_magneto" data-name="new magneto"><path class="cls-1" d="M274.94,232l-.87-.31-1.33-.24h-1.28l-1.19.24-1,.47-.87.68-.65.87-.41,1-.15,1.14.11,1.21.85,8.46,8.45-1.6,1.19-.25,1-.48.86-.7.64-.88.4-1,.14-1.14-.12-1.21-.38-1.23-.62-1.2-.43-.58" transform="translate(-3.16 0.25)"/><path class="cls-2" d="M276.56,244h-1.29l-1.34-.23-1.34-.47-1.29-.68-1.18-.87-1-1-.84-1.14-.62-1.21-.37-1.24" transform="translate(-3.16 0.25)"/><path class="cls-3" d="M275.93,239.72l3.34-4.44,6-8,6-8,6-8,6-8,6-8,6-8,1.54-2,.37-.7,0-.87-.4-.92-.73-.82-.94-.6-1-.29-.93.06-.71.41-6,8-6,8-6,8-6,8-6,8-6,8L274.94,232l-3.12,4.19" transform="translate(-3.16 0.25)"/><path class="cls-4" d="M316.89,185.28l-.71.41-.93.06-1-.29-.95-.61-.73-.83-.4-.92,0-.87.38-.69" transform="translate(-3.16 0.25)"/></g><g id="grid"><g id="strokes" class="cls-5"><path class="cls-6" d="M284.81,332.88l6.82-3.05,6.82-3.05,6.82-3.05,6.82-3.05,6.82-3.05,6.82-3.05,6.82-3.05,6.82-3.05,7-3.13,6.82-3.06,6.82-3.05,6.82-3.05,6.82-3.05,6.82-3.05,6.82-3.05,6.82-3.05,5.87-2.63,6.82-3.05,6.82-3.06,6.82-3.05,6.82-3.05,6.82-3.05L440.9,263l6.2-2.78,6.82-3.05,6.82-3.05,6.82-3.05,6.82-3.05,6.82-3.05,6.82-3.05.81-.37,6.82-3.05,6.82-3.05,6.82-3.05,6.82-3.05,6.82-3.05,3.13-1.4,6.82-3.05,6.82-3.05,6.82-3.05,6.82-3.05,6.13-2.75,6.82-3.05,6.82-3.05,6.82-3.05,6.82-3.05,2.87-1.29,6.82-3.05,6.82-3.05,6.82-3.05,6.89-3.09-7.27-1.69-7.27-1.69L595.18,179l-7.27-1.69-7.27-1.69L573.38,174l-5.32-1.24L560.8,171l-7.27-1.69-7.27-1.69L539,166l-7.27-1.69-7.27-1.69-1.08-.25-7.27-1.69-7.27-1.69-7.27-1.69-7.27-1.69-7.27-1.69-4.63-1.08-7.27-1.69-7.27-1.69-7.27-1.69L453.37,146l-7.27-1.69-1.36-.32-7.27-1.69-7.27-1.69-7.27-1.69-7.27-1.69L410,135.9l-7.27-1.69-7.27-1.69-7.27-1.69-7.27-1.69-3.16-.74-7.27-1.69L363.2,125l-7.27-1.69-7.27-1.69-.86-.2-7.27-1.69L333.27,118,326,116.35l-6.07-1.41-7.3,1.55-7.3,1.55-7.3,1.55-7.3,1.55-.72.15-7.3,1.55-7.3,1.55-7.3,1.55-7.3,1.55-2.88.61-7.3,1.55-7.3,1.55-7.3,1.55-7.3,1.55-5.29,1.12-7.3,1.55-7.3,1.55-7.3,1.55-7.3,1.55-7.3,1.55-.68.14-7.3,1.55-7.3,1.55-7.3,1.55-7.3,1.55-7.3,1.55-3.69.78-7.3,1.55-7.3,1.55-7.3,1.55L117,158l-7.3,1.55-7.08,1.5-7.3,1.55L88,164.15l-7.3,1.55-7.3,1.55-7.3,1.55-7.3,1.55-3.62.77-7.3,1.55-7.3,1.55-7.3,1.55L26,177.31l-7.3,1.55-7.3,1.55L4.09,182l-.7.15L10,185.63l6.59,3.53,6.59,3.53,3.22,1.73L33,198l6.59,3.53L46.17,205l5.62,3,6.59,3.53L65,215.1l6.59,3.53,6.59,3.53,1.81,1,6.59,3.53,6.59,3.53,6.59,3.53,6.59,3.53,5.08,2.72,6.59,3.53,6.59,3.53,6.59,3.53,6.59,3.53,6.59,3.53,2.37,1.27,6.59,3.53,6.59,3.53,6.59,3.53,6.59,3.53,6.59,3.53,6.59,3.53.42.22,6.59,3.53,6.59,3.53,6.59,3.53,6.59,3.53,6.59,3.53,6.59,3.53,6,3.23,6.59,3.53,6.59,3.53,6.59,3.53,6.59,3.53,6.59,3.53,6.59,3.53,6.59,3.53,6.34,3.4" transform="translate(-3.16 0.25)"/><path class="cls-6" d="M346.36,305.32l-6.79-3.13-6.79-3.13L326,295.93l-6.79-3.13-6.79-3.13-6.79-3.13-6.79-3.13-5.64-2.6" transform="translate(-3.16 0.25)"/><path class="cls-6" d="M293.2,280.82l-7,2.73-7,2.73-7,2.73-7,2.73-7,2.73-7,2.73-7,2.73-7,2.73-5.27,2.07" transform="translate(-3.16 0.25)"/><path class="cls-6" d="M400,281.31l-6.93-2.8-6.93-2.8-6.92-2.8-6.93-2.8-6.93-2.8-6.93-2.8-6.93-2.8-4.78-1.93" transform="translate(-3.16 0.25)"/><path class="cls-6" d="M346.72,259.77l-7,2.73-7,2.73-7,2.73-7,2.73-7,2.73-7,2.73-7,2.73-4.86,1.91-6.79-3.13-6.79-3.13-6.79-3.13L266,268.3l-6.79-3.13L252.47,262l-5.87-2.71" transform="translate(-3.16 0.25)"/><path class="cls-6" d="M447.1,260.2l-7-2.53-7-2.53-7-2.53-7-2.53-7-2.53-7-2.53-7-2.53-3.78-1.36" transform="translate(-3.16 0.25)"/><path class="cls-6" d="M394.13,241.13l-7,2.73-7,2.73-7,2.73-7,2.73-7,2.73-7,2.73-5.7,2.24-6.93-2.8-6.93-2.8-6.93-2.8-6.93-2.8-6.93-2.8-6.93-2.8-5.5-2.23" transform="translate(-3.16 0.25)"/><path class="cls-6" d="M488.83,241.51l-7.1-2.31-7.1-2.31-7.1-2.3-7.1-2.31-7.1-2.31-7.1-2.31-7.1-2.31-2.7-.88" transform="translate(-3.16 0.25)"/><path class="cls-6" d="M436.42,224.49l-7,2.73-7,2.73-7,2.73-7,2.73-7,2.73-7,2.73-.59.23-7-2.53-7-2.53-7-2.53L366,231l-7-2.53-7-2.53-5-1.79" transform="translate(-3.16 0.25)"/><path class="cls-6" d="M526.06,224.84l-7.16-2.12-7.16-2.12-7.16-2.11-7.16-2.12-7.16-2.12-7.16-2.12L476,210l-1.57-.46" transform="translate(-3.16 0.25)"/><path class="cls-6" d="M474.39,209.56l-7,2.73-7,2.73-7,2.73-7,2.73-7,2.73-3.21,1.26-7.1-2.31-7.1-2.31-7.1-2.31-7.1-2.31-7.1-2.3-7.1-2.31-4.33-1.41" transform="translate(-3.16 0.25)"/><path class="cls-6" d="M559.47,209.87l-7.2-2-7.2-2-7.2-2-7.2-2-7.2-2-7.2-2-7.6-2.06" transform="translate(-3.16 0.25)"/><path class="cls-6" d="M508.66,196.09l-7,2.73-7,2.73-7,2.73-7,2.73-6.46,2.54-7.16-2.12-7.16-2.12-7.16-2.12-7.16-2.12L438.6,199l-7.16-2.12-3.59-1.06" transform="translate(-3.16 0.25)"/><path class="cls-6" d="M589.63,196.37l-7.24-1.81-7.24-1.81-7.24-1.81-7.24-1.81-7.24-1.81-7.24-1.81-6.46-1.62" transform="translate(-3.16 0.25)"/><path class="cls-6" d="M539.74,183.86l-7,2.73-7,2.73-7,2.73-7,2.73-3.28,1.29-7.2-2-7.2-2-7.2-2-7.2-2-7.2-2-7.2-2-2.79-.76" transform="translate(-3.16 0.25)"/><path class="cls-6" d="M568.06,172.72l-7,2.73-7,2.73-7,2.73-7,2.73-.52.2L532.5,182l-7.24-1.81L518,178.42l-7.24-1.81-7.24-1.81L496.31,173l-1.94-.49" transform="translate(-3.16 0.25)"/><path class="cls-6" d="M246.6,259.34l-7,2.47-7,2.47-7,2.47-7,2.47-7,2.47-7,2.47-7,2.47-7,2.47-3.51,1.23" transform="translate(-3.16 0.25)"/><path class="cls-6" d="M299.66,240.74l-7,2.47-7,2.47-7,2.47-7,2.47-7,2.47-7,2.47-7,2.47-3.73,1.31-6.79-3.13L233,253.09,226.24,250l-6.79-3.13-6.79-3.13-6.79-3.13-.45-.21" transform="translate(-3.16 0.25)"/><path class="cls-6" d="M347,224.15l-7,2.47-7,2.47-7,2.47-7,2.47-7,2.47-7,2.47-5.06,1.77-6.93-2.8-6.93-2.8-6.93-2.8-6.93-2.8-6.93-2.8-7.25-2.93" transform="translate(-3.16 0.25)"/><path class="cls-6" d="M389.49,209.26l-7,2.47-7,2.47-7,2.47-7,2.47-7,2.47L347,224.15l-7-2.53-7-2.53-7-2.53-7-2.53-7-2.53-7.08-2.55" transform="translate(-3.16 0.25)"/><path class="cls-6" d="M427.85,195.81l-7,2.47-7,2.47-7,2.47-7,2.47-7,2.47-3.13,1.1-7.1-2.31-7.1-2.31-7.1-2.31-7.1-2.31-7.1-2.3-6.77-2.2" transform="translate(-3.16 0.25)"/><path class="cls-6" d="M462.65,183.61l-7,2.47-7,2.47-7,2.47-7,2.47-6.61,2.32-7.16-2.12-7.16-2.12-7.16-2.12-7.16-2.12-7.16-2.12-6.34-1.87" transform="translate(-3.16 0.25)"/><path class="cls-6" d="M494.37,172.49l-7,2.47-7,2.47-7,2.47-7,2.47-3.53,1.24-7.2-2-7.2-2-7.2-2-7.2-2-7.2-2-5.83-1.58" transform="translate(-3.16 0.25)"/><path class="cls-6" d="M523.39,162.32l-7,2.47-7,2.47-7,2.47-7,2.47-.83.29-7.24-1.81-7.24-1.81-7.24-1.81-7.24-1.81-7.24-1.81-5.25-1.32" transform="translate(-3.16 0.25)"/><path class="cls-6" d="M205.42,240.36l-7.12,2.25-7.12,2.25-7.12,2.25L177,249.37l-7.12,2.25-7.12,2.25-7.12,2.25-7.12,2.25-1.73.55" transform="translate(-3.16 0.25)"/><path class="cls-6" d="M257.78,223.81l-7.12,2.25-7.12,2.25-7.12,2.25-7.12,2.25-7.12,2.25-7.12,2.25L208,239.56l-2.53.8-6.79-3.13-6.79-3.13L185.06,231l-6.79-3.13-6.79-3.13-2.71-1.25" transform="translate(-3.16 0.25)"/><path class="cls-6" d="M304.79,208.95l-7.12,2.25-7.12,2.25-7.12,2.25L276.32,218l-7.12,2.25-7.12,2.25-4.3,1.36-6.93-2.8-6.93-2.8-6.93-2.8-6.93-2.8-6.93-2.8-2.89-1.17" transform="translate(-3.16 0.25)"/><path class="cls-6" d="M347.22,195.53l-7.12,2.25L333,200l-7.12,2.25-7.12,2.25-7.12,2.25-6.85,2.17-7-2.53-7-2.53-7-2.53-7-2.53-7-2.53-2.89-1" transform="translate(-3.16 0.25)"/><path class="cls-6" d="M385.73,183.36l-7.12,2.25-7.12,2.25-7.12,2.25-7.12,2.25-7.12,2.25-2.91.92-7.1-2.31-7.1-2.31-7.1-2.31-7.1-2.31-7.1-2.3-2.77-.9" transform="translate(-3.16 0.25)"/><path class="cls-6" d="M420.82,172.26l-7.12,2.25-7.12,2.25L399.46,179l-7.12,2.25-6.62,2.09-7.16-2.12-7.16-2.12L364.25,177l-7.16-2.12-7.16-2.12-2.53-.75" transform="translate(-3.16 0.25)"/><path class="cls-6" d="M452.93,162.11l-7.12,2.25-7.12,2.25-7.12,2.25-7.12,2.25-3.64,1.15-7.2-2-7.2-2-7.2-2-7.2-2-7.2-2-2.2-.6" transform="translate(-3.16 0.25)"/><path class="cls-6" d="M482.43,152.78,475.32,155l-7.12,2.25-7.12,2.25L454,161.78l-1,.33-7.24-1.81-7.24-1.81-7.24-1.81L424,154.85,416.74,153l-1.81-.45" transform="translate(-3.16 0.25)"/><path class="cls-6" d="M168.77,223.47l-7.17,2.07-7.17,2.06-7.17,2.07-7.17,2.06-7.17,2.06-7.17,2.07-7.17,2.06L111.42,240" transform="translate(-3.16 0.25)"/><path class="cls-6" d="M220.27,208.64l-7.17,2.07-7.17,2.06-7.17,2.06-7.17,2.07L184.41,219,177.23,221l-7.17,2.06-1.29.37L162,220.34l-6.79-3.13-6.79-3.13L141.62,211l-5.68-2.62" transform="translate(-3.16 0.25)"/><path class="cls-6" d="M266.76,195.25l-7.17,2.07-7.17,2.06-7.17,2.06-7.17,2.07-7.17,2.06-7.17,2.06-3.46,1-6.93-2.8-6.93-2.8-6.93-2.8-6.93-2.8L186.47,195" transform="translate(-3.16 0.25)"/><path class="cls-6" d="M309,183.11l-7.17,2.06-7.17,2.06-7.17,2.07-7.17,2.06-7.17,2.06-6.33,1.82-7-2.53-7-2.53-7-2.53-7-2.53-6.33-2.28" transform="translate(-3.16 0.25)"/><path class="cls-6" d="M347.41,172l-7.17,2.06-7.17,2.07-7.17,2.06-7.17,2.07-7.17,2.06-2.6.75-7.1-2.31-7.1-2.31-7.1-2.31-7.1-2.31-6.41-2.08" transform="translate(-3.16 0.25)"/><path class="cls-6" d="M382.6,161.9,375.43,164,368.26,166l-7.17,2.06-7.17,2.06L347.41,172l-7.16-2.12-7.16-2.12-7.16-2.12-7.16-2.12-6.37-1.88" transform="translate(-3.16 0.25)"/><path class="cls-6" d="M414.94,152.59l-7.17,2.06-7.17,2.06-7.17,2.07-7.17,2.06-3.65,1.05-7.2-2-7.2-2-7.2-2-7.2-2-6.23-1.69" transform="translate(-3.16 0.25)"/><path class="cls-6" d="M444.75,144l-7.17,2.06-7.17,2.07-7.17,2.06-7.17,2.06-1.12.32-7.24-1.81L400.46,149l-7.24-1.81L386,145.33l-6-1.51" transform="translate(-3.16 0.25)"/><path class="cls-6" d="M135.93,208.34l-7.21,1.91-7.22,1.91-7.21,1.91L107.08,216l-7.21,1.91-7.21,1.91-7.21,1.91L80,223.13" transform="translate(-3.16 0.25)"/><path class="cls-6" d="M186.47,195l-7.21,1.91L172,198.79l-7.21,1.91-7.21,1.91-7.21,1.91-7.21,1.91-7.25,1.92-6.79-3.13-6.79-3.13L115.57,199l-6.79-3.13-2.43-1.12" transform="translate(-3.16 0.25)"/><path class="cls-6" d="M232.33,182.85l-7.21,1.91-7.21,1.91-7.21,1.91-7.21,1.91-7.21,1.91L189,194.3l-2.57.68-6.93-2.8-6.93-2.8-6.93-2.8-6.93-2.8-2.9-1.17" transform="translate(-3.16 0.25)"/><path class="cls-6" d="M274.14,171.8l-7.21,1.91-7.21,1.91-7.21,1.91-7.22,1.91-7.21,1.91-5.73,1.52-7-2.53-7-2.53-7-2.53-7-2.53L201,171.57" transform="translate(-3.16 0.25)"/><path class="cls-6" d="M312.4,161.69l-7.21,1.91L298,165.5l-7.21,1.91-7.21,1.91-7.22,1.91-2.19.58-7.1-2.3-7.1-2.31-7.1-2.31-7.1-2.31-3.4-1.1" transform="translate(-3.16 0.25)"/><path class="cls-6" d="M347.56,152.39l-7.22,1.91-7.21,1.91-7.21,1.91L318.7,160l-6.3,1.67-7.16-2.12-7.16-2.11-7.16-2.12-7.16-2.12-3.47-1" transform="translate(-3.16 0.25)"/><path class="cls-6" d="M380,143.82l-7.21,1.91-7.21,1.91-7.21,1.91-7.21,1.91-3.56.94-7.2-2-7.2-2-7.2-2-7.2-2-3.44-.93" transform="translate(-3.16 0.25)"/><path class="cls-6" d="M410,135.9l-7.21,1.91-7.21,1.91-7.21,1.91-7.21,1.91-1.12.3L372.74,142l-7.24-1.81-7.24-1.81L351,136.57l-3.33-.84" transform="translate(-3.16 0.25)"/><path class="cls-6" d="M106.35,194.7l-7.25,1.77-7.25,1.77L84.6,200l-7.25,1.77-7.25,1.77-7.25,1.77-7.25,1.77-3.82.93" transform="translate(-3.16 0.25)"/><path class="cls-6" d="M155.87,182.6l-7.25,1.77-7.25,1.77-7.25,1.77-7.25,1.77-7.25,1.77-7.25,1.77-6,1.47-6.79-3.13-6.79-3.13L86,185.32l-6.43-3" transform="translate(-3.16 0.25)"/><path class="cls-6" d="M201,171.57l-7.25,1.77-7.25,1.77-7.25,1.77L172,178.66l-7.25,1.77-7.25,1.77-1.66.4-6.93-2.8L142,177l-6.93-2.8L128,171.34" transform="translate(-3.16 0.25)"/><path class="cls-6" d="M242.33,161.48l-7.25,1.77L227.84,165l-7.25,1.77-7.25,1.77-7.25,1.77L201,171.57,194,169l-7-2.53-7-2.53-7-2.53-.51-.19" transform="translate(-3.16 0.25)"/><path class="cls-6" d="M280.3,152.2,273.06,154l-7.25,1.77-7.25,1.77-7.25,1.77-7.25,1.77-1.73.42-7.1-2.3-7.1-2.31-7.1-2.31-7.1-2.31-.77-.25" transform="translate(-3.16 0.25)"/><path class="cls-6" d="M315.31,143.65l-7.25,1.77-7.25,1.77L293.57,149l-7.25,1.77-6,1.47-7.16-2.12L266,148l-7.16-2.12-7.16-2.12-.91-.27" transform="translate(-3.16 0.25)"/><path class="cls-6" d="M347.69,135.73l-7.25,1.77-7.25,1.77L325.95,141l-7.25,1.77-3.39.83-7.2-2-7.2-2-7.2-2-7.2-2-1-.26" transform="translate(-3.16 0.25)"/><path class="cls-6" d="M377.73,128.4l-7.25,1.77-7.25,1.77L356,133.71l-7.25,1.77-1,.25-7.24-1.81-7.24-1.81L326,130.29l-7.24-1.81-.95-.24" transform="translate(-3.16 0.25)"/><path class="cls-6" d="M79.55,182.35,72.28,184,65,185.66l-7.27,1.65L50.45,189l-7.28,1.65-7.27,1.65-7.28,1.65-2.23.51" transform="translate(-3.16 0.25)"/><path class="cls-6" d="M128,171.34,120.75,173l-7.28,1.65-7.27,1.65L98.92,178l-7.28,1.65-7.27,1.65-4.82,1.09-6.79-3.13L66,176.1,59.19,173l-4-1.85" transform="translate(-3.16 0.25)"/><path class="cls-6" d="M172.39,161.27l-7.27,1.65-7.28,1.65-7.27,1.65-7.28,1.65L136,169.53l-7.27,1.65-.72.16-6.92-2.8-6.93-2.8-6.93-2.8-4.67-1.89" transform="translate(-3.16 0.25)"/><path class="cls-6" d="M213.16,152l-7.28,1.65-7.27,1.65L191.34,157l-7.28,1.65-7.27,1.65-4.4,1-7-2.53-7-2.53-7-2.53-5.17-1.86" transform="translate(-3.16 0.25)"/><path class="cls-6" d="M250.76,143.47l-7.28,1.65-7.27,1.65-7.28,1.65-7.28,1.65-7.27,1.65-1.22.28-7.1-2.31-7.1-2.31-7.1-2.3-5.55-1.8" transform="translate(-3.16 0.25)"/><path class="cls-6" d="M285.53,135.57l-7.28,1.65L271,138.87l-7.28,1.65-7.27,1.65-5.67,1.29-7.16-2.12-7.16-2.12-7.16-2.12-5.81-1.72" transform="translate(-3.16 0.25)"/><path class="cls-6" d="M317.8,128.24l-7.28,1.65-7.28,1.65L296,133.2l-7.28,1.65-3.16.72-7.2-2-7.2-2-7.2-2-6-1.62" transform="translate(-3.16 0.25)"/><path class="cls-6" d="M347.81,121.43l-7.28,1.65-7.27,1.65L326,126.38,318.7,128l-.91.21-7.24-1.81-7.24-1.81-7.24-1.81L290,121.28" transform="translate(-3.16 0.25)"/></g></g><g id="axis"><line class="cls-7" x1="310.5" y1="182.36" x2="456.6" y2="139.14"/><polygon class="cls-8" points="455.53 142.49 465.1 136.63 453.88 136.91 455.53 142.49"/><g class="cls-9"><line class="cls-10" x1="308.56" y1="184.25" x2="312.37" y2="185.49"/><line class="cls-11" x1="319.95" y1="187.95" x2="498.15" y2="245.72"/><line class="cls-10" x1="501.94" y1="246.95" x2="505.75" y2="248.18"/><polygon class="cls-12" points="502.96 250.33 514.17 250.91 504.76 244.81 502.96 250.33"/></g><line class="cls-10" x1="168.51" y1="138.34" x2="310.8" y2="183.66"/><polygon class="cls-12" points="169.51 141.71 160.07 135.65 171.28 136.18 169.51 141.71"/><g class="cls-9"><line class="cls-7" x1="90.31" y1="244.4" x2="94.16" y2="243.31"/><line class="cls-13" x1="102.02" y1="241.09" x2="302.52" y2="184.56"/><line class="cls-7" x1="306.45" y1="183.45" x2="310.3" y2="182.36"/><polygon class="cls-8" points="93 246.66 81.78 246.8 91.43 241.06 93 246.66"/></g><line class="cls-14" x1="309.27" y1="13.84" x2="310.98" y2="189.39"/><polygon class="cls-15" points="306.39 15.85 309.19 4.99 312.2 15.8 306.39 15.85"/><g class="cls-9"><line class="cls-14" x1="309.85" y1="341.47" x2="309.86" y2="337.47"/><line class="cls-16" x1="309.89" y1="329.52" x2="310.32" y2="190.38"/><line class="cls-14" x1="310.33" y1="186.4" x2="310.34" y2="182.4"/><polygon class="cls-15" points="312.76 339.5 309.82 350.33 306.95 339.48 312.76 339.5"/></g><text class="cls-17" transform="translate(81.11 259.16)">-X</text><text class="cls-18" transform="translate(313.18 16.01)">+Z</text><text class="cls-19" transform="translate(293.5 348.89)">-Z</text><text class="cls-20" transform="translate(499.82 262.72)">-<tspan class="cls-21" x="4" y="0">Y</tspan></text><text class="cls-22" transform="translate(159.65 131.95)">+<tspan class="cls-21" x="7.01" y="0">Y</tspan></text><text class="cls-23" transform="translate(245.79 248.23)">uB</text><text class="cls-24" transform="translate(370.19 148.46)">uE</text><text class="cls-25" transform="translate(239.68 150.85)">uN</text></g><g id="new_east" data-name="new east"><text class="cls-26" transform="translate(324.8 80.6)">uG</text><path class="cls-27" d="M372.39,166.22l.79,1,1,.87,1.05.64,1.1.39,1.11.12,1.07-.15,1-.42.87-.67.72-.9,4.23-7.85-7.72-3.75-1.11-.38-1.11-.11-1.07.16-1,.43-.86.68-.71.9-.53,1.09-.33,1.24-.12,1.34,0,.31" transform="translate(-3.16 0.25)"/><path class="cls-28" d="M377.57,155.5l1.06.64,1,.87.85,1.07.7,1.23.51,1.33L382,162l.09,1.4-.13,1.35-.34,1.24-.54,1.09" transform="translate(-3.16 0.25)"/><path class="cls-29" d="M375.92,159.51l-5.15,1.65-9.52,3.06-9.52,3.06-9.52,3.06-9.52,3.06-9.52,3.06-9.22,3-.68.42-.45.76-.15,1,.17,1.07.46,1,.68.76.8.41h.8l9.5-3.11,9.5-3.11,9.5-3.11,9.5-3.11,9.5-3.11,9.29-3,5-1.65" transform="translate(-3.16 0.25)"/><path class="cls-30" d="M313.95,179.42h.8l.8.41.68.76.46,1,.17,1.08-.15,1-.45.76-.68.41" transform="translate(-3.16 0.25)"/></g><g id="new_north" data-name="new north"><path class="cls-31" d="M311.51,183.08l-.71-.41-.49-.77-.19-1,.14-1.09.44-1,.68-.77.82-.42H313" transform="translate(-3.16 0.25)"/><path class="cls-32" d="M257.38,161.65v-.25l-.16-1.35-.38-1.25-.58-1.1-.76-.91-.91-.68-1-.43-1.1-.16-1.14.12-1.13.39-7.36,4.15,4.1,7.59.77.9.92.67,1,.42,1.11.15,1.14-.13,1.12-.4,1.07-.65,1-.88.83-1.06" transform="translate(-3.16 0.25)"/><path class="cls-33" d="M246.94,167.77l-.59-1.1-.39-1.25-.17-1.36.05-1.41.28-1.41.49-1.35.68-1.24.85-1.08,1-.88,1.08-.65" transform="translate(-3.16 0.25)"/><path class="cls-34" d="M250.62,165.24l5.27,1.54,9.6,2.81,9.6,2.81,9.6,2.81,9.6,2.81,9.6,2.81,7.64,2.24h.82l.81-.42.68-.77.44-1,.14-1.08-.19-1-.48-.77-.71-.41-9.61-2.76-9.61-2.76-9.61-2.76-9.61-2.76L265,163.83l-7.59-2.18L252,160.12Z" transform="translate(-3.16 0.25)"/></g><g id="gravity"><path class="cls-35" d="M313.84,88.94l-.26,10-.26,10-.26,10-.26,10-.26,10-.26,10-.26,10-.26,10-.26,10-.14,5.39.18.46.6.41.93.29,1.12.13,1.14,0,1-.22L317,185l.26-.44.28-10,.28-10,.28-10,.28-10,.28-10,.28-10,.28-10,.28-10,.28-10,.15-5.43Z" transform="translate(-3.16 0.25)"/><path class="cls-36" d="M325.26,86.34l-4.47-8.94-3.4-6.81-5,8.69-3.67,6.44-.23.51.09.52.42.52.72.49,1,.45,1.24.38,1.44.3.41.06,1.16.16,1.65.11h1.66l1.61-.09h0l1.45-.19,1.32-.29,1.09-.37.82-.43.52-.48.21-.51-.12-.52" transform="translate(-3.16 0.25)"/></g><g id="globe"><text class="cls-37" transform="translate(449.78 134.03)">+X</text><g class="cls-38"><path class="cls-39" d="M466.52,8.34l-.68,2.13-.68,2.13-.15.48" transform="translate(-3.16 0.25)"/><path class="cls-40" d="M468.91.13l-.36.9L468,2.35l-.29.77-.3.86-.31.94-.31,1-.31,1L466.22,8l-.29,1.07-.27,1.06-.25,1-.22,1-.19.92-.16.84-.12.74-.34,2.21-.34,2.21-.27,1.77-.16,1.27-.09,1.05-.09,2.24-.09,2.24-.09,2.24,0,.49v1.27l.15,2.23.15,2.23.15,2.23,0,.74.15,1.28.37,2.21.37,2.21L465,47l.16.95.59,2.16.59,2.16.59,2.16.21.76.53,1.47.8,2.09.8,2.09.8,2.09.37,1,1,2,1,2,1,2,.4.79,1.2,1.89,1.2,1.89,1.2,1.89.39.62,1.38,1.76,1.38,1.76L482,82.21l.36.46,1.44,1.72.26.31,1.55,1.61,1.55,1.61,1.55,1.61.61.63L491,91.61l1.71,1.45,1.71,1.45L495,95l1.84,1.27,1.84,1.27,1.84,1.27.49.34,2,1.07,2,1.07,2,1.07.4.22,2,1,1.54.81,2.06.86,2.06.86L517,107l.63.26,2.14.64,2.14.64,2.14.64.5.15,2.2.42,2.2.42,2.2.42.36.07,2.22.31,2.22.31.67.09,2.23.18,2.23.18,2.23.18.43,0,2.24-.07,2.24-.07,2.24-.07h.23l2.22-.3,2.22-.3,1.65-.22,2.21-.32,2.21-.32,2.21-.32h.08l2.16-.58,2.16-.58,2-.54,2.1-.77,2.1-.77,2.1-.77.23-.08,2.07-.85,2.07-.85,1.52-.62,1.94-1.12,1.94-1.12,1.2-.69L589,99.45,591,98.33l1.93-1.12.45-.26,1.75-1.4,1.75-1.4,1.75-1.4,1.1-.88,1.74-1.41,1.74-1.41,0,0,1.56-1.61,1.56-1.61,1.56-1.61,1-1.08,1.41-1.74.76-.95,1.36-1.78,1.36-1.78,1.36-1.78.73-1,1.16-1.91,1.16-1.91,1.16-1.91.61-1" transform="translate(-3.16 0.25)"/><path class="cls-41" d="M466.52,8.34l-.8,2.09-.29.76" transform="translate(-3.16 0.25)"/><path class="cls-42" d="M466.52,8.34l-.58.77" transform="translate(-3.16 0.25)"/><path class="cls-43" d="M466.52,8.34V7" transform="translate(-3.16 0.25)"/><path class="cls-44" d="M466.52,8.34l.4-2.2.22-1.21" transform="translate(-3.16 0.25)"/><path class="cls-45" d="M466.52,8.34,467,6.16,467.54,4l.2-.86" transform="translate(-3.16 0.25)"/><path class="cls-46" d="M466.52,8.34l.55-2.17L467.61,4,468,2.35l.27-.67.24-.55-.6,2.15-.6,2.15-.6,2.15-.21.73" transform="translate(-3.16 0.25)"/><path class="cls-47" d="M466.52,8.34l.66-2.14.66-2.14.66-2.14.45-1.47" transform="translate(-3.16 0.25)"/><path class="cls-48" d="M466.52,8.34l.71-2.12.71-2.12L468.65,2l.63-1.88" transform="translate(-3.16 0.25)"/><path class="cls-49" d="M466.52,8.34l.77-2.1.77-2.1.77-2.1.44-1.19,0,.48-.07.62" transform="translate(-3.16 0.25)"/><path class="cls-50" d="M466.52,8.34l.86-2.07.86-2.07.86-2.07.08-.2" transform="translate(-3.16 0.25)"/><path class="cls-51" d="M468.91,3.54l.16-.86.11-.74,1-1.83" transform="translate(-3.16 0.25)"/><path class="cls-52" d="M466.52,8.34l1-2,1-2,.39-.79" transform="translate(-3.16 0.25)"/><path class="cls-53" d="M468.49,5.54l.23-1,.19-1,1.28-1.84L471.26.18" transform="translate(-3.16 0.25)"/><path class="cls-54" d="M466.52,8.34l1.29-1.83.68-1" transform="translate(-3.16 0.25)"/><path class="cls-55" d="M467.94,7.77l.29-1.13.26-1.1L470.13,4l1.26-1.17,1.87-1.23L475.14.39l.15-.09-.51,2.18-.3,1.28-.55,2.17-.36,1.41" transform="translate(-3.16 0.25)"/><path class="cls-56" d="M577.41,28.48,578,26.3l.54-2.17L579,22l.54-2.17.54-2.17.54-2.17.28-1.14.37-2.21.37-2.21L582,7.68l.37-2.21.37-2.21.37-2.21.13-.77,2.25.34,2.11.53,2.13.61,2.13.68.94.3,2.09.81,2.09.81,2.09.81,2.09.81.24.09" transform="translate(-3.16 0.25)"/><path class="cls-57" d="M601.33,6.86l.12-2.23.12-2.23.12-2.23" transform="translate(-3.16 0.25)"/><path class="cls-58" d="M595.49,35.38l.54-2.17.54-2.17.54-2.17.54-2.17.54-2.17.54-2.17.46-1.86.34-2.21.34-2.21.34-2.21.34-2.21.34-2.21.34-2.21.18-1.14,2,1,2,1,2,1,1.48.7,1.94,1.12,1.94,1.12L614.78,13l.62.36" transform="translate(-3.16 0.25)"/><path class="cls-59" d="M615.4,13.35l.08-2.24.08-2.24.08-2.24.08-2.24.08-2.24.07-2.1" transform="translate(-3.16 0.25)"/><path class="cls-60" d="M610,40.8l.54-2.17.54-2.17.54-2.17.54-2.17.54-2.17.54-2.17.22-.89.32-2.21.32-2.21.32-2.21.32-2.21L615,15.8l.32-2.21,0-.24,1.82,1.3,1.82,1.3,1,.71" transform="translate(-3.16 0.25)"/><path class="cls-61" d="M556.93,21.2l.54-2.17.54-2.17.54-2.17.54-2.17.54-2.17L560,8.87l.4-2.2.4-2.2.4-2.2.38-2.13" transform="translate(-3.16 0.25)"/><path class="cls-62" d="M483.09,8.44l.55-2.17.55-2.17.47-1.85.47-2.07" transform="translate(-3.16 0.25)"/><path class="cls-63" d="M514.58,13.33l.55-2.17L515.68,9l.55-2.17.55-2.17.55-2.17.09-.37.46-2" transform="translate(-3.16 0.25)"/><path class="cls-64" d="M535.93,13.74l.54-2.17L537,9.4l.54-2.17.54-2.17.09-.36.43-2.2.46-2.37" transform="translate(-3.16 0.25)"/><path class="cls-65" d="M466.52,8.34l1.42-.57" transform="translate(-3.16 0.25)"/><path class="cls-66" d="M467.32,10l.32-1.13.31-1.14,2.21-.33.11,0,2.24-.06,1.06,0" transform="translate(-3.16 0.25)"/><path class="cls-67" d="M471.56,14.51l.62-2.15.41-1.41.59-2.16.39-1.46,2.24.1,2.07.09,2.23.21,2.23.21.89.08" transform="translate(-3.16 0.25)"/><path class="cls-68" d="M595.49,35.38l2.11.76,2.11.76,2.11.76,1.47.53,2.09.81,2.09.81,2.09.81.46.18" transform="translate(-3.16 0.25)"/><path class="cls-69" d="M479.67,20.38l.64-2.14.64-2.14.55-1.83.6-2.16.6-2.16L483.23,8l2.22.28,2.22.28,2,.25,2.21.35,2.21.35,2.21.35L497,10" transform="translate(-3.16 0.25)"/><path class="cls-70" d="M599.34,67.52l.92-2,.92-2,.92-2,.92-2,.92-2,.92-2,.34-.75.73-2.11.73-2.11.73-2.11.73-2.11L608.9,44l.73-2.11L610,40.8l2.06.88,2.06.88,1.47.63,2,1,2,1,.4.19-.75,2.11-.75,2.11-.75,2.11L617,53.77l-.75,2.11-.58,1.64-.95,2-.95,2-.95,2-.95,2-.95,2L610.34,69" transform="translate(-3.16 0.25)"/><path class="cls-71" d="M497,10l.55-2.17.55-2.17.55-2.17.55-2.17L499.5.19" transform="translate(-3.16 0.25)"/><path class="cls-72" d="M491.81,27.48l.67-2.13.67-2.13.67-2.13.7-2.22.61-2.15.61-2.15.61-2.15.61-2.15L497,10l2.2.4,2.2.39,2.2.4,1.75.31,2.19.44,2.19.44,2.19.44,2.19.44.42.08" transform="translate(-3.16 0.25)"/><path class="cls-73" d="M507.64,35.46l.71-2.12.71-2.12.71-2.12.71-2.12.71-2.12.09-.27.63-2.15.63-2.15.63-2.15L513.8,16l.63-2.15.15-.52,2.19.47,2.19.47.75.16" transform="translate(-3.16 0.25)"/><path class="cls-74" d="M585.16,62.41l.89-2.05.89-2.05.89-2.05.89-2.05.89-2.05.88-2,.72-2.12.72-2.12.72-2.12.72-2.12.72-2.12.72-2.12.68-2-2.12-.71L591.23,34" transform="translate(-3.16 0.25)"/><path class="cls-75" d="M466.52,8.34l.79,1.71" transform="translate(-3.16 0.25)"/><path class="cls-76" d="M466.66,12.19l.33-1,.33-1.1,1.4,1.74.25.32,1.64,1.53.95.88" transform="translate(-3.16 0.25)"/><path class="cls-77" d="M584.45,64.06l.12-.28" transform="translate(-3.16 0.25)"/><path class="cls-78" d="M469.46,21.15l.7-2.13.35-1.08.66-2.14.39-1.29,1.77,1.37,1.79,1.39L477,18.53l1.85,1.26.86.58" transform="translate(-3.16 0.25)"/><path class="cls-79" d="M584.45,64.06l2.17.54,2.17.54,2.17.54,1.39.35,2.19.47,2.19.47,2.19.47.43.09" transform="translate(-3.16 0.25)"/><path class="cls-80" d="M475.91,31.56l.74-2.11.74-2.11.4-1.14.69-2.13.69-2.13.5-1.56,1.91,1.17,1.91,1.17,1.75,1.07,2,1.1,2,1.1,2,1.1.71.4" transform="translate(-3.16 0.25)"/><path class="cls-81" d="M585.4,89.4l1.3-1.82,1.3-1.82,1.3-1.82,1.3-1.82,1.3-1.82.73-1,1.11-1.94,1.11-1.94L596,73.44l1.11-1.94,1.11-1.94,1.16-2,2.21.37,2.21.37,1.59.26,2.23.23,2.23.23.53.06" transform="translate(-3.16 0.25)"/><path class="cls-82" d="M486.14,42.95l.81-2.09.81-2.09.81-2.09.42-1.1.74-2.11.74-2.11.74-2.11.62-1.77,2,1,2,1,2,1,1.54.81,2,1,2,1,2,1,2,1,.3.15" transform="translate(-3.16 0.25)"/><path class="cls-83" d="M597.37,88.56l1.34-1.79L600,85l1.34-1.79,1.34-1.79,1.34-1.79.07-.1,1.14-1.92,1.14-1.92,1.14-1.92,1.14-1.92,1.14-1.92.49-.83,2.24,0,1.71,0,2.22-.25.72-.08-1.16,1.91-1.16,1.91-1.16,1.91-1.16,1.91-.74,1.22-1.36,1.78-1.36,1.78L607.78,83l-1.36,1.78-.49.64" transform="translate(-3.16 0.25)"/><path class="cls-84" d="M499.88,54.62l.89-2.05.89-2.05.89-2.05.89-2.05.36-.83.8-2.09.8-2.09.8-2.09.8-2.09.67-1.75,2,.93,2,.93.65.3" transform="translate(-3.16 0.25)"/><path class="cls-85" d="M534.6,75.37l1.08-2,1.08-2,1.08-2,1.08-2,1.08-2,.66-1.19.94-2,.94-2,.94-2,.94-2,.72-1.57" transform="translate(-3.16 0.25)"/><path class="cls-86" d="M553.05,82.8l1.17-1.91L555.39,79l1.17-1.91,1.17-1.91,1.17-1.91,1-1.63,1-2,1-2,1-2,1-2,1-2,.14-.28" transform="translate(-3.16 0.25)"/><path class="cls-87" d="M570.37,87.53l1.24-1.86,1.24-1.86,1.24-1.86,1.24-1.86,1.24-1.86,1-1.56,1.06-2,1.06-2,1.06-2,1.06-2,1.06-2,1.06-2,.43-.8-.06,0" transform="translate(-3.16 0.25)"/><path class="cls-88" d="M605.94,85.41,607.72,84l1.22-.93,1.36-1.78,1.36-1.78,1.49-1.8,1.15-1.5,1.51-2" transform="translate(-3.16 0.25)"/><path class="cls-89" d="M516.42,65.72l1-2,1-2,1-2,1-2,1-2,.11-.23.86-2.06.86-2.06.86-2.06.6-1.43" transform="translate(-3.16 0.25)"/><path class="cls-90" d="M516.42,65.72l1.95,1.1,1.95,1.1,1.95,1.1,1.95,1.1,1.17.66,2,1,2,1,2,1,2,1,1.2.6" transform="translate(-3.16 0.25)"/><path class="cls-91" d="M522.75,91.55l1.42-1.73,1.42-1.73L527,86.37l1.42-1.73.13-.16,1.24-1.87L531,80.74l1.24-1.87L533.51,77l1.09-1.64,2.05.89,2.05.89,2.05.89,2.05.89,1.07.47,2.1.78,2.1.78,2.1.78,2.1.78.78.29" transform="translate(-3.16 0.25)"/><path class="cls-92" d="M466.52,8.34l.08,2.24.06,1.61" transform="translate(-3.16 0.25)"/><path class="cls-93" d="M466,14l.31-.87.32-1,.49,2.18.47,2.1.82,2.08.82,2.08.2.52" transform="translate(-3.16 0.25)"/><path class="cls-94" d="M539.46,99,541,97.37l1.54-1.62,1.54-1.62,1.54-1.62.52-.55,1.35-1.79,1.35-1.79,1.35-1.79,1.35-1.79L552.89,83l.16-.22,2.14.66,2.14.66,2.14.66,2.14.66.32.1,2.18.52,2.18.52,2.18.52,1.91.45" transform="translate(-3.16 0.25)"/><path class="cls-95" d="M467.47,26.64l.79-2.09.18-.48.74-2.11.28-.81,1.07,2,1.07,2,.61,1.12L473.48,28l1.27,1.84,1.16,1.68" transform="translate(-3.16 0.25)"/><path class="cls-96" d="M555.72,103.15l1.64-1.52L559,100.1l1.64-1.52,1.64-1.52.71-.66,1.43-1.72L565.84,93l1.43-1.72,1.43-1.72,1.43-1.72.23-.27,2.21.36,2.21.36,2.21.36,1.23.2,2.23.18,2.23.18,2.23.18.48,0" transform="translate(-3.16 0.25)"/><path class="cls-97" d="M472.35,40.46l.87-2.06.86-2,.8-2.09.8-2.09.23-.61,1.43,1.72L478.77,35l1.43,1.72.37.44,1.55,1.61,1.55,1.61L485.22,42l.92.95" transform="translate(-3.16 0.25)"/><path class="cls-98" d="M570.56,104l1.7-1.46,1.7-1.46,1.7-1.46,1.7-1.46.59-.51,1.5-1.66,1.5-1.66,1.5-1.66,1.5-1.66,1.46-1.63,2.24,0,2.24,0,1.92,0L594,89l2.22-.29,1.14-.15" transform="translate(-3.16 0.25)"/><path class="cls-99" d="M480.75,54.76l1-2,1-2,.66-1.36.88-2.06.88-2.06.89-2.06.12-.27,1.66,1.5,1.66,1.5,1.66,1.5,1.49,1.35,1.75,1.4,1.75,1.4,1.75,1.4,1.75,1.4.29.23" transform="translate(-3.16 0.25)"/><path class="cls-100" d="M583.26,101.79l1.74-1.41L586.73,99l1.74-1.41,1.74-1.41.13-.11,1.54-1.63,1.54-1.63,1.54-1.63,1.54-1.63.9-1,2.16-.6,2.16-.6.4-.11,2-1,1.83-.87L604.39,87l-1.55,1.61-1.55,1.61-1.57,1.63" transform="translate(-3.16 0.25)"/><path class="cls-101" d="M492.4,68.67l1.12-1.94,1.12-1.94,1.12-1.94.29-.49,1-2,1-2,1-2,.86-1.73,1.82,1.3,1.82,1.3,1.82,1.3,1.82,1.3.69.49,1.89,1.2,1.89,1.2,1.89,1.2,1.89,1.2,1,.63-1.11,1.94-1.12,1.94-1.11,1.94L512,73.48l-.5.88-1.27,1.84L508.9,78l-1.27,1.84-.93,1.34" transform="translate(-3.16 0.25)"/><path class="cls-102" d="M506.7,81.22l1.84,1.28,1.84,1.28,1.84,1.28L514,86.34l.53.37,1.93,1.14L518.42,89l1.93,1.14,1.93,1.14.47.28" transform="translate(-3.16 0.25)"/><path class="cls-103" d="M517.31,96.61,519,95.08l1.64-1.52L522.23,92l.52-.48,2,1,2,1,2,1,2,1,.31.15,2.08.83,2.08.83,2.08.83,2.13.84" transform="translate(-3.16 0.25)"/><path class="cls-104" d="M466.52,8.34l-.19,2.23-.19,2.23L466,14" transform="translate(-3.16 0.25)"/><path class="cls-105" d="M465.74,14.78,466,14l.11,2.24.11,2.24.08,1.65.38,2.2.38,2.2.36,2.09" transform="translate(-3.16 0.25)"/><path class="cls-106" d="M533.14,103.89l1.77-1.37,1.77-1.37,1.77-1.37,1-.79,2.14.65,2.14.65,2.14.65,1.83.55,2.19.46,2.19.46,2.19.46,1.44.3" transform="translate(-3.16 0.25)"/><path class="cls-107" d="M466.57,28.81l.86-2.07,0-.11.63,2.15.63,2.15.63,2.15.11.36.85,2.07.85,2.07.85,2.07.33.81" transform="translate(-3.16 0.25)"/><path class="cls-108" d="M548.81,107.82l1.85-1.25,1.85-1.25,1.85-1.25,1.34-.91,2.22.24,2.22.24,2.22.24,1,.11h7.19" transform="translate(-3.16 0.25)"/><path class="cls-109" d="M470.75,43.82l1-2,.64-1.35,1,2,1,2,1,2,.64,1.21,1.22,1.88,1.21,1.88,1.21,1.88,1,1.52" transform="translate(-3.16 0.25)"/><path class="cls-110" d="M563.45,108.39l1.91-1.17,1.91-1.17,1.91-1.17,1.4-.86,2.22-.25,2.22-.25,2.2-.25,2.17-.53,2.17-.53,1.7-.41" transform="translate(-3.16 0.25)"/><path class="cls-111" d="M478.33,59l1.11-1.95,1.11-1.95.21-.36,1.37,1.77,1.37,1.77,1.37,1.77,1.35,1.75,1.5,1.66,1.5,1.66,1.5,1.66,1.5,1.66.19.21" transform="translate(-3.16 0.25)"/><path class="cls-112" d="M563.45,108.39l2.22-.3,2.22-.3,2.27-.31,2.16-.57,2.16-.57,1.88-.5,1.93-1.13,1.93-1.13,1.93-1.13,1.1-.65,2.08-.82,2.08-.82,1.23-.49,1.94-1.12,1.94-1.12.84-.48" transform="translate(-3.16 0.25)"/><path class="cls-113" d="M489,73.47l1.29-1.83,1.29-1.83.8-1.14L494,70.2l1.62,1.54,1.63,1.54,1.63,1.54.37.35L501,76.58,502.74,78l1.74,1.41,1.74,1.41.49.4-1.47,1.69-1.47,1.68-1.47,1.68" transform="translate(-3.16 0.25)"/><path class="cls-114" d="M502.29,86.27l1.79,1.34L505.87,89l1.79,1.34,1.79,1.34.19.14,1.9,1.19,1.9,1.19,1.9,1.19,1.9,1.19.09.06" transform="translate(-3.16 0.25)"/><path class="cls-115" d="M508,101.05l2.14-.65,2.14-.65.1,0,1.89-1.19,1.89-1.19,1.16-.73,2,1,2,1,2,1,1.91,1,2.07.84,2.07.84,2.07.84,1.74.71" transform="translate(-3.16 0.25)"/><path class="cls-116" d="M466.52,8.34l-.27,2.22L466,12.78l-.24,2" transform="translate(-3.16 0.25)"/><path class="cls-117" d="M465.24,15.91l.24-.5.26-.63v6.85l.25,2.22.25,2.22.25,2.22.06.51" transform="translate(-3.16 0.25)"/><path class="cls-118" d="M522.18,107.84l2.19-.45,2.19-.45.79-.16,2-1,2-1,1.79-.89,2.14.65,2.14.65,2.14.65,1.49.45,2.2.44,2.2.44,2.2.44,1.17.23" transform="translate(-3.16 0.25)"/><path class="cls-119" d="M465,31.86l.71-1.3.81-1.75.49,2.18.49,2.18.49,2.18.2.88.71,2.12.71,2.12.71,2.12.4,1.21" transform="translate(-3.16 0.25)"/><path class="cls-120" d="M522.18,107.84l2.14.65,2.14.65,2.14.65.81.25,2.2.42,2.2.42,2.2.42.63.12,2.21-.34,2.21-.34,1.35-.21,2.06-.87,2.06-.87,2.06-.87.21-.09L551,108l2.23.21,2.23.21.81.07,2.24,0,2.24,0,2.24,0h.43l-2.09.79-2.09.79-2.09.79-.38.14" transform="translate(-3.16 0.25)"/><path class="cls-121" d="M468.07,48.2l1.25-1.79,1.08-2,.35-.63.9,2,.9,2,.91,2,.66,1.49,1.09,2,1.09,2,1.09,2,.94,1.69" transform="translate(-3.16 0.25)"/><path class="cls-122" d="M474.27,64.09l1.54-1.62.34-.36,1.28-1.83.89-1.27,1.25,1.85,1.25,1.85,1.25,1.85,1.23,1.82,1.41,1.74,1.41,1.74,1.41,1.74,1.41,1.74.09.11" transform="translate(-3.16 0.25)"/><path class="cls-123" d="M483.35,78.68l1.82-1.3.83-.59,1.51-1.65L489,73.47l1.54,1.62,1.55,1.62,1.54,1.62,1.55,1.62.18.19,1.67,1.49,1.67,1.49,1.67,1.49,1.67,1.49.22.19-1.73,1.42-1.73,1.42-.53.44-2,.95-1.48.69" transform="translate(-3.16 0.25)"/><path class="cls-124" d="M494.8,91.2l1.73,1.42L498.25,94,500,95.47l1.24,1,1.86,1.25L504.93,99l1.86,1.25,1.2.81" transform="translate(-3.16 0.25)"/><path class="cls-125" d="M501,99.12l2,1,1.2.63,2.23.16,1.55.11,2,1.06,2,1.06,2,1.06,1.11.6,2.07.86,2.07.86,2.07.86,1,.41-2.22-.28-2.22-.28h-.08" transform="translate(-3.16 0.25)"/><path class="cls-126" d="M466.52,8.34l-.37,2.21-.37,2.21L465.4,15l-.16,1" transform="translate(-3.16 0.25)"/><path class="cls-127" d="M464.87,16.47l.17-.2.2-.35-.14,2.23L465,20.38l-.14,2.23-.07,1.17.08,2.24.08,2.24L465,30.5l.05,1.37" transform="translate(-3.16 0.25)"/><path class="cls-128" d="M464,33.08l.48-.38.6-.84.3,2.22.3,2.22.3,2.22.21,1.52.51,2.18.51,2.18.51,2.18.38,1.63" transform="translate(-3.16 0.25)"/><path class="cls-129" d="M466.19,49.48l.83-.26,1-1,.72,2.12.72,2.12.72,2.12.57,1.69.91,2,.91,2,.91,2,.76,1.7" transform="translate(-3.16 0.25)"/><path class="cls-130" d="M471.41,64.89l1.28.11,1.58-.9,1.09,2,1.09,2,1.09,2,.92,1.65,1.27,1.84L481,75.29l1.27,1.84,1.06,1.55" transform="translate(-3.16 0.25)"/><path class="cls-131" d="M479.27,78.63l1.83.63,2.17-.55.07,0,1.43,1.72,1.43,1.72,1.43,1.72,1.17,1.4,1.59,1.58L492,88.4,493.57,90l1.23,1.22-2.24.11-.76,0-2-1-.46-.22" transform="translate(-3.16 0.25)"/><path class="cls-132" d="M466.52,8.34l-.44,2.19-.44,2.19-.44,2.19-.31,1.56" transform="translate(-3.16 0.25)"/><path class="cls-133" d="M464.66,16.43l.09.1.13-.05-.23,2.23-.23,2.23-.23,2.23L464,24.76,464,27l0,2.24,0,2.24v1.62" transform="translate(-3.16 0.25)"/><path class="cls-134" d="M463.36,32.53l.23.49.36.06.2,2.23.2,2.23.2,2.23.14,1.59.41,2.2.41,2.2.41,2.2.28,1.52" transform="translate(-3.16 0.25)"/><path class="cls-135" d="M465.16,47.93l.41,1.1.62.45.62,2.15.62,2.15.62,2.15.41,1.42.82,2.08.82,2.08.82,2.08.51,1.29" transform="translate(-3.16 0.25)"/><path class="cls-136" d="M470.44,63.86l1,1,1,2,1,2,1,2L475,72l1.21,1.89,1.21,1.89,1.21,1.89.62,1" transform="translate(-3.16 0.25)"/><path class="cls-137" d="M477.84,76.93l1.43,1.69,1.38,1.76L482,82.14l1.38,1.76.63.8" transform="translate(-3.16 0.25)"/><path class="cls-138" d="M466.52,8.34l-.5,2.18-.5,2.18-.5,2.18-.36,1.55" transform="translate(-3.16 0.25)"/><path class="cls-139" d="M464.62,15.81v.38l0,.24-.29,2.22-.29,2.22-.29,2.22-.19,1.44-.07,2.24L463.47,29l-.07,2.24,0,1.3" transform="translate(-3.16 0.25)"/><path class="cls-140" d="M463.25,31.64l.11.89.15,2.23.15,2.23.15,2.23.08,1.13" transform="translate(-3.16 0.25)"/><path class="cls-141" d="M463.54,23.18l.32-2.21.32-2.21.32-2.21.11-.73,0-.51.08-.63.61-2.15.61-2.15.57-2L466,10.5l-.55,2.17-.55,2.17-.25,1" transform="translate(-3.16 0.25)"/></g><line class="cls-142" x1="616.87" y1="0.25" x2="616.87" y2="67.66"/><line class="cls-143" x1="465.76" y1="0.38" x2="616.87" y2="0.25"/><text class="cls-144" transform="translate(460.2 10.96) rotate(-70.2)">N</text><text class="cls-144" transform="translate(516.55 119.17) rotate(-70.2)">W</text></g><g id="phone"><path class="cls-145" d="M522.67,31.56l.1-.1.1-.12.09-.13.07-.15.06-.16.67-2.13.67-2.14.49-1.57,0-.16,0-.16v-.31l0-.14,0-.13-.06-.11-.08-.09-.09-.07-.1,0h0l-.11,0h-.11l-.11,0-.11.05L524,24l-.1.1" transform="translate(-3.16 0.25)"/><path class="cls-145" d="M523.9,24.06l-.1.12-.09.13-.07.15-.06.15-.67,2.13-.67,2.13-.49,1.57,0,.16,0,.16v.31l0,.14,0,.13.06.11.08.09.09.07.1,0h0l.11,0h.11l.11,0,.11-.05.11-.08" transform="translate(-3.16 0.25)"/><path class="cls-145" d="M521.9,33.37v-.07l0-.07,0-.06-.05-.06-.06,0-.07,0-.07,0h-.15l-.07,0-.06,0,0,0,0,0,0,.06,0,.07,0,.07v.15l0,.07,0,.06.05.06.06,0,.07,0,.07,0h.15l.07,0,0,0,0,0,.05-.05,0-.06,0-.07,0-.07v-.08" transform="translate(-3.16 0.25)"/><path class="cls-145" d="M586.59,48.31l-.11-.58-.21-.55-.31-.5-.39-.42-.46-.34-.51-.24-.55-.13-.56,0-.55.1h0l-.5.21-.47.31-.4.4-.31.48-.16.39-.06.15-.11.57v.59l.11.58.21.55.31.5.39.43.46.34.52.24.55.13H584l.55-.1.52-.21.46-.31.39-.41.31-.48.21-.54.11-.57v-.59" transform="translate(-3.16 0.25)"/><path class="cls-145" d="M574.87,61.26l.64-2.15.64-2.15.64-2.15,0-.08.64-2.15.64-2.15.64-2.15.38-1.27.64-2.15.64-2.15L581,40.6l.41-1.38.64-2.15.64-2.15.52-1.77-2.11-.75L579,31.67l-2.11-.75-.16-.06-2.12-.75-2.11-.75-2.11-.75-2.11-.75-2.11-.75L564,26.38l-.22-.08-2.11-.75-2.11-.75-1.19-.42-2.09-.74-2.11-.75-.57-.2L551.52,22l-2.11-.75-1.82-.64-2.11-.75-2.11-.75-2.11-.75-2.11-.75L537,16.83l-.15-.05-1.58-.56-2.11-.75-2-.71-.67,2.13-.41,1.3-.67,2.14-.67,2.14-.67,2.14-.67,2.14-.67,2.14L526.11,31l-.67,2.14-.15.49-.67,2.14L524,37.9,523.28,40l-.67,2.14-.43,1.36,2.12.71,1.59.54,2.12.71,0,0,2.12.71,2.12.71,2.12.71,2.12.71,2.21.74,2.12.71,2.12.71,2.12.71.22.07,1.14.38,2.12.71,1,.33,2.12.71,1.44.48,1.91.64,2.12.71,2.12.71,2.12.71,2.12.71,2.12.71.5.17.32.11,2.12.71,2.12.71,2.12.71,2,.68" transform="translate(-3.16 0.25)"/><path class="cls-145" d="M585.08,62.68l.08-.27.63-2.15.18-.61.63-2.15.63-2.15.36-1.23.63-2.15.63-2.15.24-.83.63-2.15.63-2.15.26-.89.63-2.15.63-2.15.37-1.25,0-.18.14-.76,0-1-.24-.94-.43-.87-.46-.58-.13-.17-.74-.6-.84-.41L587.41,32l-.66-.23L584.64,31l-.81-.29L581.73,30l-2.11-.75-2.11-.75-.1,0-1.55-.55-2.11-.75-2.11-.75-2.11-.75-2.11-.75-2.11-.75-.39-.14-2.11-.75-2.11-.75-1.26-.45-2.11-.75-.41-.15-2.11-.75-2.11-.75L550.61,19l-2-.71-2.11-.75-2.11-.75L542.29,16l-2.11-.75-2.11-.75-.19-.07-1.94-.69L533.83,13l-2.11-.75-2.11-.75-2.11-.75-.16-.06-1.05-.37-1-.23h-1l-1,.22-.88.43-.76.62-1,1.26-.58.77-.4.88-.06.18-.08.24L519,16.81l-.68,2.13-.68,2.13-.68,2.13-.68,2.13-.68,2.13-.68,2.13-.26.83L514,32.58l-.68,2.13-.68,2.13-.25.78-.41,1.3-.19,1,0,1,.25,1,.45.89.64.77.79.61.9.42,2.14.72,2.12.71,2.12.71,2.12.71,1.31.44,2.12.71.68.23,2.12.71,2.12.71,2.12.71,2.12.71,1,.33,1.25.42,2.12.71,2.12.71,2.12.71.59.2,2.12.71,1.93.65,2.12.71,2.12.71,1.31.44,2.12.71,2.12.71,2.12.71,2.12.71,1.84.62,1,.33,2.12.71,2.12.71,1.16.39,2.12.71,2.12.71,2,.66.3.06.6.13,2.24,0,.93,0,.9-.24.82-.45.7-.63.22-.31.19-.27.14-.2.37-.89" transform="translate(-3.16 0.25)"/><path class="cls-145" d="M580.8,65.7l-.92-.19-2.12-.71-2.12-.71-2.12-.71-2.12-.71L569.28,62l-2.12-.71L565,60.54l-2.12-.71-2.12-.71-2.12-.71-2.12-.71L554.42,57l-2.12-.71-2.12-.71-2.12-.71-2.12-.71-2.12-.71-2.12-.71L539.57,52l-2.12-.71-2.12-.71-2.12-.71-2.12-.71L529,48.45l-2.12-.71L524.72,47l-2.12-.71-2.12-.71-2.12-.71-2.68-.9-.92-.43-.8-.62-.65-.79-.46-.91-.25-1,0-1,.2-1,.68-2.13.68-2.13.68-2.13.68-2.13.68-2.13.68-2.13.68-2.13.68-2.13.68-2.13.68-2.13.68-2.13.55-1.75.4-.9.6-.78" transform="translate(-3.16 0.25)"/></g><g id="phone-axis"><line class="cls-146" x1="614.07" y1="69.03" x2="616.87" y2="67.66"/><line class="cls-147" x1="550.05" y1="38.27" x2="558.64" y2="34.88"/><polygon class="cls-15" points="558.52 35.4 559.88 34.4 558.2 34.59 558.52 35.4"/><g class="cls-148"><line class="cls-147" x1="550.05" y1="38.27" x2="549.58" y2="38.45"/><line class="cls-149" x1="548.71" y1="38.79" x2="542.14" y2="41.31"/><line class="cls-147" x1="541.7" y1="41.48" x2="541.23" y2="41.66"/><polygon class="cls-15" points="541.36 41.15 539.99 42.14 541.67 41.96 541.36 41.15"/></g><line class="cls-150" x1="550.05" y1="38.27" x2="553.34" y2="27.46"/><polygon class="cls-8" points="553.67 27.87 553.73 26.19 552.84 27.61 553.67 27.87"/><g class="cls-148"><line class="cls-150" x1="546.74" y1="49.13" x2="546.89" y2="48.66"/><line class="cls-151" x1="547.16" y1="47.75" x2="549.76" y2="39.2"/><line class="cls-150" x1="549.9" y1="38.75" x2="550.05" y2="38.27"/><polygon class="cls-8" points="547.25 48.98 546.36 50.41 546.41 48.72 547.25 48.98"/></g><line class="cls-152" x1="535.36" y1="33.2" x2="550.05" y2="38.27"/><polygon class="cls-12" points="535.5 33.71 534.11 32.77 535.79 32.89 535.5 33.71"/><g class="cls-148"><line class="cls-152" x1="563.86" y1="43.04" x2="563.39" y2="42.88"/><line class="cls-153" x1="562.38" y1="42.53" x2="550.85" y2="38.55"/><line class="cls-152" x1="550.35" y1="38.38" x2="549.87" y2="38.21"/><polygon class="cls-12" points="563.72 42.53 565.11 43.48 563.43 43.36 563.72 42.53"/></g><text class="cls-154" transform="translate(535.93 32.45) rotate(-73.5)">Y</text><text class="cls-155" transform="translate(554.03 27.93) rotate(15.17)">X</text><text class="cls-156" transform="translate(558.91 35.71) rotate(68.17)">Z</text></g></svg>