<svg
  width="450" height="350"
  xmlns="http://www.w3.org/2000/svg"
  viewbox="0 0 450 350"
>

  <desc>PreserveAspectRatio 属性の用例</desc>

  <style type="text/css">
    text { font-size: 9; text-anchor:middle; font-family: monospace;}
    text.legend { font-family: serif;}
    rect { fill: none; stroke: blue;}
    .bounds { fill:black; stroke:red; stroke-width:2px; }
	svg { outline: solid blue thin;}
  </style>

  <defs>
    <g id="smile">
      <circle cx="0" cy="0" r="10"  fill="yellow"/>
      <circle cx="-3" cy="-3" r="1.5" fill="black"/>
      <circle cx="3" cy="-3" r="1.5" fill="black"/>
      <path d="M -5 4 A 8 8 0 0 0 5 4" stroke="black" stroke-width="2"/>
    </g>

    <g id="smile-1">
      <rect x="1" y="1" width="28" height="48" class="bounds"/>
      <use href="#smile" transform="translate(15,25)"/>
    </g>
    <g id="smile-2">
      <rect x="1" y="1" width="48" height="28" class="bounds"/>
      <use href="#smile" transform="translate(25,15)"/>
    </g>
  </defs>

  <rect x="0" y="0" width="450" height="350"/>

  <g transform="translate(110,40)">
    <text class="legend" x="0" y="-10">収める SVG（縦長）</text>
    <use href="#smile-1" transform="translate(-15,0)"/>
  </g>

  <g transform="translate(340,40)">
    <text class="legend" x="0" y="-10">収める SVG（横長）</text>
    <use href="#smile-2" transform="translate(-25,0)"/>
  </g>

  <g transform="translate(225,40)">
    <text class="legend" x="0" y="-10">表示域</text>
    <rect x="0" y="0" width="40" height="40"  transform="translate(-20,0)"/>
  </g>

  <g id="meet-group-1" transform="translate(20, 170)">
    <text x="90" y="-40">meet</text>
    <g>
      <text x="20" y="-10">xMin*</text>
      <rect x="0" y="0" width="40" height="40"/>
      <svg preserveAspectRatio="xMinYMin meet" viewBox="0 0 30 50" width="40" height="40">
        <use href="#smile-1"/>
      </svg>
    </g>
    <g transform="translate(70,0)">
      <text x="20" y="-10">xMid*</text>
      <rect x="0" y="0" width="40" height="40"/>
      <svg preserveAspectRatio="xMidYMid meet" viewBox="0 0 30 50" width="40" height="40">
        <use href="#smile-1"/>
      </svg>
    </g>
    <g transform="translate(140,0)">
      <text x="20" y="-10">xMax*</text>
      <rect x="0" y="0" width="40" height="40"/>
      <svg preserveAspectRatio="xMaxYMax meet" viewBox="0 0 30 50" width="40" height="40">
        <use href="#smile-1"/>
      </svg>
    </g>
  </g>

  <g id="meet-group-2" transform="translate(250, 170)">
    <text x="90" y="-40">meet</text>
    <g>
      <text x="20" y="-10">*YMin</text>
      <rect x="0" y="0" width="40" height="40"/>
      <svg preserveAspectRatio="xMinYMin meet" viewBox="0 0 50 30" width="40" height="40">
        <use href="#smile-2"/>
      </svg>
    </g>
    <g transform="translate(70, 0)">
      <text x="20" y="-10">*YMid</text>
      <rect x="0" y="0" width="40" height="40"/>
      <svg preserveAspectRatio="xMidYMid meet" viewBox="0 0 50 30" width="40" height="40">
	<use href="#smile-2"/>
      </svg>
    </g>
    <g transform="translate(140, 0)">
      <text x="20" y="-10">*YMax</text>
      <rect x="0" y="0" width="40" height="40"/>
      <svg preserveAspectRatio="xMaxYMax meet" viewBox="0 0 50 30" width="40" height="40">
        <use href="#smile-2"/>
      </svg>
    </g>
  </g>

  <g id="slice-group-2" transform="translate(20, 290)">
    <text x="90" y="-40">slice</text>
    <g>
      <text x="20" y="-10">*YMin</text>
      <rect x="0" y="0" width="40" height="40"/>
      <svg preserveAspectRatio="xMinYMin slice" viewBox="0 0 30 50" width="40" height="40">
        <use href="#smile-1"/>
      </svg>
    </g>
    <g transform="translate(70,0)">
      <text x="20" y="-10">*YMid</text>
      <rect x="0" y="0" width="40" height="40"/>
      <svg preserveAspectRatio="xMidYMid slice" viewBox="0 0 30 50" width="40" height="40">
        <use href="#smile-1"/>
      </svg>
    </g>
    <g transform="translate(140,0)">
      <text x="20" y="-10">*YMax</text>
      <rect x="0" y="0" width="40" height="40"/>
      <svg preserveAspectRatio="xMaxYMax slice" viewBox="0 0 30 50" width="40" height="40">
        <use href="#smile-1"/>
      </svg>
    </g>
  </g>

  <g id="slice-group-1" transform="translate(250, 290)">
    <text x="90" y="-40">slice</text>
    <g>
      <text x="20" y="-10">xMin*</text>
      <rect x="0" y="0" width="40" height="40"/>
      <svg preserveAspectRatio="xMinYMin slice" viewBox="0 0 50 30" width="40" height="40">
        <use href="#smile-2"/>
      </svg>
    </g>
    <g transform="translate(70,0)">
      <text x="20" y="-10">xMid*</text>
      <rect x="0" y="0" width="40" height="40"/>
      <svg preserveAspectRatio="xMidYMid slice" viewBox="0 0 50 30" width="40" height="40">
        <use href="#smile-2"/>
      </svg>
    </g>
    <g transform="translate(140,0)">
      <text x="20" y="-10">xMax*</text>
      <rect x="0" y="0" width="40" height="40"/>
      <svg preserveAspectRatio="xMaxYMax slice" viewBox="0 0 50 30" width="40" height="40">
        <use href="#smile-2"/>
      </svg>
    </g>
  </g>
</svg>