<svg
	xmlns="http://www.w3.org/2000/svg"
	width="100%"
	height="100%"
	viewBox="0 0 555 510"
>

<style type="text/css">
:root {
	color-scheme: light dark;
	background: Canvas;
	--grey: light-dark( grey, silver );
	--blue: light-dark( blue, #6969ff );
	font-size: 23px;
	font-family: sans-serif;
	--red: red;
}


/*
* Line work
*/
.axis {
	stroke: CanvasText;
	stroke-width: 1.5;
	fill: none;
	stroke-linecap: square;
}
.boundaryLine {
	stroke: var(--grey);
	stroke-width: 1.5;
	stroke-dasharray: 3 4;
	fill: none;
}
/*
* Text labels
*/
text {
	fill: CanvasText;
	stroke: none;
}
.axisLabel {
	text-anchor: middle;
}
.axisValue {
	fill: var(--grey);
}
.axisValue.vert {
	text-anchor: end;
}
.axisValue.horz {
	text-anchor: middle;
}
</style>


<!-- Translate to origin -->
	<g transform="translate(130 420)">
<!-- Bounds -->
<path d="m0,-400 h400 v400" class="boundaryLine" />
<path
	class="axis"
	d="
M0,0 v-400 M0,-100 h-20 M0,-200 h-20 M0,-300 h-20 M0,-400 h-20
M0,0 h400 M100,0 v20 M200,0 v20 M300,0 v20 M400,0 v20
	"
/>

<!-- Y axis -->
<text x="-30" y="-100" dy="0.3em" class="axisValue vert">0.25</text>
<text x="-30" y="-200" dy="0.3em" class="axisValue vert">0.5</text>
<text x="-30" y="-300" dy="0.3em" class="axisValue vert">0.75</text>
<text x="-30" y="-400" dy="0.3em" class="axisValue vert">1</text>
<text x="200" y="-100" class="axisLabel" transform="rotate(-90)">出力進捗</text>

<!-- X axis -->
<text x="100" y="20" dy="1.1em" class="axisValue horz">0.25</text>
<text x="200" y="20" dy="1.1em" class="axisValue horz">0.5</text>
<text x="300" y="20" dy="1.1em" class="axisValue horz">0.75</text>
<text x="400" y="20" dy="1.1em" class="axisValue horz">1</text>
<text x="200" y="80" class="axisLabel">入力進捗</text>
<!-- Origin -->
<text x="-20" y="20" class="axisValue">0</text>
	</g>
</svg>
