<svg
	width="700" height="240"
	viewBox="0 0 700 240"
	fill="none"
	xmlns="http://www.w3.org/2000/svg"
>

<style type="text/css"><![CDATA[
:root {
	color-scheme: light dark;
}
text {
	sreoke: none;
	fill: CanvasText;
	font-size: 18px;
}
#allow {
	sreoke: none;
	fill: light-dark(black, white);
}

#box {
	fill: none;
	stroke: silver;
	stroke-width: 4px;
}
]]></style>

<defs>
<path
	id="allow"
	transform="translate(96, 58)"
	d="M0,0 l-8,-7 l4,7 l-4,7 l8,-7 m-2,-1 h-58 v2 h58 Z"
/>

	<g id="box-and-allows" transform="translate( -110, -120)">
<path
	id="box"
	d="M10,10 h200 v220 h-200 z m100,0 v220"
	fill="none"
	stroke="#999999"
	stroke-width="4"
/>
<use href="#allow" transform="translate( 0,   0)" />
<use href="#allow" transform="translate( 0,  40)" />
<use href="#allow" transform="translate( 0,  80)" />
<use href="#allow" transform="translate( 0, 120)" />
<use href="#allow" transform="translate(90,   0)" />
<use href="#allow" transform="translate(90,  40)" />
<use href="#allow" transform="translate(90,  80)" />
<use href="#allow" transform="translate(90, 120)" />
	</g>
	<g id="numbers" transform="translate(-70, -70)">
<text transform="translate( 0,   0)">1</text>
<text transform="translate( 0,  40)">2</text>
<text transform="translate( 0,  80)">3</text>
<text transform="translate( 0, 120)">4</text>
<text transform="translate(90,   0)">5</text>
<text transform="translate(90,  40)">6</text>
<text transform="translate(90,  80)">7</text>
<text transform="translate(90, 120)">8</text>
	</g>
	<g id="numbers2" transform="translate(-70, -70)">
<text transform="translate( 0,   0)">4</text>
<text transform="translate( 0,  40)">3</text>
<text transform="translate( 0,  80)">2</text>
<text transform="translate( 0, 120)">1</text>
<text transform="translate(90,   0)">8</text>
<text transform="translate(90,  40)">7</text>
<text transform="translate(90,  80)">6</text>
<text transform="translate(90, 120)">5</text>
	</g>
</defs>

<rect width="700" height="240" fill="Canvas" stroke="none" />

	<g transform="translate(110,120)">
<use href="#box-and-allows" />
<use href="#numbers"/>
	</g>

	<g transform="translate(340,110)rotate(90)">
<use href="#box-and-allows" />
<use href="#numbers"/>
	</g>

	<g transform="translate(580,110)rotate(90)">
<use href="#box-and-allows" />
<use href="#numbers2"/>
	</g>
</svg>
