<svg
	width="700" height="240"
	viewBox="0 0 700 240"
	fill="none"
	xmlns="http://www.w3.org/2000/svg"
>

<defs>
	<g id="allow">
<path d="M95.7192 57.6948C96.1029 57.2976 96.092 56.6645 95.6948 56.2808L89.2221 50.0275C88.8249 49.6438 88.1918 49.6547 87.8081 50.0519C87.4244 50.4491 87.4353 51.0821 87.8325 51.4659L93.586 57.0244L88.0275 62.7779C87.6438 63.1751 87.6547 63.8082 88.0519 64.1919C88.4491 64.5756 89.0822 64.5647 89.4659 64.1675L95.7192 57.6948ZM37.0172 58.9999L95.0172 57.9999L94.9828 56.0001L36.9828 57.0001L37.0172 58.9999Z" fill="black"/>
	</g>

	<g id="box-and-allows" transform="translate( -110, -120)">
<path d="M10,10 h200 v220 h-200 z m100,0 v220" fill="none" stroke="#999999" stroke-width="5" />
<use href="#allow" transform="translate( 0,   0)" />
<use href="#allow" transform="translate( 0,  40)" />
<use href="#allow" transform="translate( 0,  80)" />
<use href="#allow" transform="translate( 0, 120)" />
<use href="#allow" transform="translate(90,   0)" />
<use href="#allow" transform="translate(90,  40)" />
<use href="#allow" transform="translate(90,  80)" />
<use href="#allow" transform="translate(90, 120)" />
	</g>
	<g id="numbers" transform="translate(-70, -70)" fill="black" stroke="none" font-size="18">
<text transform="translate( 0,   0)">1</text>
<text transform="translate( 0,  40)">2</text>
<text transform="translate( 0,  80)">3</text>
<text transform="translate( 0, 120)">4</text>
<text transform="translate(90,   0)">5</text>
<text transform="translate(90,  40)">6</text>
<text transform="translate(90,  80)">7</text>
<text transform="translate(90, 120)">8</text>
	</g>
	<g id="numbers2" transform="translate(-70, -70)" fill="black" stroke="none" font-size="18">
<text transform="translate( 0,   0)">4</text>
<text transform="translate( 0,  40)">3</text>
<text transform="translate( 0,  80)">2</text>
<text transform="translate( 0, 120)">1</text>
<text transform="translate(90,   0)">8</text>
<text transform="translate(90,  40)">7</text>
<text transform="translate(90,  80)">6</text>
<text transform="translate(90, 120)">5</text>
	</g>
</defs>

<rect width="700" height="240" fill="white" stroke="none" />

	<g transform="translate(110,120)">
<use href="#box-and-allows" />
<use href="#numbers"/>
	</g>

	<g transform="translate(340,110)rotate(90)">
<use href="#box-and-allows" />
<use href="#numbers"/>
	</g>

	<g transform="translate(580,110)rotate(90)">
<use href="#box-and-allows" />
<use href="#numbers2"/>
	</g>
</svg>
