<?xml version="1.0" encoding="UTF-8" standalone="no"?>
<svg xmlns="http://www.w3.org/2000/svg" width="450" height="250" version="1.1">
   <style>
   text {
      font-family: sans-serif;
      font-weight: bold;
      font-size: 18px;
      fill:#000000;
      fill-opacity:1;
   }
   @media (prefers-color-scheme: dark) {
      svg {
         filter: invert(100%);
      }
   }
   </style>
  <defs>
    <marker orient="auto" refY="0" refX="0" id="m1" style="overflow:visible">
      <path d="M 0,0 5,-5 -12.5,0 5,5 0,0 z" style="fill-rule:evenodd;stroke:#000000;stroke-width:1pt;marker-start:none" transform="matrix(0.2,0,0,0.2,1.2,0)" />
    </marker>
    <marker orient="auto" refY="0" refX="0" id="m2" style="overflow:visible">
      <path d="M 0,0 5,-5 -12.5,0 5,5 0,0 z" style="fill-rule:evenodd;stroke:#000000;stroke-width:1pt;marker-start:none" transform="matrix(-0.4,0,0,-0.4,-4,0)" />
    </marker>
  </defs>
  <g id='main'>
   <rect x="0" y="0" width="450" height="250" style="fill:white;fill-opacity:1;stroke:none" />
   <path d="M 65,88 L 356,55 L 366,197 L 74,230 Z" style="fill:#ed1c24;fill-opacity:1;" />
   <text style="font-size:24px;" x="80" y="210">A</text>
   <path d="M 95,68 L 386,35 L 396,177 L 104,210 Z" style="fill:#ff7f27;fill-opacity:1;" />
   <text style="font-size:24px;" x="110" y="190">B</text>
   <path d="M 125,48 L 416,15 L 426,157 L 134,190 Z" style="fill:#ffc90e;fill-opacity:1;" />
   <text style="font-size:24px;" x="140" y="170">C</text>   
   <path d="M 396,193 74,229" style="fill:none;stroke:#000000;stroke-width:3;marker-start:url(#m1)" />
   <text x="390" y="213">x</text>
   <path d="M 64,68 75,230" style="fill:none;stroke:#000000;stroke-width:3;marker-start:url(#m1)" />
   <text x="45" y="88">y</text>
   <path d="M 189,152 75,230" style="fill:none;stroke:#000000;stroke-width:3;marker-start:url(#m1)" />
   <text x="179" y="172">z</text>
   <path d="m 24,174 0,28 2,0 0,-2 2,0 0,-2 2,0 0,-2 2,0 0,2 2,0 0,4 2,0 0,4 4,0 0,-4 -2,0 0,-4 -2,0 0,-4 8,0 0,-2 -2,0 0,-2 -2,0 0,-2 -2,0 0,-2 -2,0 0,-2 -2,0 0,-2 -2,0 0,-2 -2,0 0,-2 -2,0 0,-2 -2,0 0,-2 z" style="fill:#808080;fill-opacity:1;stroke:none" />
   <path d="M 26,171 c 29.2439,-38.65571 82.12691,-77.34202 152.40746,-83.72862" style="fill:none;stroke:#000000;stroke-width:2;stroke-linecap:butt;stroke-linejoin:miter;stroke-miterlimit:4;stroke-opacity:1;stroke-dasharray:2, 4;marker-end:url(#m2)" />
   <path d="m 184,88 0,28 2,0 0,-2 2,0 0,-2 2,0 0,-2 2,0 0,2 2,0 0,4 2,0 0,4 4,0 0,-4 -2,0 0,-4 -2,0 0,-4 8,0 0,-2 -2,0 0,-2 -2,0 0,-2 -2,0 0,-2 -2,0 0,-2 -2,0 0,-2 -2,0 0,-2 -2,0 0,-2 -2,0 0,-2 -2,0 0,-2 z" style="fill:#000000;fill-opacity:1;stroke:none" />
  </g>
</svg>
