<svg xmlns="http://www.w3.org/2000/svg"
     xmlns:xlink="http://www.w3.org/1999/xlink"
     width="100%"
	height="100%"
	viewBox="0 0 640 690">

  <title>DOM Level 3 Events: Event Flow</title>
  <desc>Alternate description</desc>

<defs id="defs-1">

<path id="arrowhead"
	d="M-9,-4 L0,0 -9,4 Z"
	stroke-linejoin="round"
	stroke-linecap="round"
/>

<marker id="blackArrow"
	viewBox="-13 -5 14 10"
	refX="-4"
	markerWidth="10"
	markerHeight="20"
	orient="auto">
<use xlink:href="#arrowhead"
	stroke="black"
	fill="black"  />
</marker>

<marker id="redArrow"
	viewBox="-13 -5 14 10"
	refX="-4"
	markerWidth="10"
	markerHeight="20"
	orient="auto">
<use xlink:href="#arrowhead"
	stroke="red"
	fill="red"
	 />
</marker>

<marker id="greenArrow"
	viewBox="-13 -5 14 10"
	refX="-4"
	markerWidth="10"
	markerHeight="20"
	orient="auto">
<use xlink:href="#arrowhead"
	stroke="green"
	fill="green"  />
</marker>

<filter x="-5%"
	y="-5%"
	width="120%"
	height="120%"
	id="dropShadow">
	<feGaussianBlur stdDeviation="2 2" in="SourceAlpha"/> 
	<feOffset dx="4" dy="4"/>
	<feComponentTransfer result="shadow">
		<feFuncA type="linear" slope=".55" intercept="0"/>
	</feComponentTransfer>
	<feMerge>
		<feMergeNode/>
		<feMergeNode in="SourceGraphic"/>
	</feMerge>
</filter>


<rect
	id="box1"
	x="-50"
	y="0"
	width="100"
	height="40"
	rx="5"
	ry="5"
	fill="lightskyblue"
	stroke="black"
	filter="url(#dropShadow)"
/>

<ellipse
	id="box2"
	cx="0"
	cy="35"
	rx="64"
	ry="35"
	fill="steelblue"
	stroke="black"
	filter="url(#dropShadow)"
/>

<path
	id="edge1"
	d="m0,0 v23"
	stroke="black"
	stroke-width="2"
	marker-end="url(#blackArrow)"
/>

<path
	id="edge2"
	fill="none"
	stroke="black"
	stroke-width="2"
	marker-end="url(#blackArrow)"
	d="m0,0 q0,20 -20,20 h-30 q-20,0-20,23"
/>

</defs>

	<g id="nodes"
	font-family="Verdana, sans-serif"
	font-size="18"
	fill="black"
	text-anchor="middle"
	stroke="none"
	stroke-width="2">
		<g id="Window-node" transform="translate(310, 10)">
			<a xlink:href="../uievents-ja.html#glossary-window" target="_parent">
<rect
	x="-70"
	y="0"
	width="140"
	height="40"
	fill="gainsboro"
	stroke="black"
	filter="url(#dropShadow)"
	/>
<text x="0" y="26">Window</text>
</a>
    </g>

    <g id="document-node" transform="translate(310, 80)">
		<a xlink:href="../uievents-ja.html#glossary-document" target="_parent">
<rect
	x="-60"
	y="0"
	width="120"
	height="40"
	fill="gainsboro"
	stroke="black"
	filter="url(#dropShadow)"
/>
<text x="0" y="26">Document</text>
      </a>
    </g>

    <g id="html-node" transform="translate(310, 150)">
<use xlink:href="#box1" transform="" />
<text x="0" y="26">&lt;html&gt;</text>
    </g>

    <g id="body-node" transform="translate(310, 220)">
<use xlink:href="#box1" transform="" />
<text x="0" y="26">&lt;body&gt;</text>
    </g>

    <g id="table-node" transform="translate(310, 290)">
<use xlink:href="#box1" transform="" />
<text x="0" y="26">&lt;table&gt;</text>
    </g>

    <g id="tbody-node" transform="translate(310, 360)">
<use xlink:href="#box1" transform="" />
<text x="0" y="26">&lt;tbody&gt;</text>
    </g>

    <g id="tr_1-node" transform="translate(140, 450)">
<use xlink:href="#box1" transform="" />
<text x="0" y="26">&lt;tr&gt;</text>
    </g>

    <g id="tr_2-node" transform="translate(500, 450)">
<use xlink:href="#box1" transform="" />
<text x="0" y="26">&lt;tr&gt;</text>
    </g>


    <g id="tr_1_td_1-node" transform="translate(70, 540)">
<use xlink:href="#box1" transform="" />
<text x="0" y="26">&lt;td&gt;</text>
    </g>

    <g id="tr_1_td_1_text-node" transform="translate(70, 610)">
<use xlink:href="#box2" transform="" />
<text x="0" y="40" font-size="15" fill="white" text-anchor="middle">Shady Grove</text>
    </g>


    <g id="tr_1_td_2-node" transform="translate(210, 540)">
<use xlink:href="#box1" transform="" />
<text x="0" y="26">&lt;td&gt;</text>
    </g>

    <g id="tr_1_td_2_text-node" transform="translate(210, 610)">
<use xlink:href="#box2" transform="" />
<text x="0" y="40" font-size="15" fill="white" text-anchor="middle">Aeolian</text>
    </g>


    <g id="tr_2_td_1-node" transform="translate(430, 540)">
<rect
	x="-50"
	y="0"
	width="100"
	height="40"
	rx="5"
	ry="5"
	fill="blue"
	stroke="black"
	filter="url(#dropShadow)"
/>
<text x="0" y="26" fill="white">&lt;td&gt;</text>
    </g>

    <g id="tr_2_td_1_text-node" transform="translate(430, 610)">
<use xlink:href="#box2" transform="" />
<text x="0" y="40" font-size="15" fill="white" text-anchor="middle">
<tspan x="0" y="34">Over the River,</tspan>
<tspan x="0" y="54">Charlie</tspan>
</text>
    </g>


    <g id="tr_2_td_2-node" transform="translate(570, 540)">
<use xlink:href="#box1" transform="" />
<text x="0" y="26">&lt;td&gt;</text>
    </g>

    <g id="tr_2_td_2_text-node" transform="translate(570, 610)">
<use xlink:href="#box2" transform="" />
<text x="0" y="40" font-size="15" fill="white" text-anchor="middle">Dorian</text>
    </g>
  </g>
  
  <g id="edges">
<use
	id="window-document"
	xlink:href="#edge1"
	transform="translate(310,50)"
/>
<use
	id="document-html"
	xlink:href="#edge1"
	transform="translate(310,120)"
/>
<use
	id="html-body"
	xlink:href="#edge1"
	transform="translate(310,190)"
/>
<use
	id="body-table"
	xlink:href="#edge1"
	transform="translate(310,260)"
/>
<use
	id="table-tbody"
	xlink:href="#edge1"
	transform="translate(310,330)"
/>

<path id="tbody-tr_1"
	fill="none"
	stroke="black"
	stroke-width="2"
	marker-end="url(#blackArrow)"
	d="m310,400 q0,20 -50,20 h-100 q-20,0-20,23"
/>
<path id="tbody-tr_2"
	fill="none"
	stroke="black"
	stroke-width="2"
	marker-end="url(#blackArrow)"
	d="m310,400 q0,20 50,20 h120 q20,0 20,23"
/>

<use
	xlink:href="#edge2"
	id="tr_1-tr_2_td_1"
	transform="translate(140,490)"
/>
<use
	xlink:href="#edge2"
	id="tr_1-tr_2_td_2"
	transform="translate(140,490)scale(-1,1)"
/>
<use
	xlink:href="#edge2"
	id="tr_2-tr_2_td_1"
	transform="translate(500,490)"
/>
<use
	xlink:href="#edge2"
	id="tr_2-tr_2_td_2"
	transform="translate(500,490)scale(-1,1)"
/>


<use
	id="tr_1_td_1-text"
	xlink:href="#edge1"
	transform="translate(70,580)"
/>
<use
	id="tr_1_td_2-text"
	xlink:href="#edge1"
	transform="translate(210,580)"
/>
<use
	id="tr_2_td_1-text"
	xlink:href="#edge1"
	transform="translate(430,580)"
/>
<use
	id="tr_2_td_2-text"
	xlink:href="#edge1"
	transform="translate(570,580)"
/>

  </g>
  
  <g id="event-flow" stroke-dasharray="10,5">
    <g id="capture_phase">
      <a xlink:href="../uievents-ja.html#capture-phase" target="_parent"><text fill="red" font-family="Verdana, sans-serif" font-size="20" font-weight="bold" text-anchor="middle">
<tspan x="150" y="200">捕獲相</tspan>
<tspan x="150" y="220">Capture</tspan>
<tspan x="150" y="240">Phase</tspan>
<tspan x="150" y="260">(1)</tspan></text></a>

<path id="capture_phase_arrow"
	fill="none"
	stroke="red"
	stroke-width="3"
	marker-end="url(#redArrow)"
	stroke-linecap="round"
	d="M235,28 C195,25 195,75 238,85 "
/>
<use xlink:href="#capture_phase_arrow" x="5" y="70" />
<use xlink:href="#capture_phase_arrow" x="10" y="140" />
<use xlink:href="#capture_phase_arrow" x="10" y="210" />
<use xlink:href="#capture_phase_arrow" x="10" y="280" />
<path id="capture_phase_arrow2"
	fill="none"
	stroke="red"
	stroke-width="3"
	marker-end="url(#redArrow)"
	stroke-linecap="round"
	d="M245,378 C205,375 205,473 428,458 "
/>
<path id="capture_phase_arrow3"
	fill="none"
	stroke="red"
	stroke-width="3"
	marker-end="url(#redArrow)"
	stroke-linecap="round"
	stroke-dasharray="none"
	d="M428,473 C330,470 330,533 363,548 "
/>

    </g>
    
    <g id="target_phase">
      <a xlink:href="../uievents-ja.html#target-phase" target="_parent">
<text fill="blue"
	font-family="Verdana, sans-serif"
	font-size="20"
	font-weight="bold"
	text-anchor="middle">
<tspan x="337" y="580">Target</tspan>
<tspan x="337" y="600">Phase</tspan>
<tspan x="337" y="620">(2)</tspan></text></a>
      
<rect
	x="-50"
	y="0"
	width="100"
	height="40"
	rx="5"
	ry="5"
	fill="none"
	stroke="black"
	stroke-width="5"
	stroke-dasharray="none"
	transform="translate(430, 540)"
/>
    </g>
    
    <g id="bubble_phase">
      <a xlink:href="../uievents-ja.html#bubble-phase" target="_parent">
<text fill="green"
	font-family="Verdana, sans-serif"
	font-size="20"
	font-weight="bold"
	text-anchor="middle">
<tspan x="490" y="300">浮上相</tspan>
<tspan x="490" y="320">Bubbling</tspan>
<tspan x="490" y="340">Phase</tspan>
<tspan x="490" y="360">(3)</tspan></text></a>

<path id="bubble_phase_arrow3"
	fill="none"
	stroke="green"
	stroke-width="3"
	marker-end="url(#greenArrow)"
	stroke-linecap="round"
	stroke-dasharray="none"
	d="M492,548 C630,483 630,470 562,473"
/>
<path id="bubble_phase_arrow2"
	fill="none"
	stroke="green"
	stroke-width="3"
	marker-end="url(#greenArrow)"
	stroke-linecap="round"
	d="M565,457 C605,447 605,398 377,388"
/>
<path id="bubble_phase_arrow"
	fill="none"
	stroke="green"
	stroke-width="3"
	marker-end="url(#greenArrow)"
	stroke-linecap="round"
	d="M375,375 C415,372 415,332 375,322"
/>
<use xlink:href="#bubble_phase_arrow" x="0" y="-70" />
<use xlink:href="#bubble_phase_arrow" x="0" y="-140" />
<path id="bubble_phase_arrow4"
	fill="none"
	stroke="green"
	stroke-width="3"
	marker-end="url(#greenArrow)"
	stroke-linecap="round"
	d="M375,165 C425,162 425,122 385,112"
/>
<path id="bubble_phase_arrow"
	fill="none"
	stroke="green"
	stroke-width="3"
	marker-end="url(#greenArrow)"
	stroke-linecap="round"
	d="M385,95 C435,92 435,52 395,42"
/>
    </g>
  </g>
  
</svg>
