<svg
   xmlns:svg="http://www.w3.org/2000/svg"
   xmlns="http://www.w3.org/2000/svg"
   xmlns:xlink="http://www.w3.org/1999/xlink"
   width="450"
   height="250"
   version="1.1"
>

<defs>

<path id="cursor"
 d="m 0,0 0,28 2,0 0,-2 2,0 0,-2 2,0 0,-2 2,0 0,2 2,0 0,4 2,0 0,4 4,0 0,-4 -2,0 0,-4 -2,0 0,-4 8,0 0,-2 -2,0 0,-2 -2,0 0,-2 -2,0 0,-2 -2,0 0,-2 -2,0 0,-2 -2,0 0,-2 -2,0 0,-2 -2,0 0,-2 -2,0 0,-2 z"
style="stroke:none;" />


<rect id="element"
	x="0"
	y="0"
	width="293.22079"
	height="142.3958"
	stroke="none"
/>

<marker
	orient="auto"
	refY="0"
	refX="0"
	id="Arrow1Mend"
	style="overflow:visible"
>
<path
	d="M 0,0 5,-5 -12.5,0 5,5 0,0 z"
	style="stroke:black;stroke-width:2;"
	transform="matrix(-0.4,0,0,-0.4,-4,0)"
/>
</marker>

<marker
	orient="auto"
	refY="0"
	refX="0"
	id="Arrow1Send"
	style="overflow:visible"
>
<path
	d="M 0,0 5,-5 -12.5,0 5,5 0,0 z"
	style="stroke:black;stroke-width:2;"
	transform="matrix(-0.2,0,0,-0.2,-1.2,0)"
/>
</marker>


</defs>

<g transform="translate(-137.85701,-517.141)">

	<g transform="matrix(1,-0.11301575,0.06717403,1,0,0)">

<use xlink:href="#element"
	transform="translate(162,624.36774)"
	fill="#ed1c24"
/>

<use xlink:href="#element"
	transform="translate(193,607.86884)"
	fill="#ff7f27"
/>

<use xlink:href="#element"
	transform="translate(224, 591.36993)"
	fill="#ffc90e"
/>


		<g
style="fill:none;stroke:black;stroke-width:3;stroke-opacity:1;">
<path
	d="m 162,767 h312.5"
	style="marker-end:url(#Arrow1Send)"
/>
<path
d="M 162,767 V609"
 style="marker-end:url(#Arrow1Send)" />
<path
	style="marker-end:url(#Arrow1Send)"
	d="M 162,767 280.67401,703.52016"
/>
		</g>
	</g>

	<g style="
font-size:24px;
font-weight:bold;
text-anchor:middle;
fill:black;
fill-opacity:1;
stroke:none;
font-family:Verdana;
font-stretch:normal;
font-variant:normal;
	">
<text y="723.95667" x="225.5477">A</text>
<text x="255.5477" y="703.95667">B</text>
<text y="683.95667" x="285.5477">C</text>
	</g>

<use
	xlink:href="#cursor"
	transform="translate(320.53771,606)"
	fill="black"
/>
<use
	xlink:href="#cursor"
	transform="translate(162.55349,691.72408)"
	fill="#AAAAAA"
/>
<path
	d="m 164.90553,688.69292 c 29.2439,-38.65571 82.12691,-77.34202 152.40746,-83.72862"
	style="fill:none;stroke:black;stroke-width:2;stroke-linecap:butt;stroke-dasharray:2, 4;stroke-dashoffset:0;marker-end:url(#Arrow1Mend)" />

</g>

</svg>
